<?xml version="1.0" standalone="no"?>
<!DOCTYPE svg PUBLIC "-//W3C//DTD SVG 1.1//EN" "http://www.w3.org/Graphics/SVG/1.1/DTD/svg11.dtd" >
<svg xmlns="http://www.w3.org/2000/svg">
<metadata></metadata>
<defs>
<font id="nexussans-regularscregular" horiz-adv-x="1024" >
<font-face units-per-em="2048" ascent="1638" descent="-410" />
<missing-glyph horiz-adv-x="512" />
<glyph horiz-adv-x="2048" />
<glyph horiz-adv-x="2048" />
<glyph unicode="&#xd;" horiz-adv-x="512" />
<glyph unicode=" "  horiz-adv-x="512" />
<glyph unicode="&#x09;" horiz-adv-x="512" />
<glyph unicode="&#xa0;" horiz-adv-x="512" />
<glyph unicode="!" horiz-adv-x="512" d="M121 111q0 54 40.5 92.5t94.5 38.5t94.5 -38.5t40.5 -92.5q0 -55 -40.5 -96.5t-94.5 -41.5t-94.5 40.5t-40.5 97.5zM156 1116l198 4l-28 -706h-140z" />
<glyph unicode="&#x22;" horiz-adv-x="686" d="M109 971v510h145v-510h-145zM436 971v510h144v-510h-144z" />
<glyph unicode="#" d="M20 182v129h207l4 301h-208v129h210l7 447h139l-8 -447h299l8 447h137l-6 -445h195v-131h-199l-4 -299h203v-131h-205l-8 -467h-138l9 467h-304l-8 -467h-135l6 467h-201zM362 311h302l4 301h-299z" />
<glyph unicode="$" d="M106 43l27 152q82 -45 156 -66.5t170 -22.5v463q-10 6 -30 17q-45 25 -68 38.5t-62.5 39t-61 43.5t-49 46.5t-41.5 55t-24 60.5t-10 71q0 136 93.5 232t252.5 114v107h116v-103q105 -3 174 -16.5t148 -44.5l-14 -152q-78 43 -149 61.5t-159 20.5v-467q145 -80 182 -106 q133 -90 156 -197q5 -26 5 -53q0 -96 -49 -172t-124.5 -119t-169.5 -59v-101h-116v90q-207 6 -353 68zM299 954q0 -66 41.5 -111.5t118.5 -88.5v397q-75 -22 -117.5 -78t-42.5 -119zM575 125q71 24 114.5 75.5t43.5 116.5q0 63 -40 105.5t-118 85.5v-383z" />
<glyph unicode="%" horiz-adv-x="2048" d="M231 1004q0 148 104.5 252t250.5 104q148 0 251 -104t103 -252t-103.5 -252.5t-250.5 -104.5q-146 0 -250.5 104.5t-104.5 252.5zM365 1004q0 -94 64.5 -159t156.5 -65q93 0 157 65t64 159q0 93 -64 158t-157 65q-92 0 -156.5 -65.5t-64.5 -157.5zM426 -29l1102 1430 l102 -72l-1102 -1429zM1108 328q0 148 102.5 252t249.5 104t252 -104.5t105 -251.5q0 -146 -105.5 -250.5t-251.5 -104.5q-147 0 -249.5 104t-102.5 251zM1237 328q0 -92 64.5 -157t158.5 -65q92 0 156.5 65t64.5 157q0 94 -64.5 158.5t-156.5 64.5q-94 0 -158.5 -64.5 t-64.5 -158.5z" />
<glyph unicode="&#x26;" horiz-adv-x="1179" d="M47 248q0 47 14.5 91.5t35 76.5t55.5 67t61.5 56.5t67.5 52.5q-125 146 -125 262q0 111 84 182.5t198 71.5q113 0 182.5 -70.5t69.5 -167.5q0 -101 -53 -168.5t-156 -132.5l232 -313q107 118 160.5 280t64.5 379h-141v111h415v-108h-133q-11 -236 -84.5 -440.5 t-197.5 -321.5q77 -95 156 -183.5t102 -99.5q26 -13 100 -16l-25 -115q-54 0 -98 6q-43 9 -88 35q-53 31 -135 127q-64 75 -125 158q-67 -51 -142 -69.5t-173 -18.5q-143 0 -232.5 67.5t-89.5 200.5zM209 262q0 -65 49 -107t139 -42q118 0 205 51l-242 319 q-151 -114 -151 -221zM303 862q0 -24 37 -88.5t63 -99.5q58 37 98 84.5t40 85.5q0 66 -23 101.5t-90 35.5q-63 0 -94 -37t-31 -82z" />
<glyph unicode="'" horiz-adv-x="358" d="M104 971v510h150v-510h-150z" />
<glyph unicode="(" horiz-adv-x="681" d="M98 514q0 269 95 505t284 488l107 -51q-75 -100 -131 -189.5t-112 -206.5t-86 -249t-30 -270q0 -130 22.5 -256.5t54.5 -223t85 -203.5t94.5 -175t102.5 -160l-107 -51q-75 103 -138 214.5t-119.5 245.5t-89 284.5t-32.5 297.5z" />
<glyph unicode=")" horiz-adv-x="681" d="M98 -477q76 102 131.5 190.5t111.5 205.5t86 249t30 270q0 130 -22.5 256.5t-55 224t-85 203.5t-94.5 175t-102 159l111 51q74 -101 137.5 -214t119.5 -246.5t88 -285t32 -298.5q0 -269 -94.5 -504.5t-282.5 -486.5z" />
<glyph unicode="*" d="M45 1106l47 143l359 -133l-17 385h152l-13 -383l359 133l47 -145l-367 -102l238 -302l-123 -90l-213 318l-211 -318l-125 86l238 303z" />
<glyph unicode="+" d="M45 389v141h397v398h142v-398h397v-141h-397v-397h-142v397h-397z" />
<glyph unicode="," horiz-adv-x="512" d="M121 70l123 174q55 -6 92 -42t51 -81.5t14 -97.5q0 -70 -57.5 -166t-161.5 -201l-61 45q52 77 81 152t29 120q0 33 -28 59.5t-82 37.5z" />
<glyph unicode="-" horiz-adv-x="768" d="M127 397v154h516v-154h-516z" />
<glyph unicode="." horiz-adv-x="512" d="M121 111q0 54 40.5 92.5t94.5 38.5t94.5 -38.5t40.5 -92.5q0 -55 -40.5 -96.5t-94.5 -41.5t-94.5 40.5t-40.5 97.5z" />
<glyph unicode="/" horiz-adv-x="681" d="M-143 -39l862 1555l106 -62l-862 -1552z" />
<glyph unicode="0" d="M45 463q0 208 133 353t334 145q132 0 239.5 -67t167.5 -181t60 -250q0 -135 -59.5 -248.5t-167 -180.5t-240.5 -67q-200 0 -333.5 144t-133.5 352zM209 463q0 -91 37 -174.5t108 -138t158 -54.5t157.5 54t107 137.5t36.5 175.5h2q0 143 -86 254.5t-217 111.5t-217 -111.5 t-86 -254.5z" />
<glyph unicode="1" d="M209 0v131h260v666h-260v131h424v-797h258v-131h-682z" />
<glyph unicode="2" d="M90 0v66l318 266q128 107 180.5 187.5t52.5 156.5q0 162 -190 162q-128 0 -289 -99l-15 150l38 19t38.5 19t34 14.5t41 14t41.5 9t53 7t60 1.5q356 0 356 -291q0 -99 -49 -186.5t-158 -178.5l-225 -186h522v-131h-809z" />
<glyph unicode="3" d="M160 -416l12 137q41 -6 100 -6q67 0 119.5 7t102.5 26t82.5 50.5t52.5 83.5t20 122q0 137 -70 191.5t-202 54.5h-90v121q53 13 93 27t85 37t74 51t48 69.5t19 91.5q0 170 -188 170q-111 0 -246 -98l-12 149q66 35 91 47t82 24.5t130 12.5q147 0 227 -69t80 -211 q0 -123 -60 -208t-171 -120q288 -29 288 -326q0 -107 -41 -192t-114 -138.5t-171 -81.5t-214 -28q-53 0 -127 6z" />
<glyph unicode="4" d="M80 0v123q110 196 280 448q68 100 138.5 196.5t107.5 143.5l37 47h100v-827h189v-131h-189v-397h-149v397h-514zM240 131h354v547q-65 -93 -182 -277z" />
<glyph unicode="5" d="M172 -416l12 137q41 -6 135 -6q340 0 340 299q0 49 -8.5 90t-21.5 71t-36.5 53.5t-46.5 39.5t-58.5 27t-65.5 17t-74.5 9.5t-78 4t-83.5 0.5l131 602h490v-131h-361l-73 -346q467 0 467 -404q0 -104 -30 -186t-81 -134.5t-123.5 -86.5t-151 -48t-169.5 -14q-57 0 -113 6z " />
<glyph unicode="6" d="M113 506q0 279 145 490.5t434 392.5l86 -123q-76 -48 -131 -86.5t-117 -92t-105 -105.5t-78 -119.5t-52 -141.5q133 86 287 86q111 0 189.5 -56t115.5 -146.5t37 -205.5q0 -186 -110 -307t-286 -121q-198 0 -306.5 134.5t-108.5 400.5zM279 492q0 -78 14.5 -143.5 t44 -119t80.5 -84t119 -30.5q48 0 86 15.5t61.5 41t39 61.5t22 74t6.5 82q0 132 -55 198t-173 66q-128 0 -241 -61q-4 -62 -4 -100z" />
<glyph unicode="7" d="M141 655v273h746l-185 -578q-56 -176 -130 -362.5t-120 -285.5l-46 -99h-183q8 14 22.5 40t57 113t83.5 180t93.5 235t95.5 284l103 342h-395l-25 -142h-117z" />
<glyph unicode="8" d="M102 285q0 74 35 155t113 144l141 116l-65 58q-94 83 -131 156t-37 161q0 129 107.5 228.5t258.5 99.5q143 0 239.5 -84.5t96.5 -231.5q0 -83 -24.5 -152t-92.5 -128l-104 -92q17 -14 50 -40.5t52 -42t47.5 -41.5t45.5 -46t37 -49t31 -56.5t18.5 -62.5t7.5 -72 q0 -152 -113.5 -242t-310.5 -90q-186 0 -294 85t-108 227zM264 299q0 -108 64 -152.5t180 -44.5q126 0 192 53.5t66 145.5q0 101 -154 234l-104 88l-133 -115q-55 -48 -83 -94t-28 -115zM313 1071q0 -68 30 -110t120 -115l59 -49l90 82q95 86 95 202v-2q0 87 -52.5 142 t-130.5 55q-98 0 -154.5 -55.5t-56.5 -149.5z" />
<glyph unicode="9" d="M111 522q0 186 110 307t285 121q198 0 307 -134t109 -400q0 -142 -38 -263.5t-115.5 -226t-181 -193.5t-247.5 -179l-86 122q61 39 94.5 60.5t87.5 59.5t85 65.5t71.5 69t65 80t47 88t34.5 102.5q-133 -86 -288 -86q-110 0 -188 55.5t-115 146t-37 205.5zM283 532 q0 -132 54.5 -198t172.5 -66q128 0 242 62q4 62 4 100q0 77 -14.5 143t-44.5 119.5t-81 84t-118 30.5q-60 0 -103.5 -23t-67 -63t-34 -86.5t-10.5 -102.5z" />
<glyph unicode=":" horiz-adv-x="512" d="M121 111q0 54 40.5 92.5t94.5 38.5t94.5 -38.5t40.5 -92.5q0 -55 -40.5 -96.5t-94.5 -41.5t-94.5 40.5t-40.5 97.5zM121 813q0 54 40.5 94.5t94.5 40.5t94.5 -39.5t40.5 -93.5q0 -56 -40 -95.5t-95 -39.5t-95 39t-40 94z" />
<glyph unicode=";" horiz-adv-x="512" d="M113 70l123 174q56 -6 93.5 -42t51.5 -81.5t14 -97.5q0 -70 -58 -166t-163 -201l-61 45q52 77 81 152t29 120q0 33 -27.5 59.5t-82.5 37.5zM127 813q0 54 41.5 94.5t95.5 40.5t94.5 -39.5t40.5 -93.5q0 -56 -40 -95.5t-95 -39.5t-96 39t-41 94z" />
<glyph unicode="&#x3c;" d="M45 399v131l934 410v-154l-754 -323l754 -320v-153z" />
<glyph unicode="=" d="M45 209v141h934v-141h-934zM45 571v142h934v-142h-934z" />
<glyph unicode="&#x3e;" d="M45 -10v153l754 320l-754 323v154l934 -410v-131z" />
<glyph unicode="?" horiz-adv-x="829" d="M201 985l39 154q219 0 321.5 -92t102.5 -287q0 -60 -20 -136t-36 -114h-213v-119h-143v264h227q2 8 7.5 26t8.5 35.5t3 39.5q0 50 -11.5 87t-42 71t-91.5 52t-152 19zM203 111q0 54 40.5 92.5t94.5 38.5q55 0 96 -39t41 -92q0 -55 -40.5 -96.5t-94.5 -41.5q-55 0 -96 41 t-41 97z" />
<glyph unicode="@" horiz-adv-x="2048" d="M106 453q0 195 73.5 368.5t197 296.5t292.5 194.5t355 71.5t354 -64.5t292.5 -178.5t198 -281t73.5 -362q0 -145 -61.5 -272t-175 -205t-251.5 -78q-83 0 -167.5 21t-102.5 34q-21 126 -21 254q-57 -130 -150 -205.5t-218 -75.5q-49 0 -88.5 35t-62 86.5t-37.5 115.5 t-20 115.5t-5 94.5q0 76 14 150t45 143.5t76 122t112.5 84.5t149.5 32q46 0 98.5 -18.5t91.5 -48.5l21 69h131q-1 -93 -5.5 -331t-4.5 -367q0 -58 16 -180q57 -13 117 -13q89 0 156 32.5t107.5 92t60.5 136.5t20 172q0 143 -44 266.5t-118.5 211t-172.5 150t-208 93 t-223 30.5q-152 0 -291 -59t-242.5 -161.5t-165 -250.5t-61.5 -317q0 -217 95 -390.5t269.5 -272.5t397.5 -99q200 0 379 96l67 -123q-86 -48 -204 -81t-240 -33q-200 0 -373 71t-292 193t-187 286.5t-68 348.5zM750 451q0 -31 1.5 -62.5t8.5 -84t19.5 -91t38 -67.5 t59.5 -29q47 0 92.5 37.5t79 94t60 123t40.5 125.5t16 99q2 55 2 139q-55 76 -174 76q-94 0 -106 -10q-62 -44 -99.5 -152t-37.5 -198z" />
<glyph unicode="A" horiz-adv-x="1124" d="M14 0l523 1395h77l496 -1395h-172l-135 387h-490l-143 -387h-156zM360 522h394l-189 549z" />
<glyph unicode="B" horiz-adv-x="1243" d="M209 0v1346q40 4 94 4q232 10 352 10q104 0 182 -27t123 -74t67 -103t22 -120q0 -129 -62.5 -217.5t-167.5 -97.5q143 -8 227 -98.5t84 -257.5q0 -165 -115 -265t-306 -100h-500zM371 131h260q166 0 244.5 60.5t78.5 197.5q0 127 -84 193.5t-227 66.5h-272v-518zM371 784 h229q137 0 203.5 58t66.5 164q0 97 -66 159t-181 62h-5l-247 -2v-441z" />
<glyph unicode="C" horiz-adv-x="1275" d="M96 670q0 145 54 275t146.5 223.5t222.5 148.5t276 55q148 0 234 -17.5t177 -60.5l-12 -153q-170 94 -420 94q-100 0 -189.5 -39t-157 -109t-107 -175t-39.5 -230q0 -159 69.5 -289.5t189 -204t263.5 -73.5q218 0 391 94l12 -156q-157 -78 -418 -78q-127 0 -249 46.5 t-221.5 131.5t-160.5 220t-61 297z" />
<glyph unicode="D" horiz-adv-x="1433" d="M209 0v1346l92 6q63 6 119 6h41q44 0 102 -1q87 -1 131 -1q138 0 250 -41t184 -107t120 -155.5t68.5 -181.5t20.5 -189q0 -93 -21 -184.5t-71 -182.5t-123.5 -160t-189.5 -112t-258 -43h-465zM371 127h272q255 0 382.5 146t127.5 409q0 76 -14.5 148.5t-50.5 145t-90 127 t-139.5 88.5t-192.5 34h-11l-284 -4v-1094z" />
<glyph unicode="E" horiz-adv-x="1120" d="M209 0v1350h770v-140h-608v-454h530v-140h-530v-477h653v-139h-815z" />
<glyph unicode="F" horiz-adv-x="993" d="M209 0v1350h770v-140h-608v-477h530v-139h-530v-594h-162z" />
<glyph unicode="G" horiz-adv-x="1417" d="M96 680q0 134 51 259t140 221t219.5 154t279.5 58q150 0 236 -17t184 -61l-12 -153q-167 94 -403 94q-221 0 -365.5 -155.5t-144.5 -399.5q0 -172 73 -302t196.5 -196.5t276.5 -66.5q122 0 254 49v397h-274v139h434v-657q-18 -5 -49 -14t-58.5 -16.5t-54.5 -12.5 q-131 -25 -262 -25q-167 0 -304 54t-227.5 149t-140 223.5t-49.5 278.5z" />
<glyph unicode="H" horiz-adv-x="1570" d="M209 0v1350h160v-598h831v598h160v-1350h-160v608h-831v-608h-160z" />
<glyph unicode="I" horiz-adv-x="579" d="M209 0v1350h160v-1350h-160z" />
<glyph unicode="J" horiz-adv-x="602" d="M-141 -348q374 10 374 504v1194h160v-1250q0 -273 -144.5 -428.5t-389.5 -158.5v139z" />
<glyph unicode="K" horiz-adv-x="1148" d="M209 0v1350h162v-641q120 102 235 247l307 394h187l-299 -389q-53 -68 -106.5 -127.5t-80.5 -85.5l-28 -25q12 -11 33.5 -32t85.5 -95t124 -158l314 -438h-201l-324 453q-49 69 -111 131t-99 89l-37 27v-700h-162z" />
<glyph unicode="L" horiz-adv-x="1011" d="M209 0v1350h162v-1211h628v-139h-790z" />
<glyph unicode="M" horiz-adv-x="1802" d="M176 0l100 1350h207l187 -457q53 -131 108.5 -278t85.5 -229l29 -81q116 309 235 580l203 465h195l98 -1350h-160l-69 1161l-521 -1190l-464 1188l-84 -1159h-150z" />
<glyph unicode="N" horiz-adv-x="1538" d="M209 0v1350h182l787 -1133v1135h151v-1352h-186l-783 1128v-1128h-151z" />
<glyph unicode="O" horiz-adv-x="1519" d="M96 674q0 187 84 347.5t238.5 258.5t345.5 98q189 0 341.5 -96.5t235 -256.5t82.5 -349q0 -138 -49 -266.5t-134 -225.5t-209.5 -155t-266.5 -58q-191 0 -345.5 97t-238.5 257.5t-84 348.5zM281 676q0 -156 59.5 -284.5t170.5 -204.5t253 -76q140 0 250 78.5t167.5 206.5 t57.5 280q0 150 -57.5 278t-167.5 206.5t-250 78.5q-142 0 -253 -75.5t-170.5 -203.5t-59.5 -284z" />
<glyph unicode="P" horiz-adv-x="1103" d="M209 0v1348q13 1 39 2t37 2q106 8 346 8q177 0 298.5 -112.5t121.5 -299.5q0 -122 -69 -222t-175 -153t-223 -53q-145 0 -213 10v-530h-162zM371 655h151q72 0 131 14.5t108.5 46.5t77 91t27.5 141q0 277 -291 277h-6l-198 -2v-568z" />
<glyph unicode="Q" horiz-adv-x="1519" d="M96 678q0 187 84 346.5t238.5 256.5t345.5 97q190 0 342 -96t234.5 -255t82.5 -347q0 -167 -70.5 -316t-204.5 -251.5t-306 -128.5q46 -83 103 -156t103.5 -116t82 -68t49.5 -25q74 0 213 66l10 -136q-113 -63 -232 -63q-191 0 -516 490q-3 3 -4 5t-3 4.5t-3 4.5 q-163 30 -289 130.5t-193 246t-67 311.5zM281 680q0 -155 59 -282.5t170.5 -204t253.5 -76.5q140 0 250 78t167.5 206t57.5 279q0 149 -57.5 276t-167.5 205t-250 78q-142 0 -253 -75t-170.5 -202t-59.5 -282z" />
<glyph unicode="R" horiz-adv-x="1175" d="M209 0v1346l74 4q222 12 292 12q217 0 346.5 -96t129.5 -291q0 -146 -93 -251t-229 -124l246 -350q105 -149 201 -250h-218q-55 62 -143 186q-192 261 -280 396h-164v-582h-162zM371 717h174q174 0 248.5 67.5t74.5 198.5q0 236 -319 236h-8l-170 -5v-497z" />
<glyph unicode="S" horiz-adv-x="1038" d="M143 43l25 162q81 -49 157 -71.5t175 -22.5q106 0 181 64t75 161q0 33 -11.5 62t-26 48.5t-45 43.5t-50 36t-62 36.5t-61.5 35.5q-14 9 -50 30t-52 31t-48 31t-47.5 33.5t-41.5 34.5t-39 39.5t-30 42t-25 48t-14 52t-6 59.5q0 161 110.5 267t295.5 106q125 0 199.5 -14.5 t162.5 -50.5l-10 -162q-85 51 -162 70.5t-180 19.5q-108 0 -169.5 -67.5t-61.5 -155.5q0 -35 12 -65.5t26.5 -51t47.5 -46t52.5 -37.5t64.5 -38t63 -37q142 -84 185 -116q132 -98 150 -220q3 -22 3 -45q0 -74 -24.5 -138t-66 -108.5t-96.5 -76.5t-116 -47t-125 -15 q-209 0 -365 72z" />
<glyph unicode="T" horiz-adv-x="1069" d="M14 1212v140h1041v-140h-441v-1212h-159v1212h-441z" />
<glyph unicode="U" horiz-adv-x="1396" d="M176 418v932h160v-875q0 -83 22.5 -147.5t58 -103.5t83.5 -64.5t94.5 -35t95.5 -9.5q56 0 106 10t99.5 35.5t84.5 65.5t57 104.5t22 146.5v873h162v-881q0 -250 -144.5 -372t-396.5 -122q-101 0 -191.5 30t-160.5 85t-111 140t-41 188z" />
<glyph unicode="V" horiz-adv-x="1191" d="M14 1350h170l430 -1092l406 1092h158l-525 -1383h-86z" />
<glyph unicode="W" horiz-adv-x="1792" d="M14 1350h170l430 -1092l211 565l-211 527h170l123 -308l113 308h158l-193 -506l229 -586l406 1092h158l-525 -1383h-86l-262 662l-252 -662h-86z" />
<glyph unicode="X" horiz-adv-x="1173" d="M14 0l484 682l-453 668h191l362 -527l373 527h166l-457 -654l479 -696h-188l-387 559l-398 -559h-172z" />
<glyph unicode="Y" horiz-adv-x="1110" d="M14 1350h179l374 -629l365 629h164l-457 -785v-565h-162v565z" />
<glyph unicode="Z" horiz-adv-x="1224" d="M80 0v88l809 1124h-783v140h1004v-90l-784 -1123h821v-139h-1067z" />
<glyph unicode="[" horiz-adv-x="681" d="M264 -528v2029h377v-110h-250v-1809h250v-110h-377z" />
<glyph unicode="\" horiz-adv-x="681" d="M20 1497h134l508 -2025h-134z" />
<glyph unicode="]" horiz-adv-x="681" d="M41 -418h248v1809h-248v110h377v-2029h-377v110z" />
<glyph unicode="^" d="M35 537l414 933h126l414 -931l-153 -2l-326 753l-320 -753h-155z" />
<glyph unicode="_" d="M0 0h1024v-129h-1024v129z" />
<glyph unicode="`" horiz-adv-x="901" d="M162 1481h168l223 -414h-119z" />
<glyph unicode="a" horiz-adv-x="944" d="M31 0l413 1016h78l389 -1016h-168l-90 238h-370l-97 -238h-155zM338 373h266l-131 348z" />
<glyph unicode="b" horiz-adv-x="1036" d="M193 0v981q202 10 348 10q155 0 234 -70t79 -176q0 -71 -26.5 -128.5t-73.5 -88.5q75 -26 118 -89.5t43 -164.5q0 -127 -92 -200.5t-239 -73.5h-391zM346 129h178q120 0 174 42t54 126q0 75 -56.5 117.5t-160.5 42.5h-189v-328zM346 586h158q98 0 141 39.5t43 101.5 q0 55 -44 95t-124 40h-4l-170 -4v-272z" />
<glyph unicode="c" horiz-adv-x="1036" d="M106 487q0 219 147 365.5t372 146.5q114 0 182.5 -12.5t146.5 -44.5l-14 -156q-80 41 -157 57.5t-175 16.5q-148 0 -238.5 -99.5t-90.5 -264.5q0 -161 96.5 -267t255.5 -106q162 0 309 74l14 -152q-130 -61 -336 -61q-77 0 -150.5 20t-139.5 62t-115 100.5t-78 141 t-29 179.5z" />
<glyph unicode="d" horiz-adv-x="1179" d="M193 0v979q32 2 83 6q52 2 299 2q107 0 193.5 -29.5t143 -77.5t94.5 -112.5t54.5 -132t16.5 -139.5q0 -69 -17 -136.5t-56.5 -133.5t-97.5 -115.5t-147.5 -80t-199.5 -30.5h-366zM346 131h189q186 0 276 96t90 269q0 49 -10.5 96.5t-36 95t-64.5 83.5t-101 58.5 t-140 22.5h-4l-199 -2v-719z" />
<glyph unicode="e" horiz-adv-x="942" d="M193 0v983h608v-139h-455v-275h397v-141h-397v-289h490v-139h-643z" />
<glyph unicode="f" horiz-adv-x="894" d="M193 0v983h608v-139h-455v-289h397v-141h-397v-414h-153z" />
<glyph unicode="g" horiz-adv-x="1144" d="M106 496q0 100 37 191.5t102.5 160.5t162.5 110t210 41q116 0 184 -12t152 -45l-14 -156q-148 74 -317 74q-159 0 -251.5 -101.5t-92.5 -262.5q0 -170 99.5 -271.5t268.5 -101.5q83 0 176 33v233h-188v141h342v-497q-48 -14 -135 -33q-82 -16 -201 -16q-253 0 -394 141.5 t-141 370.5z" />
<glyph unicode="h" horiz-adv-x="1284" d="M193 0v983h153v-416h594v416h154v-983h-154v422h-594v-422h-153z" />
<glyph unicode="i" horiz-adv-x="530" d="M190 0v983h154v-983h-154z" />
<glyph unicode="j" horiz-adv-x="548" d="M-76 -211q69 2 120.5 22.5t81.5 51t48.5 75.5t24.5 88t6 95v862h151v-899q0 -206 -116.5 -321.5t-315.5 -118.5v145z" />
<glyph unicode="k" horiz-adv-x="962" d="M193 0v983h153v-428q82 69 193 199q37 43 100 120.5t90 108.5h193l-258 -309q-68 -82 -144 -148q108 -108 166 -182l266 -344h-198l-250 319q-67 87 -158 152v-471h-153z" />
<glyph unicode="l" horiz-adv-x="860" d="M193 0v983h153v-844h471v-139h-624z" />
<glyph unicode="m" horiz-adv-x="1460" d="M164 0l78 983h182q212 -475 299 -700q34 84 79 183t75.5 163.5t88.5 185t81 168.5h172l75 -983h-151l-53 762l-381 -803l-336 799l-62 -758h-147z" />
<glyph unicode="n" horiz-adv-x="1259" d="M193 0v983h159l570 -758v760h145v-985h-162l-569 752v-752h-143z" />
<glyph unicode="o" horiz-adv-x="1222" d="M106 492q0 140 63 256.5t179.5 186t263.5 69.5q146 0 262 -69.5t179 -186t63 -256.5q0 -137 -62.5 -253.5t-179.5 -187.5t-262 -71q-147 0 -263.5 69.5t-179.5 186t-63 256.5zM279 492q0 -157 89.5 -264t243.5 -107q152 0 242 108t90 263q0 99 -38 182.5t-115 136.5 t-179 53q-154 0 -243.5 -107t-89.5 -265z" />
<glyph unicode="p" horiz-adv-x="929" d="M193 0v981q188 10 331 10q137 0 235.5 -82.5t98.5 -224.5q0 -72 -33 -134t-86.5 -101.5t-118.5 -61.5t-131 -22q-4 0 -28.5 -1.5t-42.5 -1.5q-15 0 -72 5v-367h-153zM346 500h96q112 0 178 44t66 140q0 168 -209 168h-131v-352z" />
<glyph unicode="q" horiz-adv-x="1222" d="M106 487q0 139 63 257t179.5 189t263.5 71q220 0 362 -149.5t142 -365.5q0 -186 -111.5 -326.5t-299.5 -178.5q44 -66 96.5 -120t85 -77t41.5 -23q58 0 174 52l14 -135q-102 -54 -194 -54q-48 0 -106 34.5t-114 93t-100 113.5t-86 116q-187 33 -298.5 173t-111.5 330z M279 489q0 -160 89 -267t244 -107q152 0 242 109.5t90 264.5q0 99 -38 182.5t-115 136t-179 52.5q-154 0 -243.5 -106t-89.5 -265z" />
<glyph unicode="r" horiz-adv-x="985" d="M193 0v981q35 1 93.5 4.5t106 5.5t90.5 2q80 0 145.5 -16t118 -50t82 -92t29.5 -135q0 -104 -63.5 -177.5t-159.5 -96.5l162 -215q75 -100 186 -211h-217q-47 47 -113 135q-137 172 -207 268h-100v-403h-153zM346 543h113q127 0 178 42.5t51 119.5q0 143 -231 143h-111 v-305z" />
<glyph unicode="s" horiz-adv-x="878" d="M139 37l25 158q74 -42 131 -58t131 -16q76 0 126 40t50 95q0 22 -12.5 42.5t-38 40t-43 31t-50.5 29.5t-38 21q-14 8 -45.5 25t-48.5 27t-45 28t-44 32t-36 35.5t-30.5 42.5t-18 49t-7.5 58q0 125 88 203.5t232 78.5q96 0 156 -11t135 -40l-13 -160q-75 42 -133.5 57 t-136.5 15q-76 0 -117 -41.5t-41 -91.5q0 -29 21 -57.5t58 -53.5t70.5 -43.5t76.5 -39.5t57 -29q32 -18 56.5 -36t53 -47t44.5 -67.5t16 -83.5q0 -71 -30.5 -128.5t-80.5 -91.5t-108 -52t-119 -18q-158 0 -291 57z" />
<glyph unicode="t" horiz-adv-x="901" d="M43 846v139h817v-139h-332v-846h-153v846h-332z" />
<glyph unicode="u" horiz-adv-x="1150" d="M168 311v672h151v-629q0 -64 22.5 -111.5t60.5 -72t79.5 -36t87.5 -11.5q53 0 98 12t83 38t59.5 72.5t21.5 110.5v627h154v-635q0 -96 -31.5 -167t-89.5 -113.5t-133 -63t-168 -20.5q-104 0 -192 35.5t-145.5 111.5t-57.5 180z" />
<glyph unicode="v" horiz-adv-x="995" d="M31 983h164l317 -735l295 735h158l-414 -1008h-84z" />
<glyph unicode="w" horiz-adv-x="1454" d="M31 983h168l315 -735l139 350l-168 385h168l80 -188l78 188h158l-156 -373l156 -362l297 735h157l-417 -1008h-82l-191 439l-180 -439h-84z" />
<glyph unicode="x" horiz-adv-x="983" d="M18 0l381 500l-354 483h188l267 -356l274 356h172l-362 -477l377 -506h-187l-285 379l-294 -379h-177z" />
<glyph unicode="y" horiz-adv-x="931" d="M23 983h180l272 -426l266 426h168l-362 -575v-408h-154v408z" />
<glyph unicode="z" horiz-adv-x="1021" d="M92 0v90l584 756h-563v139h788v-92l-567 -754h596v-139h-838z" />
<glyph unicode="{" horiz-adv-x="681" d="M29 451v106h59q53 0 89 18.5t53.5 53.5t24.5 73t7 89v389q0 57 6 100.5t24 87.5t48 72.5t81.5 46.5t121.5 18h110v-114h-90q-53 0 -86 -12.5t-48.5 -40.5t-20.5 -59.5t-5 -82.5q0 -76 -1 -211t-1 -207q0 -41 -3.5 -73t-15 -66t-30.5 -59t-51.5 -45t-77.5 -31 q53 -13 90 -39t55.5 -63.5t26.5 -77t8 -88.5v-420q0 -47 2 -75.5t11 -60t26 -48.5t47 -28.5t74 -11.5h90v-114h-110q-69 0 -120.5 17t-81.5 45t-48.5 70.5t-24.5 85.5t-6 99v422q0 51 -7.5 90t-25.5 73t-53.5 52.5t-87.5 18.5h-59z" />
<glyph unicode="|" horiz-adv-x="681" d="M276 -528v2025h130v-2025h-130z" />
<glyph unicode="}" horiz-adv-x="681" d="M29 -408h90q51 0 84.5 14t50 43.5t22 63t5.5 84.5v426q0 53 6.5 93t24.5 79.5t54.5 67t92.5 41.5q-102 26 -141 93.5t-39 170.5q0 78 1 214t1 214q0 50 -5 81.5t-21 59.5t-49.5 41t-86.5 13h-90v114h110q70 0 121.5 -18t81.5 -46.5t48 -72.5t24 -87.5t6 -100.5v-389 q0 -40 4 -71.5t15 -63t30 -52t50.5 -33t74.5 -12.5h59v-108h-59q-52 0 -87.5 -18t-53.5 -52t-25.5 -73t-7.5 -91v-422q0 -70 -11 -121.5t-39.5 -98.5t-86.5 -72t-144 -25h-110v114z" />
<glyph unicode="~" d="M14 463l18 13q17 12 49 31.5t70.5 38.5t87.5 32.5t93 13.5q47 0 100.5 -18.5t94.5 -41t91 -41t89 -18.5q29 0 63 11.5t62 27.5t51.5 32.5t36.5 27.5l14 10l76 -123q0 1 -17.5 -11.5t-50 -32t-71.5 -39t-88.5 -33t-94.5 -13.5t-98 18.5t-93.5 41t-89.5 41t-88 18.5 q-30 0 -64.5 -11.5t-62.5 -27.5t-51.5 -32.5t-36.5 -27.5l-14 -10z" />
<glyph unicode="&#xa1;" horiz-adv-x="512" d="M121 860q0 55 40.5 95t94.5 40t94.5 -40t40.5 -95q0 -54 -40.5 -92.5t-94.5 -38.5t-94.5 38.5t-40.5 92.5zM158 -150l28 705h140l30 -700z" />
<glyph unicode="&#xa2;" d="M106 487q0 197 120.5 337.5t312.5 168.5v240h129v-234q94 -3 155 -15.5t131 -41.5l-14 -156q-130 66 -272 72v-735q143 7 272 74l14 -152q-114 -54 -286 -61v-215h-127v221q-87 12 -164 49.5t-138.5 98.5t-97 151t-35.5 198zM279 496q0 -135 70 -234.5t190 -128.5l2 721 q-121 -23 -191.5 -118t-70.5 -240z" />
<glyph unicode="&#xa3;" d="M20 -422l23 148q48 8 74 13t51 14t35.5 17t21.5 25t16 34.5t13 49.5q17 64 27 121h-193l21 123h190l94 625q13 91 24 152t27 123t35.5 100.5t47 73.5t63.5 53.5t83.5 29t108.5 10.5q146 0 210.5 -45.5t64.5 -109.5q0 -9 -6 -78h-140q0 37 -11 60.5t-33 32.5t-37 11t-42 2 q-101 0 -155 -49q-18 -14 -34 -85.5t-42 -242.5l-100 -663h209l-19 -123h-209l-22 -104q-11 -53 -28.5 -91.5t-27 -49t-16.5 -15.5q50 0 168.5 -27.5t163.5 -27.5q28 0 43 2t37 11t32.5 32t10.5 61h141q4 -40 4 -78q0 -64 -64 -109.5t-208 -45.5q-64 0 -203.5 30.5 t-194.5 30.5q-53 0 -94.5 -4.5t-61 -9t-51 -14t-47.5 -13.5z" />
<glyph unicode="&#xa4;" d="M31 76l217 215q-51 79 -51 172q0 96 51 172l-217 217l100 100l217 -221q74 47 164 47q95 0 172 -49l221 223l101 -100l-226 -225q47 -71 47 -164q0 -90 -47 -164l226 -221l-99 -101l-223 224q-76 -54 -172 -54q-83 0 -164 48l-217 -218zM328 463q0 -77 54 -130.5 t130 -53.5q78 0 132 53.5t54 130.5q0 78 -54 133t-132 55q-77 0 -130.5 -54.5t-53.5 -133.5z" />
<glyph unicode="&#xa5;" d="M14 1350h195l315 -629l305 629h181l-336 -672h280v-113h-352v-139h352v-113h-350v-313h-174v313h-360v113h360v139h-360v113h286z" />
<glyph unicode="&#xa6;" horiz-adv-x="512" d="M195 346h114v-874h-114v874zM195 625v872h114v-872h-114z" />
<glyph unicode="&#xa7;" horiz-adv-x="897" d="M102 -360q0 28 9 69h143q0 -63 34 -84.5t97 -21.5q73 0 121 25.5t73.5 78.5t35.5 118.5t10 162.5q0 478 -209 1149h123q254 -648 254 -1227q0 -90 -23 -165t-73 -137t-138 -97t-207 -35q-28 0 -57.5 3.5t-65.5 15t-63 28.5t-45.5 47.5t-18.5 69.5zM125 1059 q0 91 23 166.5t72.5 137.5t137.5 97t207 35q28 0 58 -4t65.5 -15t62.5 -28.5t45.5 -48t18.5 -68.5q0 -33 -8 -69h-143q0 63 -34.5 84.5t-97.5 21.5q-59 0 -101.5 -18t-69 -48.5t-42 -80.5t-21 -106t-5.5 -132q0 -478 209 -1149h-123q-254 648 -254 1225z" />
<glyph unicode="&#xa8;" horiz-adv-x="901" d="M139 1190q0 48 32 83.5t77 35.5q46 0 78 -35t32 -84q0 -46 -32.5 -79.5t-77.5 -33.5t-77 33.5t-32 79.5zM483 1190q0 48 33 83.5t78 35.5q46 0 77 -34.5t31 -84.5q0 -46 -31.5 -79.5t-76.5 -33.5q-46 0 -78.5 33.5t-32.5 79.5z" />
<glyph unicode="&#xa9;" horiz-adv-x="2048" d="M106 469q0 186 73 355.5t196.5 292t294 195t356.5 72.5q187 0 357 -72.5t292.5 -195t194.5 -292t72 -355.5t-72.5 -355t-194.5 -292t-292 -195.5t-357 -72.5q-186 0 -356.5 72.5t-294 195t-196.5 292t-73 355.5zM258 467q0 -156 61 -299t163.5 -246.5t244.5 -165 t297 -61.5t297 61.5t244.5 165t163.5 246t61 297.5q0 157 -61 301t-163.5 249t-244.5 167.5t-297 62.5t-297 -62.5t-244.5 -167t-163.5 -248.5t-61 -300zM571 463q0 206 143.5 347.5t356.5 141.5q104 0 166.5 -13t134.5 -46l-10 -137q-139 71 -305 71q-136 0 -232 -96.5 t-96 -257.5q0 -156 100 -259t246 -103q157 0 287 71l10 -139q-118 -59 -305 -59q-91 0 -179 32t-159 91t-114.5 151.5t-43.5 204.5z" />
<glyph unicode="&#xaa;" horiz-adv-x="696" d="M8 664l311 706h74l295 -706h-149l-52 120h-282l-53 -120h-144zM256 899h182l-88 225z" />
<glyph unicode="&#xab;" horiz-adv-x="1118" d="M86 451l467 415v-182l-223 -233l223 -234v-182zM539 451l465 415v-182l-224 -233l224 -234v-180z" />
<glyph unicode="&#xac;" d="M29 788v140h966v-572h-137v432h-829z" />
<glyph unicode="&#xad;" horiz-adv-x="768" d="M127 397v154h516v-154h-516z" />
<glyph unicode="&#xae;" horiz-adv-x="1280" d="M55 799q0 157 79 290.5t214.5 211t294.5 77.5q119 0 226.5 -46t185.5 -123.5t124 -184.5t46 -225t-46 -225t-124 -185t-185.5 -124t-226.5 -46q-159 0 -294.5 78t-214.5 211.5t-79 290.5zM174 801q0 -126 62 -233t169.5 -169.5t235.5 -62.5q193 0 329 136.5t136 328.5 q0 126 -62 232t-169 167.5t-234 61.5q-195 0 -331 -134.5t-136 -326.5zM428 489v627q152 10 186 10q106 0 172 -46t66 -140q0 -66 -39.5 -115.5t-99.5 -64.5q6 -8 36 -48.5t36.5 -49.5t30 -40t36.5 -46.5t34.5 -39.5t43.5 -47h-144q-12 12 -71 89q-84 109 -129 170h-54v-259 h-104zM532 838h68q74 0 104.5 26.5t30.5 77.5q0 90 -135 90h-68v-194z" />
<glyph unicode="&#xaf;" horiz-adv-x="901" d="M90 1139v133h721v-133h-721z" />
<glyph unicode="&#xb0;" horiz-adv-x="768" d="M70 1178q0 130 92 222.5t223 92.5t222 -92t91 -223t-91 -223.5t-222 -92.5q-130 0 -222.5 92.5t-92.5 223.5zM201 1178q0 -77 54 -131t130 -54q78 0 132 54t54 131q0 78 -54 132t-132 54q-77 0 -130.5 -54t-53.5 -132z" />
<glyph unicode="&#xb1;" d="M45 2v141h934v-141h-934zM45 547v141h395v338h142v-338h397v-139h-397v-340h-142v338h-395z" />
<glyph unicode="&#xb2;" horiz-adv-x="681" d="M70 506v72q41 51 135.5 163t136.5 168q125 171 125 310q0 77 -33.5 111t-99.5 34q-89 0 -213 -76l-12 144q125 61 241 61q35 0 67 -5.5t69.5 -22.5t64.5 -43.5t45 -73.5t18 -109q0 -132 -49 -232t-151 -229q-24 -31 -115 -145h350v-125z" />
<glyph unicode="&#xb3;" horiz-adv-x="681" d="M92 514l12 129q82 -20 144 -20q194 0 194 155q0 76 -55 120t-133 44h-78v113q116 9 179 55.5t63 118.5q0 53 -32 94t-103 41q-87 0 -179 -45l-12 127q7 3 26.5 10.5t24 9t20 7t19.5 6.5t16.5 4.5t19 4t18.5 2.5t22 2t23.5 0.5t29.5 0.5q120 0 187 -63t67 -170 q0 -46 -8.5 -79.5t-29.5 -60.5t-43 -45.5t-62 -44.5q77 -19 128.5 -86t51.5 -158q0 -64 -20 -115t-53 -83.5t-79 -54t-95.5 -30.5t-104.5 -9q-80 0 -158 20z" />
<glyph unicode="&#xb4;" horiz-adv-x="901" d="M317 1067l224 414h168l-275 -414h-117z" />
<glyph unicode="&#xb5;" horiz-adv-x="1460" d="M164 0l78 983h182q212 -475 299 -700q34 84 79 183t75.5 163.5t88.5 185t81 168.5h172l75 -983h-151l-53 762l-381 -803l-336 799l-62 -758h-147z" />
<glyph unicode="&#xb6;" horiz-adv-x="1351" d="M139 911q0 122 40.5 226.5t111.5 176t168 112t207 40.5h458v-1986h-151v1882h-133v-1882h-154v889h-49q-212 0 -355 150t-143 392z" />
<glyph unicode="&#xb7;" d="M377 469q0 54 40.5 92.5t94.5 38.5t94.5 -38.5t40.5 -92.5q0 -55 -40.5 -96t-94.5 -41t-94.5 40t-40.5 97z" />
<glyph unicode="&#xb8;" horiz-adv-x="882" d="M262 -420l53 101q42 -25 103 -25q48 0 78 16t30 49q0 28 -18.5 46t-52.5 25.5t-63 10t-68 2.5l108 195h113l-70 -125q84 0 138.5 -41t54.5 -108q0 -86 -69 -132.5t-161 -46.5q-62 0 -93 5.5t-83 27.5z" />
<glyph unicode="&#xb9;" horiz-adv-x="681" d="M117 522v125h159v717h-159v125h307v-842h158v-125h-465z" />
<glyph unicode="&#xba;" horiz-adv-x="825" d="M25 1006q0 153 109 258.5t278 105.5q170 0 278.5 -105t108.5 -259q0 -150 -109 -255.5t-278 -105.5t-278 105t-109 256zM178 1006q0 -100 64.5 -170t169.5 -70q108 0 170.5 70t62.5 170q0 102 -62.5 172.5t-170.5 70.5q-106 0 -170 -70t-64 -173z" />
<glyph unicode="&#xbb;" horiz-adv-x="1118" d="M115 35v182l223 234l-223 233v182l467 -415zM565 35v182l223 234l-223 233v182l467 -415z" />
<glyph unicode="&#xbc;" horiz-adv-x="2048" d="M205 504v125h170v712h-170v125h325v-835h168v-127h-493zM541 -39l862 1555l106 -62l-862 -1552zM1206 274v103q4 11 29.5 58t73 127t94.5 149q70 102 205 270h104v-582h131v-125h-131v-274h-149v274h-357zM1374 399h189v314q-122 -182 -189 -314z" />
<glyph unicode="&#xbd;" horiz-adv-x="2048" d="M205 504v125h170v712h-170v125h325v-835h168v-127h-493zM541 -39l862 1555l108 -62l-864 -1552zM1292 0v72q46 55 146 164t143 165q135 172 135 308q0 143 -141 143q-94 0 -232 -76l-12 139q132 66 260 66q37 0 71.5 -5.5t74.5 -22.5t69 -43.5t48.5 -73.5t19.5 -109 q0 -128 -53 -229.5t-160 -225.5q-15 -18 -33 -40t-45 -53.5t-45 -53.5h375v-125h-621z" />
<glyph unicode="&#xbe;" horiz-adv-x="2048" d="M219 520l14 127q81 -18 154 -18q207 0 207 153q0 76 -58 119t-141 43h-86v113q125 9 190.5 55.5t65.5 116.5q0 54 -33 94.5t-110 40.5q-95 0 -189 -45l-14 127l37.5 12.5t35 11.5t27.5 8t30 7t27.5 4t36 3.5t40.5 0.5q129 0 200.5 -62.5t71.5 -168.5q0 -46 -9.5 -80 t-32 -60.5t-47 -45.5t-65.5 -44q82 -18 138.5 -84.5t56.5 -156.5q0 -64 -21.5 -114.5t-57.5 -83t-85.5 -54t-102 -30.5t-110.5 -9q-94 0 -170 20zM541 -39l862 1555l106 -62l-862 -1552zM1206 274v103q4 11 29.5 58t73 127t94.5 149q70 102 205 270h104v-582h131v-125h-131 v-274h-149v274h-357zM1374 399h189v314q-122 -182 -189 -314z" />
<glyph unicode="&#xbf;" horiz-adv-x="829" d="M199 215q0 60 21 138t36 112h213v119h143v-265h-227q-1 -6 -6.5 -24.5t-8.5 -35.5t-3 -38q0 -50 11.5 -87.5t42 -72t91.5 -52.5t152 -19l-39 -154q-220 0 -323 92.5t-103 286.5zM389 864q0 56 40.5 96.5t94.5 40.5q55 0 96.5 -40t41.5 -95q0 -53 -41.5 -92t-96.5 -39 t-95 38t-40 91z" />
<glyph unicode="&#xc0;" horiz-adv-x="1124" d="M14 0l523 1395h77l496 -1395h-172l-135 387h-490l-143 -387h-156zM256 1827h160l213 -379h-113zM360 522h394l-189 549z" />
<glyph unicode="&#xc1;" horiz-adv-x="1124" d="M14 0l523 1395h77l496 -1395h-172l-135 387h-490l-143 -387h-156zM360 522h394l-189 549zM518 1425l215 379h160l-260 -379h-115z" />
<glyph unicode="&#xc2;" horiz-adv-x="1124" d="M14 0l523 1395h77l496 -1395h-172l-135 387h-490l-143 -387h-156zM299 1419l231 365h107l240 -365h-125l-164 219l-172 -219h-117zM360 522h394l-189 549z" />
<glyph unicode="&#xc3;" horiz-adv-x="1124" d="M14 0l523 1395h77l496 -1395h-172l-135 387h-490l-143 -387h-156zM219 1559q77 68 137.5 95t118.5 27q27 0 49 -5.5t30.5 -9.5t34 -22t34.5 -24q71 -43 120 -43q19 0 45.5 11t47.5 24.5t40 26.5t21 14l57 -80q-72 -65 -129.5 -90t-117.5 -25q-46 0 -79.5 11.5t-74.5 39.5 q-44 32 -64.5 39.5t-58.5 7.5q-27 0 -79 -29.5t-72 -45.5zM360 522h394l-189 549z" />
<glyph unicode="&#xc4;" horiz-adv-x="1124" d="M14 0l523 1395h77l496 -1395h-172l-135 387h-490l-143 -387h-156zM313 1548q0 44 29.5 75.5t73.5 31.5t75 -32t31 -75t-31 -73.5t-75 -30.5t-73.5 30.5t-29.5 73.5zM360 522h394l-189 549zM645 1548q0 44 29.5 75.5t73.5 31.5t75 -32t31 -75t-31 -73.5t-75 -30.5 t-73.5 30.5t-29.5 73.5z" />
<glyph unicode="&#xc5;" horiz-adv-x="1124" d="M14 0l523 1395h77l496 -1395h-172l-135 387h-490l-143 -387h-156zM360 522h394l-189 549zM373 1614q0 83 56 139.5t138 56.5q84 0 143.5 -56.5t59.5 -139.5t-59.5 -140t-141.5 -57q-83 0 -139.5 57t-56.5 140zM455 1614q0 -46 33 -79.5t79 -33.5q49 0 82 33.5t33 79.5 q0 48 -32 80t-81 32q-47 0 -80.5 -32.5t-33.5 -79.5z" />
<glyph unicode="&#xc6;" horiz-adv-x="1748" d="M14 0l736 1350h858v-140h-609v-454h531v-140h-531v-477h654v-139h-815v387h-443l-213 -387h-168zM465 522h373v684z" />
<glyph unicode="&#xc7;" horiz-adv-x="1275" d="M96 670q0 145 54 275t146.5 223.5t222.5 148.5t276 55q148 0 234 -17.5t177 -60.5l-12 -153q-170 94 -420 94q-100 0 -189.5 -39t-157 -109t-107 -175t-39.5 -230q0 -159 69.5 -289.5t189 -204t263.5 -73.5q218 0 391 94l12 -156q-140 -73 -383 -76l-53 -92q80 0 133 -38 t53 -99q0 -79 -66.5 -122.5t-154.5 -43.5q-57 0 -87 6t-81 25l49 92q39 -20 101 -20q102 0 102 59q0 26 -17.5 42.5t-49.5 23.5t-60 9.5t-65 2.5l92 160q-94 9 -184 43t-169.5 93.5t-139.5 138t-95 185.5t-35 228z" />
<glyph unicode="&#xc8;" horiz-adv-x="1120" d="M209 0v1350h770v-140h-608v-454h530v-140h-530v-477h653v-139h-815zM328 1804h159l213 -379h-112z" />
<glyph unicode="&#xc9;" horiz-adv-x="1120" d="M209 0v1350h770v-140h-608v-454h530v-140h-530v-477h653v-139h-815zM518 1425l215 379h160l-260 -379h-115z" />
<glyph unicode="&#xca;" horiz-adv-x="1120" d="M209 0v1350h770v-140h-608v-454h530v-140h-530v-477h653v-139h-815zM315 1419l232 365h106l240 -365h-125l-164 219l-172 -219h-117z" />
<glyph unicode="&#xcb;" horiz-adv-x="1120" d="M209 0v1350h770v-140h-608v-454h530v-140h-530v-477h653v-139h-815zM324 1548q0 44 29.5 75.5t72.5 31.5q44 0 75 -32t31 -75t-31 -73.5t-75 -30.5t-73 30.5t-29 73.5zM700 1548q0 44 29.5 75.5t73.5 31.5t75 -32t31 -75t-31 -73.5t-75 -30.5t-73.5 30.5t-29.5 73.5z" />
<glyph unicode="&#xcc;" horiz-adv-x="579" d="M0 1804h160l213 -379h-113zM209 0v1350h160v-1350h-160z" />
<glyph unicode="&#xcd;" horiz-adv-x="579" d="M209 0v1350h160v-1350h-160zM215 1425l215 379h160l-260 -379h-115z" />
<glyph unicode="&#xce;" horiz-adv-x="579" d="M2 1397l231 364h107l240 -364h-125l-164 219l-172 -219h-117zM209 0v1350h160v-1350h-160z" />
<glyph unicode="&#xcf;" horiz-adv-x="579" d="M45 1548q0 44 29.5 75.5t72.5 31.5q44 0 75.5 -32t31.5 -75t-31.5 -73.5t-75.5 -30.5t-73 30.5t-29 73.5zM209 0v1350h160v-1350h-160zM350 1548q0 44 29.5 75.5t73.5 31.5t75 -32t31 -75t-31 -73.5t-75 -30.5t-73.5 30.5t-29.5 73.5z" />
<glyph unicode="&#xd0;" horiz-adv-x="1433" d="M-18 639v100h227v607l92 6q64 5 119.5 5.5t142.5 -0.5t131 -1q138 0 250 -41t184 -107t120 -155.5t68.5 -181.5t20.5 -189q0 -93 -21 -184.5t-71 -182.5t-123.5 -160t-189.5 -112t-258 -43h-465v639h-227zM371 127h272q255 0 382.5 146t127.5 409q0 76 -14.5 148.5 t-50.5 145t-90 127t-139.5 88.5t-192.5 34h-11l-284 -4v-482h293v-100h-293v-512z" />
<glyph unicode="&#xd1;" horiz-adv-x="1538" d="M209 0v1350h182l787 -1133v1135h151v-1352h-186l-783 1128v-1128h-151zM408 1559q77 68 137.5 95t118.5 27q27 0 48.5 -5.5t30.5 -10t33.5 -21.5t34.5 -24q71 -43 121 -43q19 0 45.5 11t47 24.5t39.5 26.5t21 14l58 -80q-72 -65 -130 -90t-118 -25q-46 0 -79.5 11.5 t-74.5 39.5q-44 32 -64.5 39.5t-58.5 7.5q-27 0 -79 -29.5t-72 -45.5z" />
<glyph unicode="&#xd2;" horiz-adv-x="1519" d="M96 674q0 187 84 347.5t238.5 258.5t345.5 98q189 0 341.5 -96.5t235 -256.5t82.5 -349q0 -138 -49 -266.5t-134 -225.5t-209.5 -155t-266.5 -58q-191 0 -345.5 97t-238.5 257.5t-84 348.5zM281 676q0 -156 59.5 -284.5t170.5 -204.5t253 -76q140 0 250 78.5t167.5 206.5 t57.5 280q0 150 -57.5 278t-167.5 206.5t-250 78.5q-142 0 -253 -75.5t-170.5 -203.5t-59.5 -284zM451 1804h159l213 -379h-112z" />
<glyph unicode="&#xd3;" horiz-adv-x="1519" d="M96 674q0 187 84 347.5t238.5 258.5t345.5 98q189 0 341.5 -96.5t235 -256.5t82.5 -349q0 -138 -49 -266.5t-134 -225.5t-209.5 -155t-266.5 -58q-191 0 -345.5 97t-238.5 257.5t-84 348.5zM281 676q0 -156 59.5 -284.5t170.5 -204.5t253 -76q140 0 250 78.5t167.5 206.5 t57.5 280q0 150 -57.5 278t-167.5 206.5t-250 78.5q-142 0 -253 -75.5t-170.5 -203.5t-59.5 -284zM696 1425l215 379h160l-260 -379h-115z" />
<glyph unicode="&#xd4;" horiz-adv-x="1519" d="M96 674q0 187 84 347.5t238.5 258.5t345.5 98q189 0 341.5 -96.5t235 -256.5t82.5 -349q0 -138 -49 -266.5t-134 -225.5t-209.5 -155t-266.5 -58q-191 0 -345.5 97t-238.5 257.5t-84 348.5zM281 676q0 -156 59.5 -284.5t170.5 -204.5t253 -76q140 0 250 78.5t167.5 206.5 t57.5 280q0 150 -57.5 278t-167.5 206.5t-250 78.5q-142 0 -253 -75.5t-170.5 -203.5t-59.5 -284zM475 1419l232 365h106l240 -365h-125l-164 219l-172 -219h-117z" />
<glyph unicode="&#xd5;" horiz-adv-x="1519" d="M96 674q0 187 84 347.5t238.5 258.5t345.5 98q189 0 341.5 -96.5t235 -256.5t82.5 -349q0 -138 -49 -266.5t-134 -225.5t-209.5 -155t-266.5 -58q-191 0 -345.5 97t-238.5 257.5t-84 348.5zM281 676q0 -156 59.5 -284.5t170.5 -204.5t253 -76q140 0 250 78.5t167.5 206.5 t57.5 280q0 150 -57.5 278t-167.5 206.5t-250 78.5q-142 0 -253 -75.5t-170.5 -203.5t-59.5 -284zM408 1559q77 68 137.5 95t118.5 27q27 0 48.5 -5.5t30.5 -10t33.5 -21.5t34.5 -24q71 -43 121 -43q19 0 45.5 11t47 24.5t39.5 26.5t21 14l58 -80q-72 -65 -130 -90t-118 -25 q-46 0 -79.5 11.5t-74.5 39.5q-44 32 -64.5 39.5t-58.5 7.5q-27 0 -79 -29.5t-72 -45.5z" />
<glyph unicode="&#xd6;" horiz-adv-x="1519" d="M96 674q0 187 84 347.5t238.5 258.5t345.5 98q189 0 341.5 -96.5t235 -256.5t82.5 -349q0 -138 -49 -266.5t-134 -225.5t-209.5 -155t-266.5 -58q-191 0 -345.5 97t-238.5 257.5t-84 348.5zM281 676q0 -156 59.5 -284.5t170.5 -204.5t253 -76q140 0 250 78.5t167.5 206.5 t57.5 280q0 150 -57.5 278t-167.5 206.5t-250 78.5q-142 0 -253 -75.5t-170.5 -203.5t-59.5 -284zM449 1548q0 44 29.5 75.5t72.5 31.5q44 0 75 -32t31 -75t-31 -73.5t-75 -30.5t-73 30.5t-29 73.5zM922 1548q0 44 29.5 75.5t72.5 31.5q44 0 75 -32t31 -75t-31 -73.5 t-75 -30.5t-73 30.5t-29 73.5z" />
<glyph unicode="&#xd7;" d="M31 76l389 389l-387 387l100 100l387 -387l387 387l99 -100l-385 -385l389 -389l-101 -101l-389 390l-389 -390z" />
<glyph unicode="&#xd8;" horiz-adv-x="1519" d="M90 16l168 191q-77 96 -119.5 217t-42.5 250q0 187 84 347.5t238.5 258.5t345.5 98q236 0 410 -147l163 184l93 -80l-170 -190q78 -94 120.5 -215.5t42.5 -253.5q0 -138 -49 -266.5t-134 -225.5t-209.5 -155t-266.5 -58q-237 0 -418 150l-164 -184zM281 676 q0 -195 92 -342l696 780q-128 125 -305 125q-142 0 -253 -75.5t-170.5 -203.5t-59.5 -284zM451 238q127 -127 313 -127q140 0 250 78.5t167.5 206.5t57.5 280q0 192 -92 342z" />
<glyph unicode="&#xd9;" horiz-adv-x="1396" d="M176 418v932h160v-875q0 -83 22.5 -147.5t58 -103.5t83.5 -64.5t94.5 -35t95.5 -9.5q56 0 106 10t99.5 35.5t84.5 65.5t57 104.5t22 146.5v873h162v-881q0 -250 -144.5 -372t-396.5 -122q-101 0 -191.5 30t-160.5 85t-111 140t-41 188zM430 1804h160l213 -379h-113z" />
<glyph unicode="&#xda;" horiz-adv-x="1396" d="M176 418v932h160v-875q0 -83 22.5 -147.5t58 -103.5t83.5 -64.5t94.5 -35t95.5 -9.5q56 0 106 10t99.5 35.5t84.5 65.5t57 104.5t22 146.5v873h162v-881q0 -250 -144.5 -372t-396.5 -122q-101 0 -191.5 30t-160.5 85t-111 140t-41 188zM623 1425l215 379h159l-260 -379 h-114z" />
<glyph unicode="&#xdb;" horiz-adv-x="1396" d="M176 418v932h160v-875q0 -83 22.5 -147.5t58 -103.5t83.5 -64.5t94.5 -35t95.5 -9.5q56 0 106 10t99.5 35.5t84.5 65.5t57 104.5t22 146.5v873h162v-881q0 -250 -144.5 -372t-396.5 -122q-101 0 -191.5 30t-160.5 85t-111 140t-41 188zM410 1397l231 364h107l239 -364 h-125l-164 219l-172 -219h-116z" />
<glyph unicode="&#xdc;" horiz-adv-x="1396" d="M176 418v932h160v-875q0 -83 22.5 -147.5t58 -103.5t83.5 -64.5t94.5 -35t95.5 -9.5q56 0 106 10t99.5 35.5t84.5 65.5t57 104.5t22 146.5v873h162v-881q0 -250 -144.5 -372t-396.5 -122q-101 0 -191.5 30t-160.5 85t-111 140t-41 188zM356 1548q0 44 29.5 75.5 t73.5 31.5t75 -32t31 -75t-31 -73.5t-75 -30.5t-73.5 30.5t-29.5 73.5zM850 1548q0 44 29.5 75.5t72.5 31.5q44 0 75.5 -32t31.5 -75t-31.5 -73.5t-75.5 -30.5t-73 30.5t-29 73.5z" />
<glyph unicode="&#xdd;" horiz-adv-x="1110" d="M14 1350h179l374 -629l365 629h164l-457 -785v-565h-162v565zM518 1425l215 379h160l-260 -379h-115z" />
<glyph unicode="&#xde;" horiz-adv-x="1103" d="M209 0v1348h162v-238q102 2 260 2q115 0 209.5 -48t152.5 -143t58 -219q0 -123 -69 -223.5t-175 -153.5t-223 -53q-138 0 -213 11v-283h-162zM371 408h151q73 0 131.5 14.5t108 46.5t77 91t27.5 142q0 275 -291 275h-6l-198 -2v-567z" />
<glyph unicode="&#xdf;" horiz-adv-x="1757" d="M139 37l25 158q74 -42 131 -58t131 -16q76 0 126 40t50 95q0 22 -12.5 42.5t-38 40t-43 31t-50.5 29.5t-38 21q-14 8 -45.5 25t-48.5 27t-45 28t-44 32t-36 35.5t-30.5 42.5t-18 49t-7.5 58q0 125 88 203.5t232 78.5q96 0 156 -11t135 -40l-13 -160q-75 42 -133.5 57 t-136.5 15q-76 0 -117 -41.5t-41 -91.5q0 -29 21 -57.5t58 -53.5t70.5 -43.5t76.5 -39.5t57 -29q32 -18 56.5 -36t53 -47t44.5 -67.5t16 -83.5q0 -71 -30.5 -128.5t-80.5 -91.5t-108 -52t-119 -18q-158 0 -291 57zM1020 37l24 158q74 -42 131.5 -58t131.5 -16q76 0 126 40 t50 95q0 22 -12.5 42.5t-38 40t-43.5 31.5t-51 29.5t-38 20.5q-14 8 -45.5 25.5t-48 27t-44.5 27.5t-44 32t-36 35.5t-30.5 42.5t-18 49t-7.5 58q0 125 88 203.5t232 78.5q96 0 155.5 -11t134.5 -40l-12 -160q-75 42 -133.5 57t-136.5 15q-76 0 -117 -41.5t-41 -91.5 q0 -29 21 -57.5t58 -53.5t70.5 -43.5t76.5 -39.5t57 -29q32 -18 56.5 -36t53 -47t44.5 -67.5t16 -83.5q0 -71 -30.5 -128.5t-80.5 -91.5t-108 -52t-119 -18q-158 0 -291 57z" />
<glyph unicode="&#xe0;" horiz-adv-x="944" d="M31 0l413 1016h78l389 -1016h-168l-90 238h-370l-97 -238h-155zM197 1481h168l223 -414h-119zM338 373h266l-131 348z" />
<glyph unicode="&#xe1;" horiz-adv-x="944" d="M31 0l413 1016h78l389 -1016h-168l-90 238h-370l-97 -238h-155zM338 373h266l-131 348zM418 1067l223 414h166l-272 -414h-117z" />
<glyph unicode="&#xe2;" horiz-adv-x="944" d="M31 0l413 1016h78l389 -1016h-168l-90 238h-370l-97 -238h-155zM186 1016l242 393h111l249 -393h-129l-172 237l-180 -237h-121zM338 373h266l-131 348z" />
<glyph unicode="&#xe3;" horiz-adv-x="944" d="M31 0l413 1016h78l389 -1016h-168l-90 238h-370l-97 -238h-155zM109 1182q82 76 144.5 105.5t123.5 29.5q23 0 40 -2.5t32 -10t24 -13.5t27 -19.5l30 -22.5q67 -47 127 -47q16 0 37 7.5t41 20t36 23.5t30.5 21.5t15.5 11.5l60 -88q-75 -71 -136 -98t-123 -27 q-51 0 -85 12t-74 43q-45 35 -67.5 43.5t-61.5 8.5q-37 0 -160 -82zM338 373h266l-131 348z" />
<glyph unicode="&#xe4;" horiz-adv-x="944" d="M31 0l413 1016h78l389 -1016h-168l-90 238h-370l-97 -238h-155zM201 1190q0 48 31.5 83.5t76.5 35.5q46 0 78.5 -35t32.5 -84q0 -46 -32.5 -79.5t-78.5 -33.5q-45 0 -76.5 33.5t-31.5 79.5zM338 373h266l-131 348zM532 1190q0 48 32 83.5t77 35.5q46 0 78.5 -35t32.5 -84 q0 -46 -32.5 -79.5t-78.5 -33.5q-45 0 -77 33.5t-32 79.5z" />
<glyph unicode="&#xe5;" horiz-adv-x="944" d="M31 0l413 1016h78l389 -1016h-168l-90 238h-370l-97 -238h-155zM279 1260q0 91 58.5 153t145.5 62t149 -62.5t62 -152.5t-62 -151.5t-149 -61.5q-88 0 -146 61t-58 152zM338 373h266l-131 348zM365 1260q0 -49 35.5 -86t82.5 -37q50 0 86.5 36t36.5 87q0 52 -36.5 87 t-86.5 35q-48 0 -83 -35t-35 -87z" />
<glyph unicode="&#xe6;" horiz-adv-x="1419" d="M29 0l581 983h674v-139h-463v-275h404v-141h-404v-289h496v-139h-649v238h-330l-143 -238h-166zM416 373h252v426z" />
<glyph unicode="&#xe7;" horiz-adv-x="1036" d="M106 487q0 219 147 365.5t372 146.5q114 0 182.5 -12.5t146.5 -44.5l-14 -156q-80 41 -157 57.5t-175 16.5q-148 0 -238.5 -99.5t-90.5 -264.5q0 -161 96.5 -267t255.5 -106q162 0 309 74l14 -152q-121 -58 -299 -61l-59 -105q81 0 133.5 -38.5t52.5 -102.5 q0 -83 -67 -127.5t-154 -44.5q-59 0 -89 5.5t-79 25.5l49 96q44 -23 99 -23q46 0 75 15.5t29 46.5q0 27 -17.5 44.5t-49.5 25t-60 10t-65 2.5l96 174q-89 10 -167.5 47t-141 98t-98.5 152.5t-36 201.5z" />
<glyph unicode="&#xe8;" horiz-adv-x="942" d="M193 0v983h608v-139h-455v-275h397v-141h-397v-289h490v-139h-643zM217 1481h168l223 -414h-119z" />
<glyph unicode="&#xe9;" horiz-adv-x="942" d="M193 0v983h608v-139h-455v-275h397v-141h-397v-289h490v-139h-643zM393 1067l223 414h166l-272 -414h-117z" />
<glyph unicode="&#xea;" horiz-adv-x="942" d="M190 1049l242 393h111l250 -393h-129l-172 237l-181 -237h-121zM193 0v983h608v-139h-455v-275h397v-141h-397v-289h490v-139h-643z" />
<glyph unicode="&#xeb;" horiz-adv-x="942" d="M193 0v983h608v-139h-455v-275h397v-141h-397v-289h490v-139h-643zM225 1190q0 48 32 83.5t77 35.5q46 0 78 -35t32 -84q0 -46 -32.5 -79.5t-77.5 -33.5t-77 33.5t-32 79.5zM553 1190q0 48 32 83.5t77 35.5q46 0 78 -35t32 -84q0 -46 -32.5 -79.5t-77.5 -33.5t-77 33.5 t-32 79.5z" />
<glyph unicode="&#xec;" horiz-adv-x="530" d="M-33 1481h168l223 -414h-118zM190 0v983h154v-983h-154z" />
<glyph unicode="&#xed;" horiz-adv-x="530" d="M170 1073l213 397h162l-262 -397h-113zM190 0v983h154v-983h-154z" />
<glyph unicode="&#xee;" horiz-adv-x="530" d="M-12 1055l231 379h107l239 -379h-125l-164 227l-172 -227h-116zM190 0v983h154v-983h-154z" />
<glyph unicode="&#xef;" horiz-adv-x="530" d="M16 1192q0 46 30.5 79.5t74.5 33.5q43 0 73.5 -33.5t30.5 -79.5q0 -44 -30.5 -76.5t-73.5 -32.5q-44 0 -74.5 32t-30.5 77zM190 0v983h154v-983h-154zM324 1192q0 46 30.5 79.5t73.5 33.5q44 0 74 -33.5t30 -79.5q0 -45 -30 -77t-74 -32q-43 0 -73.5 32.5t-30.5 76.5z " />
<glyph unicode="&#xf0;" horiz-adv-x="1179" d="M-18 459v106h211v414q32 2 83 6q52 2 299 2q107 0 193.5 -29.5t143 -77.5t94.5 -112.5t54.5 -132t16.5 -139.5q0 -69 -17 -136.5t-56.5 -133.5t-97.5 -115.5t-147.5 -80t-199.5 -30.5h-366v459h-211zM346 131h189q186 0 276 96t90 269q0 49 -10.5 96.5t-36 95t-64.5 83.5 t-101 58.5t-140 22.5h-4l-199 -2v-285h248v-106h-248v-328z" />
<glyph unicode="&#xf1;" horiz-adv-x="1259" d="M193 0v983h159l570 -758v760h145v-985h-162l-569 752v-752h-143zM238 1182q82 76 144.5 105.5t123.5 29.5q23 0 40 -2.5t32 -10t24 -13.5t27 -19.5l30 -22.5q67 -47 127 -47q16 0 37 7.5t41 20t36 23.5t30.5 21.5t15.5 11.5l60 -88q-75 -71 -135.5 -98t-122.5 -27 q-51 0 -85.5 12t-74.5 43q-45 35 -67.5 43.5t-61.5 8.5q-37 0 -160 -82z" />
<glyph unicode="&#xf2;" horiz-adv-x="1222" d="M106 492q0 140 63 256.5t179.5 186t263.5 69.5q146 0 262 -69.5t179 -186t63 -256.5q0 -137 -62.5 -253.5t-179.5 -187.5t-262 -71q-147 0 -263.5 69.5t-179.5 186t-63 256.5zM279 492q0 -157 89.5 -264t243.5 -107q152 0 242 108t90 263q0 99 -38 182.5t-115 136.5 t-179 53q-154 0 -243.5 -107t-89.5 -265zM311 1481h168l223 -414h-118z" />
<glyph unicode="&#xf3;" horiz-adv-x="1222" d="M106 492q0 140 63 256.5t179.5 186t263.5 69.5q146 0 262 -69.5t179 -186t63 -256.5q0 -137 -62.5 -253.5t-179.5 -187.5t-262 -71q-147 0 -263.5 69.5t-179.5 186t-63 256.5zM279 492q0 -157 89.5 -264t243.5 -107q152 0 242 108t90 263q0 99 -38 182.5t-115 136.5 t-179 53q-154 0 -243.5 -107t-89.5 -265zM516 1073l213 397h162l-262 -397h-113z" />
<glyph unicode="&#xf4;" horiz-adv-x="1222" d="M106 492q0 140 63 256.5t179.5 186t263.5 69.5q146 0 262 -69.5t179 -186t63 -256.5q0 -137 -62.5 -253.5t-179.5 -187.5t-262 -71q-147 0 -263.5 69.5t-179.5 186t-63 256.5zM279 492q0 -157 89.5 -264t243.5 -107q152 0 242 108t90 263q0 99 -38 182.5t-115 136.5 t-179 53q-154 0 -243.5 -107t-89.5 -265zM342 1055l229 379h107l240 -379h-123l-166 227l-172 -227h-115z" />
<glyph unicode="&#xf5;" horiz-adv-x="1222" d="M106 492q0 140 63 256.5t179.5 186t263.5 69.5q146 0 262 -69.5t179 -186t63 -256.5q0 -137 -62.5 -253.5t-179.5 -187.5t-262 -71q-147 0 -263.5 69.5t-179.5 186t-63 256.5zM254 1184q77 72 137.5 100.5t120.5 28.5q22 0 37.5 -2.5t29.5 -9.5t22.5 -12.5t26 -18.5 t29.5 -21q65 -45 123 -45q18 0 45 11.5t47 24.5t40 28l20 14l57 -82q-71 -68 -129.5 -94.5t-118.5 -26.5q-47 0 -80 11.5t-73 42.5q-43 33 -64 41t-57 8q-15 0 -41.5 -11.5t-48 -25t-42 -27t-22.5 -14.5zM279 492q0 -157 89.5 -264t243.5 -107q152 0 242 108t90 263 q0 99 -38 182.5t-115 136.5t-179 53q-154 0 -243.5 -107t-89.5 -265z" />
<glyph unicode="&#xf6;" horiz-adv-x="1222" d="M106 492q0 140 63 256.5t179.5 186t263.5 69.5q146 0 262 -69.5t179 -186t63 -256.5q0 -137 -62.5 -253.5t-179.5 -187.5t-262 -71q-147 0 -263.5 69.5t-179.5 186t-63 256.5zM279 492q0 -157 89.5 -264t243.5 -107q152 0 242 108t90 263q0 99 -38 182.5t-115 136.5 t-179 53q-154 0 -243.5 -107t-89.5 -265zM346 1192q0 46 30.5 79.5t74.5 33.5q43 0 73.5 -33.5t30.5 -79.5q0 -44 -30.5 -76.5t-73.5 -32.5q-44 0 -74.5 32t-30.5 77zM676 1192q0 46 31 79.5t75 33.5t73.5 -33.5t29.5 -79.5q0 -45 -29.5 -77t-73.5 -32t-75 32t-31 77z" />
<glyph unicode="&#xf7;" d="M45 393v142h934v-142h-934zM377 111q0 54 40.5 92.5t94.5 38.5t94.5 -38.5t40.5 -92.5q0 -55 -40.5 -96.5t-94.5 -41.5t-94.5 40.5t-40.5 97.5zM377 817q0 54 40.5 92.5t94.5 38.5t94.5 -38.5t40.5 -92.5q0 -55 -40.5 -96t-94.5 -41t-94.5 40t-40.5 97z" />
<glyph unicode="&#xf8;" horiz-adv-x="1245" d="M88 33l131 135q-113 138 -113 324q0 104 39 198.5t107 164t165.5 110.5t207.5 41q171 0 307 -99l123 129l104 -82l-135 -135q117 -146 117 -327q0 -102 -39 -196t-106.5 -164.5t-164.5 -112.5t-206 -42q-175 0 -314 101l-123 -129zM279 492q0 -118 53 -207l495 514 q-87 65 -202 65q-156 0 -251 -107t-95 -265zM420 186q90 -67 205 -67q153 0 248.5 110t95.5 263q0 110 -56 208z" />
<glyph unicode="&#xf9;" horiz-adv-x="1150" d="M168 311v672h151v-629q0 -64 22.5 -111.5t60.5 -72t79.5 -36t87.5 -11.5q53 0 98 12t83 38t59.5 72.5t21.5 110.5v627h154v-635q0 -96 -31.5 -167t-89.5 -113.5t-133 -63t-168 -20.5q-104 0 -192 35.5t-145.5 111.5t-57.5 180zM264 1481h168l223 -414h-118z" />
<glyph unicode="&#xfa;" horiz-adv-x="1150" d="M168 311v672h151v-629q0 -64 22.5 -111.5t60.5 -72t79.5 -36t87.5 -11.5q53 0 98 12t83 38t59.5 72.5t21.5 110.5v627h154v-635q0 -96 -31.5 -167t-89.5 -113.5t-133 -63t-168 -20.5q-104 0 -192 35.5t-145.5 111.5t-57.5 180zM492 1073l215 397h159l-260 -397h-114z" />
<glyph unicode="&#xfb;" horiz-adv-x="1150" d="M168 311v672h151v-629q0 -64 22.5 -111.5t60.5 -72t79.5 -36t87.5 -11.5q53 0 98 12t83 38t59.5 72.5t21.5 110.5v627h154v-635q0 -96 -31.5 -167t-89.5 -113.5t-133 -63t-168 -20.5q-104 0 -192 35.5t-145.5 111.5t-57.5 180zM287 1055l231 379h107l239 -379h-125 l-164 227l-172 -227h-116z" />
<glyph unicode="&#xfc;" horiz-adv-x="1150" d="M168 311v672h151v-629q0 -64 22.5 -111.5t60.5 -72t79.5 -36t87.5 -11.5q53 0 98 12t83 38t59.5 72.5t21.5 110.5v627h154v-635q0 -96 -31.5 -167t-89.5 -113.5t-133 -63t-168 -20.5q-104 0 -192 35.5t-145.5 111.5t-57.5 180zM252 1192q0 46 30 79.5t74 33.5 q43 0 74 -33.5t31 -79.5q0 -44 -31 -76.5t-74 -32.5q-44 0 -74 32t-30 77zM700 1192q0 46 31 79.5t74 33.5q44 0 74 -33.5t30 -79.5q0 -45 -30 -77t-74 -32q-43 0 -74 32.5t-31 76.5z" />
<glyph unicode="&#xfd;" horiz-adv-x="931" d="M23 983h180l272 -426l266 426h168l-362 -575v-408h-154v408zM375 1024l213 397h162l-263 -397h-112z" />
<glyph unicode="&#xfe;" horiz-adv-x="929" d="M193 0v981h153v-182q59 2 178 2q137 0 235.5 -82.5t98.5 -224.5q0 -95 -56.5 -170t-140 -112.5t-172.5 -37.5h-61q-55 0 -82 2v-176h-153zM346 309h96q112 0 178 44.5t66 140.5q0 84 -49.5 127t-159.5 43h-131v-355z" />
<glyph unicode="&#xff;" horiz-adv-x="931" d="M23 983h180l272 -426l266 426h168l-362 -575v-408h-154v408zM152 1192q0 46 30 79.5t74 33.5q43 0 73.5 -33.5t30.5 -79.5q0 -44 -30.5 -76.5t-73.5 -32.5q-44 0 -74 32t-30 77zM590 1192q0 46 31 79.5t75 33.5q43 0 73 -33.5t30 -79.5q0 -44 -30 -76.5t-73 -32.5 q-44 0 -75 32t-31 77z" />
<glyph unicode="&#x152;" horiz-adv-x="2009" d="M96 674q0 187 84 347.5t238.5 258.5t345.5 98q65 0 199 -14t182 -14h723v-140h-611v-454h533v-140h-533v-477h656v-139h-768q-41 0 -177.5 -14.5t-203.5 -14.5q-191 0 -345.5 97t-238.5 257.5t-84 348.5zM281 676q0 -156 59.5 -284.5t170.5 -204.5t253 -76q170 0 334 24 v1079q-166 25 -334 25q-142 0 -253 -75.5t-170.5 -203.5t-59.5 -284z" />
<glyph unicode="&#x153;" horiz-adv-x="1617" d="M106 492q0 104 39.5 198.5t108 163.5t165.5 109.5t208 40.5q49 0 150 -10.5t138 -10.5h564v-139h-461v-275h401v-141h-401v-289h493v-139h-596q-31 0 -134.5 -10t-153.5 -10q-111 0 -208 40.5t-165.5 109.5t-108 163.5t-39.5 198.5zM279 492q0 -155 96 -263t252 -108 q128 0 235 14v713q-120 16 -235 16q-155 0 -251.5 -108t-96.5 -264z" />
<glyph unicode="&#x178;" horiz-adv-x="1110" d="M14 1350h179l374 -629l365 629h164l-457 -785v-565h-162v565zM244 1548q0 44 29.5 75.5t72.5 31.5q44 0 75.5 -32t31.5 -75t-31.5 -73.5t-75.5 -30.5t-73 30.5t-29 73.5zM670 1548q0 44 29.5 75.5t72.5 31.5q44 0 75.5 -32t31.5 -75t-31.5 -73.5t-75.5 -30.5t-73 30.5 t-29 73.5z" />
<glyph unicode="&#x2c6;" horiz-adv-x="901" d="M135 1073l242 393h110l250 -393h-131l-172 238l-178 -238h-121z" />
<glyph unicode="&#x2dc;" horiz-adv-x="901" d="M45 1182q81 76 143 105.5t123 29.5q29 0 51.5 -6t31.5 -11t35 -24.5t36 -26.5q67 -47 127 -47q16 0 37 7.5t41 20t36 23.5t30.5 21.5t15.5 11.5l59 -88q-75 -71 -135.5 -98t-122.5 -27q-50 0 -85 12t-75 43q-45 35 -66.5 43.5t-60.5 8.5q-10 0 -23 -4t-27.5 -11 t-28.5 -14.5t-28 -17t-24 -15.5t-19 -13t-10 -7z" />
<glyph unicode="&#x2000;" horiz-adv-x="913" />
<glyph unicode="&#x2001;" horiz-adv-x="1827" />
<glyph unicode="&#x2002;" horiz-adv-x="913" />
<glyph unicode="&#x2003;" horiz-adv-x="1827" />
<glyph unicode="&#x2004;" horiz-adv-x="609" />
<glyph unicode="&#x2005;" horiz-adv-x="456" />
<glyph unicode="&#x2006;" horiz-adv-x="304" />
<glyph unicode="&#x2007;" horiz-adv-x="304" />
<glyph unicode="&#x2008;" horiz-adv-x="228" />
<glyph unicode="&#x2009;" horiz-adv-x="365" />
<glyph unicode="&#x200a;" horiz-adv-x="101" />
<glyph unicode="&#x2010;" horiz-adv-x="768" d="M127 397v154h516v-154h-516z" />
<glyph unicode="&#x2011;" horiz-adv-x="768" d="M127 397v154h516v-154h-516z" />
<glyph unicode="&#x2012;" horiz-adv-x="768" d="M127 397v154h516v-154h-516z" />
<glyph unicode="&#x2013;" d="M-6 397v142h1030v-142h-1030z" />
<glyph unicode="&#x2014;" horiz-adv-x="2048" d="M-6 397v142h2054v-142h-2054z" />
<glyph unicode="&#x2018;" horiz-adv-x="460" d="M90 1161q0 71 57.5 167t161.5 200l62 -43q-52 -79 -80.5 -154t-28.5 -121q0 -32 27 -57t82 -37l-123 -174q-42 4 -74 25.5t-49.5 53.5t-26 67.5t-8.5 72.5z" />
<glyph unicode="&#x2019;" horiz-adv-x="460" d="M92 961q53 77 82 152t29 120q0 33 -27.5 59t-83.5 37l123 174q43 -4 75 -25.5t50 -54t26.5 -68t8.5 -73.5q0 -70 -58 -166t-163 -201z" />
<glyph unicode="&#x201a;" horiz-adv-x="460" d="M90 70l123 174q42 -4 73.5 -25.5t49.5 -54t26.5 -68t8.5 -73.5q0 -70 -57.5 -166t-161.5 -201l-62 45q53 77 82 152t29 120q0 33 -28 59.5t-83 37.5z" />
<glyph unicode="&#x201c;" horiz-adv-x="845" d="M90 1161q0 71 57.5 167t161.5 200l62 -43q-52 -79 -80.5 -154t-28.5 -121q0 -32 27 -57t82 -37l-123 -174q-42 4 -74 25.5t-49.5 53.5t-26 67.5t-8.5 72.5zM471 1161q0 72 58 168t163 199l62 -43q-54 -78 -82.5 -153t-28.5 -122q0 -32 27.5 -57.5t83.5 -36.5l-123 -174 q-43 4 -75 25.5t-50 53.5t-26.5 67.5t-8.5 72.5z" />
<glyph unicode="&#x201d;" horiz-adv-x="845" d="M94 961q53 77 82 152t29 120q0 33 -27.5 59t-83.5 37l123 174q43 -4 75 -25.5t50 -54t26.5 -68t8.5 -73.5q0 -70 -58 -166t-163 -201zM477 961q52 77 80.5 152t28.5 120q0 33 -27.5 59t-81.5 37l123 174q42 -4 73.5 -25.5t49.5 -54t26.5 -68t8.5 -73.5q0 -70 -57.5 -166 t-161.5 -201z" />
<glyph unicode="&#x201e;" horiz-adv-x="845" d="M86 70l125 174q42 -4 73.5 -25.5t49.5 -54t26.5 -68t8.5 -73.5q0 -70 -57.5 -166t-161.5 -201l-64 45q53 77 82 152t29 120q0 33 -27.5 59.5t-83.5 37.5zM469 70l123 174q42 -4 73.5 -25.5t49.5 -54t26.5 -68t8.5 -73.5q0 -70 -58 -165.5t-162 -201.5l-61 45 q53 77 82 152t29 120q0 33 -28 59.5t-83 37.5z" />
<glyph unicode="&#x2022;" horiz-adv-x="641" d="M70 463q0 101 75.5 175.5t178.5 74.5q102 0 176.5 -74t74.5 -176q0 -104 -74.5 -179t-176.5 -75q-103 0 -178.5 74.5t-75.5 179.5z" />
<glyph unicode="&#x2026;" horiz-adv-x="1740" d="M121 111q0 54 40.5 92.5t94.5 38.5t94.5 -38.5t40.5 -92.5q0 -55 -40.5 -96.5t-94.5 -41.5t-94.5 40.5t-40.5 97.5zM735 111q0 54 40.5 92.5t94.5 38.5t95 -38.5t41 -92.5q0 -55 -41 -96.5t-95 -41.5t-94.5 40.5t-40.5 97.5zM1350 111q0 54 40.5 92.5t94.5 38.5 t94.5 -38.5t40.5 -92.5q0 -55 -40.5 -96.5t-94.5 -41.5t-94.5 40.5t-40.5 97.5z" />
<glyph unicode="&#x202f;" horiz-adv-x="365" />
<glyph unicode="&#x2039;" horiz-adv-x="667" d="M86 451l467 415v-182l-223 -233l223 -234v-180z" />
<glyph unicode="&#x203a;" horiz-adv-x="667" d="M115 35v182l223 234l-223 233v182l467 -415z" />
<glyph unicode="&#x205f;" horiz-adv-x="456" />
<glyph unicode="&#x20ac;" d="M-37 502v112h152q-2 18 -2 56q0 55 2 84h-152v112h170q46 228 191.5 367t361.5 139q25 0 47 -1t38 -2t36.5 -4.5t30 -5t32.5 -8t31 -8.5t38.5 -11.5t41.5 -12.5l-12 -156q-77 31 -109.5 42t-83 20.5t-110.5 9.5q-124 0 -219 -99t-130 -270h523v-112h-537q-4 -25 -4 -72 q0 -48 2 -68h539v-112h-523q34 -176 134.5 -281.5t244.5 -105.5q81 0 135.5 15.5t135.5 55.5l14 -155q-76 -25 -106.5 -34t-78.5 -15.5t-114 -6.5q-130 0 -244 59t-198.5 180.5t-114.5 287.5h-162z" />
<glyph unicode="&#x2122;" horiz-adv-x="1951" d="M100 1223v125h668v-123h-264v-688h-139v686h-265zM819 537l64 811h159q176 -404 230 -551q43 102 246 551h153l66 -809l-144 -2l-39 589l-294 -614l-261 606l-45 -581h-135z" />
<glyph unicode="&#xe000;" horiz-adv-x="983" d="M0 0v983h983v-983h-983z" />
<glyph unicode="&#xfb01;" horiz-adv-x="1425" d="M193 0v983h608v-139h-455v-289h397v-141h-397v-414h-153zM1085 0v983h154v-983h-154z" />
<glyph unicode="&#xfb02;" horiz-adv-x="1755" d="M193 0v983h608v-139h-455v-289h397v-141h-397v-414h-153zM1087 0v983h154v-844h471v-139h-625z" />
</font>
</defs>
</svg>
