<?xml version="1.0" standalone="no"?>
<!DOCTYPE svg PUBLIC "-//W3C//DTD SVG 1.1//EN" "http://www.w3.org/Graphics/SVG/1.1/DTD/svg11.dtd" >
<svg xmlns="http://www.w3.org/2000/svg">
<metadata></metadata>
<defs>
<font id="nexussans-italicregular" horiz-adv-x="1024" >
<font-face units-per-em="2048" ascent="1638" descent="-410" />
<missing-glyph horiz-adv-x="512" />
<glyph horiz-adv-x="2048" />
<glyph horiz-adv-x="2048" />
<glyph unicode="&#xd;" horiz-adv-x="2048" />
<glyph unicode=" "  horiz-adv-x="512" />
<glyph unicode="&#x09;" horiz-adv-x="512" />
<glyph unicode="&#xa0;" horiz-adv-x="512" />
<glyph unicode="!" horiz-adv-x="512" d="M131 94q0 60 46 104t106 44q48 0 84 -34t36 -83q0 -60 -45 -106t-104 -46q-50 0 -86.5 36t-36.5 85zM240 418l71 971l195 2l-123 -973h-143z" />
<glyph unicode="&#x22;" horiz-adv-x="686" d="M209 971l55 510h146l-54 -510h-147zM537 971l55 510h143l-55 -510h-143z" />
<glyph unicode="#" horiz-adv-x="1306" d="M78 176l14 131h309l33 299h-309l14 129h312l55 449h139l-55 -449h299l55 449h135l-51 -449h297l-14 -129h-303l-33 -299h305l-14 -131h-308l-57 -465h-137l55 465h-301l-57 -465h-135l53 465h-301zM537 307h299l36 299h-299z" />
<glyph unicode="$" horiz-adv-x="1038" d="M164 123q0 26 12 76h158q-2 -6 -2 -19q0 -24 18 -40.5t47 -23.5t52.5 -9.5t46.5 -2.5l51 480q-16 12 -46.5 35.5t-48.5 37.5t-45 37.5t-43.5 41.5t-36 43.5t-30 49.5t-18 54t-7.5 61q0 145 100.5 235.5t248.5 106.5l16 150h108l-16 -146q41 -2 82.5 -9t90.5 -22t79.5 -45 t30.5 -71q0 -11 -1.5 -22.5t-5 -26.5t-4.5 -23h-157v19q0 63 -129 69l-47 -459q7 -4 44 -32.5t48 -38.5q43 -34 70.5 -59.5t57 -62t44 -77.5t14.5 -88q0 -146 -101.5 -241.5t-252.5 -116.5l-19 -170h-108l18 166q-47 0 -91.5 4.5t-101.5 17.5t-91.5 44t-34.5 77zM440 961 q0 -39 21 -76t44.5 -59t61.5 -52l39 379q-77 -12 -121.5 -63t-44.5 -129zM606 113q78 19 124 71t46 129q0 91 -129 193z" />
<glyph unicode="%" horiz-adv-x="1843" d="M256 -29l1452 1430l86 -72l-1452 -1429zM313 961q0 104 55.5 196t149 147.5t197.5 55.5q134 0 223.5 -89t89.5 -222q0 -105 -55.5 -198t-148.5 -148.5t-197 -55.5q-133 0 -223.5 90.5t-90.5 223.5zM446 975q0 -85 56 -140t141 -55q101 0 175.5 75.5t74.5 176.5 q0 84 -55.5 139.5t-139.5 55.5q-101 0 -176.5 -76t-75.5 -176zM1044 285q0 104 55 196t148 147.5t197 55.5q134 0 224.5 -90t90.5 -223q0 -103 -56.5 -195.5t-149.5 -147.5t-197 -55q-132 0 -222 89.5t-90 222.5zM1176 301q0 -85 56 -140t140 -55q101 0 176.5 75t75.5 175 q0 85 -56 140t-141 55q-101 0 -176 -74.5t-75 -175.5z" />
<glyph unicode="&#x26;" horiz-adv-x="1236" d="M129 322q0 47 8 137q10 83 34 165t67 161t98.5 139t134 96.5t168.5 36.5q99 0 151 -53.5t52 -153.5q0 -106 -72.5 -191.5t-179.5 -136.5q67 -114 188 -278q64 42 117 140.5t79.5 203t26.5 186.5v33h-73l12 121h451l-13 -121h-229q-5 -124 -36 -246.5t-100 -241.5 t-165 -184q12 -17 51.5 -78.5t67 -102.5t67 -86.5t70.5 -62.5q42 -24 133 -38l-33 -117q-51 8 -83.5 14.5t-76 22t-75.5 37.5q-36 26 -92.5 99t-82 112.5t-77.5 121.5q-118 -51 -184 -67.5t-181 -16.5q-54 0 -95 22.5t-65 56.5t-38.5 82.5t-19.5 93t-5 94.5zM297 354 q0 -233 117 -233q139 0 231 47q-140 210 -205 301q-70 -21 -141 -39q-2 -25 -2 -76zM309 553q40 9 84.5 23.5t97.5 39.5t95 53t70 67.5t28 80.5q0 40 -20 75.5t-58 35.5q-24 0 -73 -5t-60 -12q-12 -8 -35 -37q-51 -63 -85.5 -150t-43.5 -171z" />
<glyph unicode="'" horiz-adv-x="358" d="M207 971l53 510h150l-54 -510h-149z" />
<glyph unicode="(" horiz-adv-x="512" d="M78 346q0 167 38 329t109.5 309.5t161 279t205.5 264.5l102 -51q-235 -266 -360 -538.5t-125 -590.5q0 -221 62.5 -426t181.5 -418l-117 -53q-120 202 -189 435.5t-69 459.5z" />
<glyph unicode=")" horiz-adv-x="512" d="M-59 -498q114 131 198 254.5t150.5 263t100.5 293t34 318.5q0 219 -62.5 424t-179.5 422l115 51q121 -197 188.5 -430t67.5 -461v-29q-3 -163 -41.5 -320.5t-109 -302t-158 -274t-201.5 -260.5z" />
<glyph unicode="*" d="M164 1126l61 144l336 -127l-49 -119zM256 719l258 293l94 -70l-239 -309zM571 1149l25 373h149l-51 -373h-123zM618 942l107 74l201 -295l-131 -88zM700 1141l365 131l31 -146l-365 -100z" />
<glyph unicode="+" d="M88 389l14 141h398l41 398h141l-43 -398h397l-14 -141h-397l-41 -397h-142l41 397h-395z" />
<glyph unicode="," horiz-adv-x="460" d="M57 -299q49 63 94.5 146.5t45.5 136.5q0 35 -31 57t-70 29l142 174q68 -7 102.5 -58t34.5 -123q0 -56 -23.5 -114.5t-66.5 -113t-81 -94t-89 -85.5z" />
<glyph unicode="-" horiz-adv-x="768" d="M170 397l16 154h514l-16 -154h-514z" />
<glyph unicode="." horiz-adv-x="460" d="M106 94q0 59 45.5 103.5t104.5 44.5q48 0 85.5 -34.5t37.5 -82.5q0 -60 -46 -106t-106 -46q-49 0 -85 35.5t-36 85.5z" />
<glyph unicode="/" horiz-adv-x="641" d="M-55 -528l721 2046h133l-721 -2046h-133z" />
<glyph unicode="0" horiz-adv-x="1021" d="M135 399q0 82 19.5 163t60 153t95.5 127.5t131.5 88t164.5 32.5q90 0 162.5 -35t117.5 -95t69 -137t24 -164q0 -103 -32 -202.5t-90 -180.5t-149 -130.5t-200 -49.5q-119 0 -205.5 60.5t-127 156t-40.5 213.5zM291 410q0 -56 13 -108.5t39 -99t72 -74.5t105 -28 q74 0 134 41t95.5 105.5t54.5 136t19 139.5q0 56 -13 108.5t-39 98.5t-72 74t-105 28q-74 0 -134 -41t-95.5 -105t-54.5 -135.5t-19 -139.5z" />
<glyph unicode="1" horiz-adv-x="790" d="M88 0l14 131h246l76 666h-246l17 131h401l-92 -797h246l-15 -131h-647z" />
<glyph unicode="2" horiz-adv-x="917" d="M76 0l6 66l313 266q5 4 35.5 30t38.5 33t35.5 32t37 36t32 35.5t31.5 40t24 40t21 44.5t11 44.5t5 49.5q0 129 -164 129q-34 0 -63.5 -5.5t-57 -18t-43.5 -37t-16 -58.5v-12h-127q-5 35 -5 45q0 61 31 105t82.5 66.5t104.5 32t110 9.5q59 0 111.5 -12t99.5 -37.5 t74.5 -72.5t27.5 -110q0 -220 -266 -438l-209 -172h500l-12 -131h-768z" />
<glyph unicode="3" horiz-adv-x="845" d="M18 -295q0 31 19 86h129q-4 -20 -4 -29q0 -51 114 -51q159 0 233.5 82.5t74.5 253.5q0 42 -9.5 74.5t-23 53.5t-39 36t-46.5 22.5t-58 11.5t-60.5 4.5t-66.5 0.5l-21 121q69 11 127 33.5t106.5 60t75.5 94.5t27 129q0 80 -40 108.5t-122 28.5q-60 0 -103.5 -30.5 t-43.5 -87.5v-13h-127q-6 21 -6 47q0 51 22.5 89.5t56 61t80.5 36.5t90 19t89 5q123 0 200.5 -57t77.5 -176q0 -131 -70.5 -233.5t-193.5 -141.5q136 -13 196 -80t60 -205q0 -234 -135.5 -359.5t-372.5 -125.5q-30 0 -57.5 2.5t-61.5 10.5t-58.5 22t-41.5 38.5t-17 57.5z " />
<glyph unicode="4" horiz-adv-x="937" d="M43 0l16 123q127 220 310 449t364 386h74l-96 -827h192l-16 -131h-191l-47 -397h-143l47 397h-510zM217 131h350l64 547q-92 -86 -227.5 -263.5t-186.5 -283.5z" />
<glyph unicode="5" horiz-adv-x="804" d="M39 -281q0 36 16 68h129q-4 -6 -4 -23q0 -53 119 -53q77 0 134.5 34t89 91t46.5 122t15 138q0 61 -20 105t-50 68t-77.5 38t-89 17.5t-97.5 3.5q-19 0 -55 -1t-52 -1l189 602h485l-22 -133h-344l-109 -344q94 0 166 -16.5t130.5 -55t89 -107t30.5 -166.5 q0 -155 -55.5 -274t-168.5 -188.5t-270 -69.5q-36 0 -72.5 7t-72.5 22.5t-58 45.5t-22 70z" />
<glyph unicode="6" horiz-adv-x="989" d="M137 428q0 83 10 172t32.5 185.5t56 184.5t84.5 168t113.5 139t147 93.5t181.5 34.5q35 0 71 -6.5t73.5 -21t61 -42.5t23.5 -65q0 -34 -24 -84h-129q8 16 8 26q0 54 -113 54q-259 0 -383 -486q130 78 301 78q106 0 177.5 -49t103 -128.5t31.5 -184.5q0 -133 -52.5 -251 t-158 -196t-242.5 -78q-105 0 -179.5 34.5t-116 99t-59.5 143.5t-18 180zM307 442q0 -53 4.5 -95.5t19 -87.5t38 -75t65.5 -49.5t98 -19.5q57 0 102.5 21.5t74 57t47.5 83t27 96t8 100.5q0 115 -50 173.5t-163 58.5q-130 0 -254 -62q-17 -93 -17 -201z" />
<glyph unicode="7" horiz-adv-x="813" d="M82 -328q65 51 125.5 126.5t103.5 149.5t87 174.5t70 170.5t60 168l115 334q-44 0 -133 1t-133 1q-26 0 -42.5 -0.5t-32 -3.5t-23.5 -5t-15.5 -10.5t-10.5 -14t-6 -21t-4 -27t-2 -35.5q-1 -8 -1 -12h-131l24 260h717l-139 -393q-49 -140 -95 -253t-115 -256.5 t-153.5 -260.5t-175.5 -191z" />
<glyph unicode="8" horiz-adv-x="976" d="M104 256q0 32 5.5 63t13.5 56.5t24 52.5t29 46.5t37 44.5t39.5 40.5t44.5 39.5t44.5 36t48 36.5t46.5 35.5q-48 42 -76.5 71.5t-60 71.5t-46.5 89t-15 101q0 105 56.5 189.5t147 129t193.5 44.5q133 0 223 -73t90 -202q0 -50 -8 -92.5t-28.5 -81.5t-37.5 -65.5 t-55.5 -63.5t-59.5 -55.5t-71 -60.5q12 -10 44 -37.5t45.5 -39.5t40.5 -38.5t39.5 -43t31 -43.5t26.5 -50.5t14.5 -54t6.5 -62.5q0 -74 -26 -135.5t-70.5 -103.5t-103.5 -71.5t-124 -43t-133 -13.5q-56 0 -108 9t-101.5 30t-85.5 53t-58 81t-22 110zM276 272 q0 -170 218 -170q112 0 192 56.5t80 163.5q0 23 -6.5 46t-15 42.5t-25 42t-29 38t-35 37.5t-35 33.5t-36.5 32.5t-33 29q-18 -15 -59.5 -46t-64.5 -49.5t-56 -51t-50.5 -59.5t-31 -65.5t-13.5 -79.5zM401 1057q0 -23 9.5 -49t20 -45t34 -48t34.5 -41.5t40.5 -42.5t33.5 -34 q45 37 62 51.5t53.5 51t52 62.5t29.5 65.5t14 80.5q0 70 -46 119t-115 49q-100 0 -161 -59t-61 -160z" />
<glyph unicode="9" horiz-adv-x="989" d="M82 -307q0 34 24 84h130q-9 -18 -9 -27q0 -53 113 -53q66 0 124 29t97.5 72.5t73 105.5t53.5 117.5t37 119.5q-130 -78 -303 -78q-156 0 -233.5 100.5t-77.5 262.5q0 98 31 191.5t87.5 168t143.5 119.5t190 45q105 0 179.5 -34.5t116 -98.5t59.5 -143t18 -180 q0 -84 -10 -171.5t-33 -180t-56.5 -176.5t-84.5 -159t-113.5 -130t-146.5 -87t-181 -32q-35 0 -71 6.5t-73.5 21t-61 42.5t-23.5 65zM283 449q0 -114 50.5 -173t162.5 -59q130 0 254 62q18 99 18 200q0 53 -4.5 95.5t-19 87.5t-38 75.5t-65.5 50t-98 19.5q-57 0 -103 -21.5 t-74.5 -57t-48 -83t-27 -96t-7.5 -100.5z" />
<glyph unicode=":" horiz-adv-x="512" d="M131 94q0 59 45.5 103.5t104.5 44.5q50 0 86 -34t36 -83q0 -60 -45 -106t-104 -46q-50 0 -86.5 36t-36.5 85zM205 799q0 59 45.5 104t105.5 45q48 0 84.5 -35t36.5 -84q0 -60 -44.5 -103.5t-104.5 -43.5v-2q-50 0 -86.5 34.5t-36.5 84.5z" />
<glyph unicode=";" horiz-adv-x="512" d="M82 -299q48 62 93.5 146t45.5 137q0 35 -30.5 57t-69.5 29l141 174q67 -7 102 -58.5t35 -122.5q0 -56 -23.5 -114t-67.5 -113t-82 -94.5t-89 -85.5zM213 799q0 59 45.5 104t103.5 45q50 0 86.5 -35t36.5 -84q0 -59 -45 -103t-104 -44v-2q-50 0 -86.5 34.5t-36.5 84.5z " />
<glyph unicode="&#x3c;" d="M88 399l14 131l975 410l-16 -154l-787 -323l719 -320l-16 -153z" />
<glyph unicode="=" d="M68 209l16 141h932l-17 -141h-931zM106 571l15 142h932l-15 -142h-932z" />
<glyph unicode="&#x3e;" d="M45 -10l16 153l787 320l-719 323l16 154l889 -410l-14 -131z" />
<glyph unicode="?" horiz-adv-x="829" d="M193 1159q0 62 28 108.5t69.5 72.5t100 42.5t109.5 21.5t108 5q123 0 207 -71t84 -193q0 -56 -14 -109t-35.5 -96t-59 -87.5t-71.5 -77.5t-86.5 -73t-91 -66.5t-97.5 -64.5l23 -149l-145 -33l-39 254q82 47 141 86t117 86.5t94 93t58 100.5t22 113q0 65 -38 109.5 t-102 44.5q-38 0 -63 -2t-56.5 -9.5t-50.5 -22t-32 -42t-13 -65.5q0 -9 5 -66h-160q-12 43 -12 90zM236 94q0 60 45.5 104t105.5 44q48 0 84.5 -34t36.5 -83q0 -60 -45 -106t-105 -46q-50 0 -86 36t-36 85z" />
<glyph unicode="@" horiz-adv-x="2048" d="M182 453q0 192 69.5 363.5t190 296.5t291 198t363.5 73q189 0 358.5 -66t293 -181.5t195.5 -281.5t72 -357q0 -121 -31 -211t-87.5 -149.5t-146.5 -96t-199 -51.5t-253 -15q-50 0 -69 18t-19 83q0 36 19 176q-71 -125 -173.5 -203t-230.5 -78q-42 0 -73.5 25.5t-48 61.5 t-26.5 85.5t-12.5 87t-2.5 76.5q0 84 17 171.5t54.5 172.5t90.5 151t132.5 107t173.5 41q47 0 96.5 -18t86.5 -49l30 69h130q-12 -89 -38 -266.5t-44 -318t-27 -267.5q27 -6 59 -6q136 0 223 23t134.5 76t64.5 122.5t17 178.5q0 215 -102 387.5t-277.5 268t-388.5 95.5 q-218 0 -392.5 -106.5t-270 -286t-95.5 -395.5q0 -166 57.5 -308t158 -241.5t243 -156t307.5 -56.5q18 0 71 4.5t68 7.5q32 5 87.5 18.5t116 39.5t60.5 51q0 39 -18 71l98 37q47 -70 47 -147q0 -44 -42 -82t-106.5 -63t-116.5 -39.5t-97 -22.5q-88 -16 -166 -16 q-191 0 -361 67.5t-293.5 185t-195.5 285.5t-72 361zM831 319q0 -202 95 -202q58 0 119.5 55t107.5 133.5t78.5 157t42.5 133.5q1 6 18 139q-32 44 -71.5 60t-100.5 16q-54 0 -99 -23t-74 -58.5t-51.5 -84t-34 -94.5t-19 -95.5t-9.5 -80.5t-2 -56z" />
<glyph unicode="A" horiz-adv-x="1124" d="M14 0l686 1380h86l324 -1380h-172l-84 365h-502l-182 -365h-156zM416 500h407l-127 571z" />
<glyph unicode="B" horiz-adv-x="1191" d="M209 0l166 1346q208 14 395 14q57 0 108.5 -10t97 -32.5t78.5 -55.5t52.5 -81.5t19.5 -107.5q0 -82 -29.5 -160.5t-93 -136.5t-147.5 -65q134 -6 203 -84.5t69 -214.5q-1 -99 -39 -178.5t-102.5 -130t-148.5 -77t-181 -26.5h-448zM385 131h211q78 0 138 12.5t110.5 42.5 t78.5 86.5t29 137.5q0 116 -72.5 173.5t-193.5 57.5q-45 0 -237 -8zM465 768l180 4q62 2 113.5 16t94 42.5t67.5 77t26 112.5q-1 99 -63.5 153t-163.5 54q-42 0 -99.5 -1t-99.5 -1z" />
<glyph unicode="C" horiz-adv-x="1224" d="M174 612q0 216 93.5 389.5t262 272t381.5 98.5q41 0 81 -2t100 -11t103.5 -24t75.5 -46t32 -72q0 -22 -13 -76h-157q0 94 -248 94q-121 0 -222 -50.5t-166.5 -135.5t-101 -194.5t-35.5 -229.5q0 -106 23.5 -196.5t71 -161.5t127.5 -111.5t184 -40.5q217 0 389 84l31 -133 q-221 -91 -451 -91q-128 0 -235 50.5t-177.5 137.5t-109.5 202.5t-39 246.5z" />
<glyph unicode="D" horiz-adv-x="1382" d="M209 0l166 1346q180 12 241 12q36 0 97.5 -1t97.5 -1q182 0 310.5 -77t191.5 -211.5t63 -315.5q-3 -215 -99.5 -386.5t-267.5 -268.5t-386 -97h-414zM385 127h223q274 0 426.5 165t157.5 441q0 104 -25.5 192t-76 156t-133.5 106t-191 38q-50 0 -246 -4z" />
<glyph unicode="E" horiz-adv-x="1069" d="M209 0l166 1350h719l-74 -140h-502l-55 -454h479l-16 -140h-482l-57 -477h555l31 -139h-764z" />
<glyph unicode="F" horiz-adv-x="1011" d="M209 0l166 1350h719l-74 -140h-502l-59 -477h459l-17 -139h-459l-71 -594h-162z" />
<glyph unicode="G" horiz-adv-x="1296" d="M174 598q0 212 93 389t260.5 281t375.5 104q400 0 400 -155q0 -22 -13 -76h-157q0 27 -19.5 46t-43.5 28t-64 14t-61 5.5t-54 0.5q-101 0 -187.5 -34t-148.5 -93t-106 -139t-66.5 -172.5t-24.5 -192.5q0 -223 130 -356t354 -133q31 0 58.5 3t43 6t50.5 11t55 12l30 263 h-342l17 139h503l-61 -506q-18 -5 -66 -17.5t-65.5 -17t-56.5 -13t-63.5 -11.5t-59.5 -6t-70 -3q-141 0 -260 44t-203 123.5t-131 196.5t-47 259z" />
<glyph unicode="H" horiz-adv-x="1468" d="M209 0l166 1350h160l-72 -598h729l72 598h161l-165 -1350h-162l76 608h-730l-73 -608h-162z" />
<glyph unicode="I" horiz-adv-x="579" d="M209 0l168 1350h160l-166 -1350h-162z" />
<glyph unicode="J" horiz-adv-x="626" d="M-279 -381q0 46 27 102h146q0 -2 -3.5 -10.5t-3.5 -13.5q0 -53 111 -53q75 0 106 12q35 15 62.5 49.5t44 79.5t26.5 85.5t15 82.5l154 1261h-199l18 136h359l-168 -1362q-14 -113 -43 -196t-81 -148t-136 -98t-199 -33q-236 0 -236 106z" />
<glyph unicode="K" horiz-adv-x="1148" d="M209 0l168 1350h160l-78 -613q76 65 164 152t135 137t158 174t135 150h186q-36 -40 -130 -146.5t-144.5 -162.5t-130.5 -139t-150 -148l293 -504q76 -134 170 -250h-217q-50 69 -119 186l-262 445q-53 -47 -111 -90l-65 -541h-162z" />
<glyph unicode="L" horiz-adv-x="960" d="M209 0l166 1350h160l-148 -1211h578l-17 -139h-739z" />
<glyph unicode="M" horiz-adv-x="1697" d="M182 0l221 1350h218l120 -457q36 -131 69 -268.5t48 -208.5l16 -72q78 167 232 442l311 564h199l-96 -1350h-160l94 1161l-637 -1190l-297 1188l-190 -1159h-148z" />
<glyph unicode="N" horiz-adv-x="1486" d="M209 0l168 1350h180l592 -1131l139 1131h152l-168 -1350h-180l-592 1128l-140 -1128h-151z" />
<glyph unicode="O" horiz-adv-x="1478" d="M174 580q0 154 56.5 299t153 255.5t235 177t292.5 66.5q176 0 304.5 -83t191.5 -221.5t63 -313.5q-2 -151 -58.5 -294t-151 -252.5t-231.5 -176t-290 -66.5q-171 0 -300.5 81t-197 218.5t-67.5 309.5zM358 598q0 -100 23 -185.5t70 -154t125 -108t180 -39.5q120 0 222 57 t167.5 149.5t102 205.5t38.5 229q0 98 -22 183t-67.5 154.5t-122.5 109.5t-179 40q-99 0 -185.5 -36.5t-149 -99t-108.5 -144.5t-69 -174t-25 -187z" />
<glyph unicode="P" horiz-adv-x="1103" d="M209 0l166 1348q197 12 389 12h35q165 0 268.5 -98.5t103.5 -262.5q-3 -131 -69.5 -240t-178.5 -172t-243 -63q-50 0 -107 13l17 133q47 -13 88 -13q141 0 224 97t83 241q0 123 -66 176.5t-192 53.5q-35 0 -104.5 -1t-104.5 -1l-147 -1223h-162z" />
<glyph unicode="Q" horiz-adv-x="1478" d="M174 582q0 154 56 299t152.5 254.5t235 176t293.5 66.5q172 0 301 -80t195 -216t66 -308q0 -130 -44 -260t-120.5 -238.5t-188 -187t-239.5 -104.5q72 -48 163 -101.5t205 -114.5t221 -100t172 -39q66 0 108 28t42 91h123q2 -8 2 -24q0 -17 -2 -25q-1 -63 -30 -107.5 t-79.5 -66t-102 -30.5t-112.5 -9q-84 0 -227 56.5t-291.5 140.5t-274.5 163.5t-210 141.5q-201 57 -307.5 216.5t-106.5 377.5zM358 600q0 -102 22.5 -187.5t69 -154.5t125 -108t181.5 -39q98 0 183.5 37.5t147.5 101t107 146.5t68 174.5t24 183.5q0 99 -22.5 183.5 t-68 153.5t-122.5 108.5t-178 39.5q-99 0 -185.5 -36.5t-149 -98.5t-108.5 -144t-69 -173.5t-25 -186.5z" />
<glyph unicode="R" horiz-adv-x="1175" d="M209 0l166 1346q246 16 368 16q86 0 161.5 -19.5t137.5 -59t98 -107.5t36 -158q0 -113 -59 -207.5t-155.5 -146.5t-207.5 -52h-31q35 -51 226.5 -310.5t226.5 -301.5h-218q-15 20 -45 57t-54 68.5t-44 60.5t-73.5 102.5t-81.5 113.5t-68.5 101.5t-71.5 114.5l53 89l99 4 q145 7 232 73.5t87 206.5q0 48 -16 87t-43 65t-64.5 43.5t-78.5 25t-87 7.5q-32 0 -184 -5l-147 -1214h-162z" />
<glyph unicode="S" horiz-adv-x="1038" d="M168 129q0 36 14 80h158q-2 -6 -2 -19q0 -79 174 -79q71 0 130.5 21.5t100.5 73t41 124.5q0 48 -27 95.5t-70 88t-95 82.5t-103.5 86t-94.5 90.5t-70 104.5t-27 120q0 89 35.5 161t96 118t137 71t161.5 25q46 0 92.5 -6t100 -21t87 -48t33.5 -80q0 -26 -12 -76h-158 q2 6 2 18q0 76 -157 76q-110 0 -180 -53.5t-70 -161.5q0 -46 27 -91t70 -84t95.5 -79t104.5 -83t95 -88.5t70 -103.5t27 -120q0 -121 -64 -213t-164.5 -137.5t-219.5 -45.5q-39 0 -74.5 2t-86.5 11t-87.5 24.5t-63 45.5t-26.5 71z" />
<glyph unicode="T" horiz-adv-x="1021" d="M158 1212l16 138h940l-16 -138h-389l-150 -1212h-160l148 1212h-389z" />
<glyph unicode="U" horiz-adv-x="1355" d="M223 358q0 30 6 60l115 932h160l-109 -875q-4 -36 -4 -57q0 -149 74 -226t219 -77q342 0 393 362q24 170 62 485t47 388h160q-10 -77 -47.5 -394t-61.5 -487q-68 -494 -580 -494q-90 0 -167.5 24.5t-137.5 71t-94.5 120.5t-34.5 167z" />
<glyph unicode="V" horiz-adv-x="1073" d="M180 1350h170l256 -1092l477 1092h158l-633 -1383h-86z" />
<glyph unicode="W" horiz-adv-x="1685" d="M180 1350h170l250 -1074l297 650l-100 424h166l245 -1080l492 1080h158l-641 -1383h-87l-184 758l-338 -758h-86z" />
<glyph unicode="X" horiz-adv-x="1101" d="M14 0l541 686l-365 664h191l285 -525l415 525h183l-523 -658l381 -692h-192l-301 549l-432 -549h-183z" />
<glyph unicode="Y" horiz-adv-x="1054" d="M176 1262l47 131q76 0 151.5 -66.5t129.5 -165.5t90 -212.5t43 -209.5q28 84 75 175.5t108.5 176.5t128 152.5t138.5 108.5t134 41l10 -131q-48 0 -114 -43.5t-136.5 -125.5t-134.5 -187t-114 -240.5t-70 -272.5q-44 -311 -56 -393h-160q14 100 23 165t33 234 q12 82 12 160q0 142 -34.5 276.5t-86 225.5t-110 146t-107.5 55z" />
<glyph unicode="Z" horiz-adv-x="1224" d="M106 0l11 88l919 1122h-782l18 140h1004l-10 -88l-924 -1123h821l-16 -139h-1041z" />
<glyph unicode="[" horiz-adv-x="512" d="M70 -528l252 2050h376l-14 -111h-248l-225 -1829h250l-15 -110h-376z" />
<glyph unicode="\" horiz-adv-x="641" d="M186 1518h133l254 -2046h-133z" />
<glyph unicode="]" horiz-adv-x="512" d="M-66 -528l15 110h248l225 1829h-250l14 111h377l-252 -2050h-377z" />
<glyph unicode="^" d="M92 537l510 933h129l313 -931l-153 -2l-246 753l-399 -753h-154z" />
<glyph unicode="_" d="M-14 -129l14 129h1024l-14 -129h-1024z" />
<glyph unicode="`" horiz-adv-x="940" d="M326 1481h174l188 -414h-123z" />
<glyph unicode="a" horiz-adv-x="974" d="M139 324q0 84 16.5 169t53 168.5t88.5 147.5t130 103.5t171 39.5q48 0 98 -17.5t86 -49.5l27 69h131q-8 -71 -39.5 -317.5t-44.5 -380.5q-8 -68 -8 -152q0 -34 4 -104h-150q-4 62 -4 92q0 65 11 162q-69 -125 -170.5 -203t-229.5 -78q-43 0 -75 26.5t-49.5 64.5t-28.5 89 t-14 91t-3 80zM311 332q0 -211 97 -211q58 0 119.5 55t106 133t75.5 156.5t39 132.5q8 49 16 139q-34 47 -75 62.5t-107 15.5h-23q-54 0 -70 -10q-60 -31 -102.5 -123t-59 -183t-16.5 -167z" />
<glyph unicode="b" horiz-adv-x="985" d="M166 0l186 1495h152l-98 -770q38 56 67.5 91t70.5 69.5t90.5 50.5t110.5 16q52 0 92 -20.5t63.5 -53t38 -77.5t19.5 -87.5t5 -90.5q0 -91 -16.5 -178.5t-53 -170t-90.5 -145t-135.5 -100t-180.5 -37.5q-55 0 -161.5 4t-159.5 4zM332 143q56 -26 137 -26q104 0 135 16 q52 28 91 86t59 129t29.5 137.5t9.5 128.5q0 187 -101 187q-70 0 -96.5 -12.5t-73.5 -65.5q-40 -44 -69.5 -92.5t-46.5 -87t-30 -96.5t-18 -92t-13 -105.5t-13 -106.5z" />
<glyph unicode="c" horiz-adv-x="776" d="M143 338q0 86 16 171t52 165.5t88 142t130.5 98.5t172.5 37q33 0 64 -4t66.5 -15t57 -33.5t21.5 -55.5q0 -58 -27 -107h-133q8 24 8 39q0 45 -86 45q-70 0 -104 -20q-44 -27 -76 -79.5t-48.5 -115.5t-24 -121.5t-7.5 -113.5q0 -41 4 -77.5t16 -81t40 -71t69 -26.5 q85 0 228 180l94 -68q-37 -45 -57.5 -68.5t-54.5 -59t-61.5 -53.5t-65 -37.5t-79 -27.5t-90.5 -8q-64 0 -109 35.5t-66 95.5t-29.5 116t-8.5 118z" />
<glyph unicode="d" horiz-adv-x="972" d="M141 322q0 84 16.5 170t53.5 169t89 147.5t130 104t170 39.5q91 0 186 -43l76 586h150q-17 -147 -75 -577t-81 -666q-8 -68 -8 -152q0 -50 6 -100h-149q-7 58 -7 98q0 13 11 164q-63 -128 -165.5 -208.5t-232.5 -80.5q-43 0 -75.5 26.5t-50 64t-28 89t-13.5 90.5t-3 79z M311 338q0 -217 97 -217q57 0 117.5 54.5t105.5 132t76.5 155t40.5 131.5q8 45 16 143q-71 80 -162 80q-81 0 -106 -10q-62 -28 -116 -149t-63 -207q-6 -55 -6 -113z" />
<glyph unicode="e" horiz-adv-x="800" d="M143 346q0 48 7 113q11 95 46 181.5t90.5 157t138.5 112.5t181 42q209 0 209 -147q0 -52 -18 -98t-46.5 -81t-71.5 -66t-85.5 -52.5t-96.5 -41.5t-95 -32t-91 -24q-2 -16 -2 -50q0 -245 135 -245q115 0 254 180l93 -68q-43 -53 -73.5 -85.5t-72.5 -68.5t-81.5 -55.5 t-92.5 -32t-115 -12.5q-53 0 -92.5 26t-62 64.5t-36.5 91.5t-18 98t-4 93zM324 530q46 12 96 30t107.5 47t94.5 69.5t37 85.5q0 57 -86 57q-76 0 -104 -18q-118 -78 -145 -271z" />
<glyph unicode="f" horiz-adv-x="567" d="M-309 -418q0 54 26 111h133q-6 -30 -6 -33q0 -26 27 -36.5t59 -10.5q61 0 95 10q37 12 68 48t49.5 85t29.5 92.5t16 85.5q18 129 36.5 274.5t40.5 323.5t34 275h-178l16 119h174q12 90 19.5 139t24.5 122t37.5 112t56 86.5t82 71t113 40t151.5 16.5q35 0 67.5 -4.5 t68.5 -16t57.5 -37t21.5 -62.5q0 -43 -25 -95h-133q4 20 4 31q0 26 -26.5 37.5t-57.5 11.5q-125 0 -145 -8q-24 -9 -44.5 -29t-34.5 -42.5t-27 -60t-20 -63t-14.5 -71t-10 -64.5t-7.5 -63t-6 -49h227l-16 -121h-225l-82 -670q-28 -229 -55 -326q-59 -213 -206 -288 q-92 -47 -225 -47q-31 0 -59.5 4t-60 14t-51 33t-19.5 55z" />
<glyph unicode="g" horiz-adv-x="976" d="M6 -367q0 66 49 140h133q-26 -50 -26 -80q0 -88 213 -88q130 0 211 72t94 200q8 68 16 195t13 182q-67 -125 -168.5 -203t-229.5 -78q-43 0 -75.5 26.5t-50 64.5t-28 89.5t-13.5 90.5t-3 80q0 84 16.5 169.5t53 168.5t88.5 147t129.5 103.5t169.5 39.5q47 0 97 -18 t87 -49l29 69h131q-66 -530 -84 -698q-6 -68 -10.5 -194.5t-9.5 -184.5q-17 -192 -146.5 -296.5t-326.5 -104.5q-36 0 -76 3t-93 13t-93 26t-68.5 46t-28.5 69zM311 338q0 -217 97 -217q58 0 119 54.5t105.5 133t75.5 156.5t40 133q8 49 16 139q-35 49 -77 63.5t-112 14.5 q-63 0 -86 -10q-61 -32 -112 -149t-60 -203q-6 -56 -6 -115z" />
<glyph unicode="h" horiz-adv-x="1007" d="M166 0l184 1495h150l-90 -719q65 92 143.5 134t189.5 42q106 0 152.5 -53t46.5 -160q0 -53 -12 -155q-11 -112 -72 -584h-149q10 89 33.5 266t33.5 266q1 15 4.5 43.5t5.5 51.5t2 43q0 67 -22 102t-84 35q-31 0 -73 -7.5t-62 -19.5q-78 -51 -125.5 -160.5t-59.5 -218.5 l-47 -401h-149z" />
<glyph unicode="i" horiz-adv-x="468" d="M166 0l110 928h152l-113 -928h-149zM317 1278q0 51 34 108.5t81 57.5q34 0 51 -39.5t17 -79.5q0 -49 -34 -108.5t-79 -59.5q-25 0 -42 22.5t-22.5 48t-5.5 50.5z" />
<glyph unicode="j" horiz-adv-x="471" d="M-336 -416q0 56 25 111h133q-4 -20 -4 -33q0 -26 27 -36.5t57 -10.5q60 0 94 10q37 12 68 49t50 85.5t30 92.5t16 85q4 32 37 303q75 638 82 688h149q-16 -131 -45.5 -394.5t-44.5 -394.5q-26 -231 -55 -331q-61 -214 -213 -287q-90 -43 -217 -43q-31 0 -59 4t-60 14 t-51 33t-19 55zM317 1278q0 51 34 108.5t81 57.5q35 0 51.5 -39t16.5 -80q0 -49 -34 -108.5t-79 -59.5q-25 0 -42 22.5t-22.5 48t-5.5 50.5z" />
<glyph unicode="k" horiz-adv-x="858" d="M166 0l184 1495h150l-123 -981q101 58 210 180.5t163 233.5h170q-61 -120 -137.5 -212.5t-188.5 -193.5q75 -261 240 -522h-183q-132 226 -196 442l-90 -53l-50 -389h-149z" />
<glyph unicode="l" horiz-adv-x="477" d="M160 0l176 1495h143l-176 -1495h-143z" />
<glyph unicode="m" horiz-adv-x="1550" d="M166 0q64 525 84 709q12 114 18 219h125l2 -183q51 99 142.5 153t205.5 54q105 0 149.5 -48t49.5 -154q52 98 142 150t202 52q106 0 152.5 -52t46.5 -161q0 -51 -12 -153q-13 -122 -72 -586h-150q10 89 34 267.5t34 267.5q14 114 14 145q0 64 -23 96.5t-85 32.5 q-30 0 -73.5 -7t-61.5 -18q-4 -3 -46 -45q-115 -128 -137 -331l-49 -408h-149q10 89 38 317.5t41 352.5q3 18 3 32q0 52 -28 79.5t-81 27.5q-30 0 -73.5 -7t-61.5 -18q-7 -5 -15 -13t-16.5 -17.5t-13.5 -14.5q-115 -128 -137 -331l-50 -408h-149z" />
<glyph unicode="n" horiz-adv-x="1007" d="M166 0q64 525 84 709q12 114 18 219h125l2 -183q51 99 142.5 153t205.5 54q106 0 152.5 -52t46.5 -159q0 -53 -12 -155q-13 -122 -72 -586h-149q9 78 33 258t34 277q12 94 12 137q0 68 -21.5 102.5t-84.5 34.5q-28 0 -72.5 -7t-62.5 -18q-16 -12 -45 -45 q-63 -69 -94.5 -149t-42.5 -182l-50 -408h-149z" />
<glyph unicode="o" horiz-adv-x="956" d="M143 371q0 77 19 158t58 156.5t92 135t127.5 95.5t158.5 36q85 0 151 -33t105 -90.5t58.5 -128.5t19.5 -153q0 -98 -31 -198t-86.5 -184.5t-143.5 -138t-192 -53.5q-84 0 -149.5 32t-105.5 88t-60.5 126.5t-20.5 151.5zM311 350q0 -248 183 -248q80 0 116 23 q51 34 88 119.5t52.5 170t15.5 152.5q0 258 -182 258q-27 0 -64.5 -8t-56.5 -20q-72 -53 -112 -192t-40 -255z" />
<glyph unicode="p" horiz-adv-x="968" d="M115 -512l166 1337l-150 -4l10 74l152 25q11 88 45 239h133l-27 -225q131 16 246 16q254 0 254 -321q0 -91 -16.5 -181t-54 -176.5t-91.5 -152t-136 -106t-181 -40.5q-68 0 -133 35l-66 -520h-151zM348 162q68 -49 146 -49q61 0 84 10q53 22 93.5 80.5t61.5 132.5t31 143 t10 129q0 104 -39.5 161.5t-138.5 57.5q-111 0 -166 -2z" />
<glyph unicode="q" horiz-adv-x="956" d="M141 324q0 84 16.5 170t53 168.5t88.5 146.5t129.5 103.5t169.5 39.5q109 0 184 -69l29 71h131l-182 -1466h-152l97 776q-144 -291 -394 -291q-36 0 -65 18t-47 49.5t-30 67t-18 78t-8 74.5t-2 64zM311 340q0 -219 97 -219q58 0 119 54.5t105.5 133t75.5 156.5t40 133 q8 49 16 139q-33 47 -73.5 62.5t-106.5 15.5q-72 0 -95 -10q-61 -32 -111 -146.5t-61 -201.5q-6 -59 -6 -117z" />
<glyph unicode="r" horiz-adv-x="663" d="M166 0q10 79 30.5 240.5t35.5 287.5t26 240q3 30 6 86t4 74h125v-176q37 80 98 136t138 56q55 0 82.5 -32.5t27.5 -88.5q0 -23 -12 -73h-96v14q0 35 -53 35q-40 0 -79.5 -49t-66.5 -117t-45 -131t-22 -101l-50 -401h-149z" />
<glyph unicode="s" horiz-adv-x="765" d="M102 104q0 52 33 99h146q-9 -27 -9 -39q0 -72 123 -72q71 0 118.5 41t47.5 111q0 46 -27 85t-68 65t-88 57t-88 61t-68 76.5t-27 103.5q0 63 28.5 114.5t75.5 82t103.5 47t115.5 16.5q37 0 72.5 -4t79.5 -15t71 -36t27 -61q0 -50 -18 -97h-146q6 18 6 37q0 60 -106 60 q-59 0 -107.5 -32.5t-48.5 -88.5q0 -33 21 -63t54.5 -54.5t74.5 -49.5t81.5 -53.5t74 -60.5t54.5 -77t21 -97q0 -88 -51.5 -155t-129 -99.5t-163.5 -32.5q-283 0 -283 131z" />
<glyph unicode="t" horiz-adv-x="653" d="M117 807l14 117h172l43 356h143l-43 -356h232l-16 -117h-230l-86 -682q132 86 211 190l88 -61q-218 -272 -369 -272q-69 0 -69 118q0 42 6 82l76 625h-172z" />
<glyph unicode="u" horiz-adv-x="974" d="M164 186q0 56 6 111q13 118 40.5 334t37.5 297h149l-82 -672q-4 -28 -4 -45q0 -107 111 -107q31 0 74.5 7.5t60.5 19.5q14 9 45 45q113 131 139 344l50 408h149q-68 -554 -84 -711q-16 -144 -18 -217h-125l-2 182q-51 -100 -143.5 -155.5t-205.5 -55.5 q-107 0 -152.5 53.5t-45.5 161.5z" />
<glyph unicode="v" horiz-adv-x="872" d="M174 928h152q51 -289 51 -627q0 -106 -10 -180q80 24 145 89t104 148.5t59.5 172t20.5 169.5q0 133 -41 228h160q33 -106 33 -232q0 -89 -26 -187.5t-76.5 -191t-117.5 -167t-157 -119.5t-186 -45q-28 0 -78 4q18 141 18 377q0 293 -51 561z" />
<glyph unicode="w" horiz-adv-x="1361" d="M174 928h152q51 -313 51 -606q0 -133 -8 -201q82 32 145.5 91.5t101 135.5t56 159.5t18.5 172.5t-35 248h152q55 -206 55 -537q0 -162 -12 -270q82 24 147 87.5t103.5 146t58 170.5t19.5 173q0 138 -41 230h159q33 -109 33 -232q0 -89 -26 -187.5t-76.5 -191t-117.5 -167 t-157 -119.5t-186 -45q-7 0 -57 4q10 227 12 360q-36 -151 -160 -257.5t-276 -106.5q-28 0 -78 4q18 127 18 377q0 313 -51 561z" />
<glyph unicode="x" horiz-adv-x="802" d="M27 0q111 137 344 473q-4 9 -29 64t-32 70.5t-28.5 61.5t-33.5 69.5t-31 61t-36.5 68t-35.5 60.5h170q79 -146 156 -310q170 245 219 310h156q-131 -170 -311 -434q130 -303 241 -494h-170q-89 143 -172 344q-42 -58 -126 -172t-126 -172h-155z" />
<glyph unicode="y" horiz-adv-x="841" d="M-252 -412q0 59 39 107h145q-12 -28 -12 -45q0 -26 22 -42t46 -20t51 -4q49 0 121.5 75t128 160.5t80.5 145.5q-14 194 -94.5 474t-174.5 489h160q81 -193 125.5 -324.5t71.5 -284.5q16 -99 16 -163q190 411 209 772h158q-8 -174 -100.5 -462.5t-227.5 -533.5 q-115 -211 -241.5 -337.5t-250.5 -126.5q-272 0 -272 120z" />
<glyph unicode="z" horiz-adv-x="821" d="M45 0l555 799h-436l16 129h672l-555 -799h453l-17 -129h-688z" />
<glyph unicode="{" horiz-adv-x="641" d="M55 451l15 106h57q43 0 76 12.5t55 33.5t37 52t22.5 63.5t12.5 72.5l47 389q20 162 93 243.5t230 81.5h109l-14 -114h-88q-100 0 -137 -45.5t-50 -149.5q-22 -148 -51 -418q-11 -112 -59.5 -180.5t-153.5 -93.5q79 -21 114.5 -71.5t35.5 -131.5q0 -15 -5 -78 q-7 -52 -23.5 -191.5t-27.5 -215.5q-6 -43 -6 -84q0 -47 11.5 -76t36.5 -42.5t50 -17.5t66 -4h67l-14 -114h-110q-125 0 -186.5 54.5t-61.5 174.5q0 59 4 88l53 422q4 40 4 62q0 84 -33 128t-116 44h-60z" />
<glyph unicode="|" horiz-adv-x="512" d="M193 -528v2046h126v-2046h-126z" />
<glyph unicode="}" horiz-adv-x="641" d="M-63 -522l14 114h90q55 0 90.5 15.5t54.5 50t27 68t14 90.5q3 26 26 203.5t26 203.5q11 113 60 184t153 97q-152 39 -152 201q0 35 6 73q26 201 51 418q6 60 6 66q0 80 -39 105.5t-116 25.5q-12 0 -38 -1t-40 -1l14 114h111q127 0 187.5 -57.5t60.5 -181.5q0 -42 -6 -86 l-48 -389q-6 -60 -6 -64q0 -83 35 -125.5t117 -42.5h59l-14 -108h-59q-52 0 -89.5 -18.5t-60 -52.5t-34.5 -73t-19 -90l-51 -422q-20 -159 -92.5 -238t-227.5 -79h-110z" />
<glyph unicode="~" d="M63 463q70 51 164.5 90t167.5 39q46 0 97 -18.5t88.5 -41t85.5 -41t88 -18.5q54 0 122 33.5t119 75.5l62 -123q-69 -50 -165.5 -89.5t-168.5 -39.5q-45 0 -95.5 18.5t-88.5 41t-85.5 41t-86.5 18.5q-54 0 -122.5 -33.5t-119.5 -75.5z" />
<glyph unicode="&#xa1;" horiz-adv-x="512" d="M96 -530l131 1040h144l-80 -1036zM207 807q0 58 45 101.5t104 43.5q49 0 86 -33t37 -83q0 -59 -45.5 -104.5t-105.5 -45.5q-50 0 -85.5 35t-35.5 86z" />
<glyph unicode="&#xa2;" horiz-adv-x="743" d="M127 348q0 98 22.5 193t67.5 180.5t122.5 146t176.5 78.5l49 223h101l-50 -217q30 -2 57 -7t56.5 -16.5t47.5 -33t18 -51.5q0 -58 -27 -107h-133q8 24 8 39q0 34 -53 43l-150 -704q35 6 80.5 43t70 64t62.5 73l95 -68q-38 -47 -57 -69t-56 -59t-66 -56t-71 -37.5 t-88 -25.5l-50 -232h-100l49 229q-56 10 -94.5 50t-56 99t-24.5 111.5t-7 110.5zM297 367q0 -150 49 -213l143 659q-18 0 -36 -12q-44 -27 -76 -80t-48.5 -117t-24 -123t-7.5 -114z" />
<glyph unicode="&#xa3;" horiz-adv-x="1083" d="M51 -422l39 148q45 8 67.5 11.5t50.5 12t39.5 14t28 20.5t23 28t17.5 40t18.5 52.5t20.5 69.5q4 17 7 26h-192l35 123h192l168 625q29 107 50.5 175t51 135.5t60.5 106t74 69.5t97.5 43.5t125.5 12.5q136 0 196 -41t60 -100q0 -2 -1 -7t-1 -7q-2 -20 -8 -48t-6 -30h-142 q2 10 2 26q0 23 -7.5 39t-17 24t-27 12t-28.5 4.5t-30 0.5q-99 0 -162 -49q-20 -15 -45.5 -88t-71.5 -240l-180 -663h209l-35 -123h-209l-35 -104q-6 -19 -13 -36.5t-13.5 -31t-13 -25t-12.5 -20.5t-11.5 -15.5t-10 -11.5t-8 -8t-5.5 -6l-3 -2q49 0 164 -27.5t162 -27.5 q21 0 33 0.5t32.5 6t32.5 16t23 32t14 51.5h139v-22q0 -20 -1.5 -35.5t-8 -38.5t-18 -40.5t-34 -36.5t-53 -31.5t-77 -20.5t-105.5 -8q-64 0 -199 30.5t-190 30.5q-53 0 -94.5 -4.5t-61.5 -9t-53 -14t-49 -13.5z" />
<glyph unicode="&#xa4;" d="M39 76l240 215q-35 65 -35 139q0 115 71 205l-194 217l110 100l195 -221q74 47 168 47q93 0 166 -49l246 223l90 -100l-248 -225q31 -60 31 -127q0 -109 -66 -201l201 -221l-111 -101l-198 224q-82 -54 -177 -54q-81 0 -159 48l-240 -218zM375 440q0 -68 49 -114.5 t117 -46.5q86 0 147.5 61t61.5 147q0 70 -49.5 117t-120.5 47q-84 0 -144.5 -63t-60.5 -148z" />
<glyph unicode="&#xa5;" horiz-adv-x="1054" d="M131 1241l41 131q53 0 105.5 -28t93.5 -71t78 -99.5t62 -106.5t44 -100q46 -123 57 -228q27 82 82 185.5t129.5 206t168 172t179.5 69.5l15 -131q-49 0 -106.5 -36.5t-107.5 -92.5t-88 -107.5t-65 -97.5q-64 -110 -104 -229h295l-13 -113h-317q-23 -109 -27 -139h330 l-12 -113h-330l-33 -313h-162l35 313h-329l10 113h330q4 70 4 102v37h-318l10 113h295q-14 104 -53 209q-12 35 -32 77t-50.5 92t-63.5 90.5t-74 67.5t-79 27z" />
<glyph unicode="&#xa6;" horiz-adv-x="512" d="M195 305h114v-833h-114v833zM195 666v831h114v-831h-114z" />
<glyph unicode="&#xa7;" horiz-adv-x="897" d="M66 -379q0 47 14 88h143v-22q0 -51 32.5 -67.5t88.5 -16.5q47 0 86 12.5t65.5 31.5t48 51t34 61.5t22.5 73t15 76t10 79.5q14 129 14 276q0 384 -104 873h122q142 -492 142 -936q0 -155 -17 -291q-25 -213 -148.5 -323.5t-336.5 -110.5q-38 0 -75 7t-73.5 22t-59.5 45 t-23 71zM221 770q0 156 17 289q25 213 148.5 324.5t336.5 111.5q37 0 74.5 -7t74 -22.5t59.5 -45.5t23 -70q0 -47 -14 -88h-143v22q0 50 -33 67t-88 17q-47 0 -86 -12.5t-65.5 -31.5t-48 -51t-34 -62t-22.5 -73.5t-15 -76t-10 -78.5q-14 -129 -14 -276q0 -377 102 -873h-123 q-139 490 -139 936z" />
<glyph unicode="&#xa8;" horiz-adv-x="940" d="M270 1176q0 53 37 93t90 40q43 0 73 -31t30 -74q0 -51 -38 -89t-89 -38q-43 0 -73 29t-30 70zM629 1178q0 52 38.5 91.5t90.5 39.5q42 0 71 -30t29 -73q0 -53 -36.5 -91t-88.5 -38q-42 0 -73 29.5t-31 71.5z" />
<glyph unicode="&#xa9;" horiz-adv-x="2048" d="M170 469q0 186 72.5 355.5t195.5 292t293 195t356 72.5q187 0 357 -72.5t292.5 -195t194.5 -292t72 -355.5t-72.5 -355t-194.5 -292t-292 -195.5t-357 -72.5q-186 0 -356 72.5t-293 195t-195.5 292t-72.5 355.5zM319 467q0 -156 61 -299t163.5 -246.5t244.5 -165 t297 -61.5t297 61.5t244.5 165t163.5 246t61 297.5q0 157 -61 301t-163.5 249t-244.5 167.5t-297 62.5t-297 -62.5t-244.5 -167t-163.5 -248.5t-61 -300zM621 438q0 238 150.5 386.5t412.5 148.5q33 0 77.5 -7.5t93.5 -23.5t82 -46t33 -69q0 -23 -12 -69h-141q0 2 1 6t1 6 q0 27 -32.5 45.5t-65.5 24.5t-58 6q-183 0 -281 -104.5t-98 -278.5q0 -91 37 -172t107.5 -133t158.5 -52q135 0 281 68l29 -123q-163 -69 -334 -69q-185 0 -313.5 133t-128.5 323z" />
<glyph unicode="&#xaa;" horiz-adv-x="774" d="M217 932q0 61 13.5 122t42 118t68 101t96 70.5t122.5 26.5q64 0 127 -39l16 41h119q-49 -350 -61 -500q-4 -35 -4 -104q0 -55 2 -84h-135q-3 74 6 178q-57 -106 -122.5 -151t-154.5 -45q-41 0 -70 28t-42 73.5t-18 85t-5 79.5zM365 920q0 -129 59 -129q49 0 102.5 62 t87 135t41.5 122q6 44 9 92q-36 47 -101 47q-64 0 -76 -4q-41 -20 -76 -98.5t-40 -134.5q-6 -47 -6 -92z" />
<glyph unicode="&#xab;" horiz-adv-x="1118" d="M135 451l510 415l-20 -182l-248 -233l198 -234l-18 -182zM586 451l510 415l-21 -182l-248 -233l199 -234l-18 -182z" />
<glyph unicode="&#xac;" d="M111 788l14 140h969l-60 -572h-139l45 432h-829z" />
<glyph unicode="&#xad;" horiz-adv-x="768" d="M170 397l16 154h514l-16 -154h-514z" />
<glyph unicode="&#xae;" horiz-adv-x="1280" d="M158 799q0 117 46.5 224.5t125 185t186.5 123.5t227 46q159 0 293 -77.5t211.5 -211t77.5 -290.5t-77.5 -290.5t-211.5 -211.5t-293 -78q-158 0 -293 78t-213.5 211.5t-78.5 290.5zM274 801q0 -192 137 -328.5t330 -136.5t330 136.5t137 328.5q0 126 -62.5 232 t-170 167.5t-234.5 61.5t-234.5 -61.5t-170 -167.5t-62.5 -232zM504 489l78 625q122 8 184 8q99 0 158 -37.5t59 -117.5q0 -76 -56 -137t-139 -70q72 -96 106 -139t60 -72.5t50 -59.5h-144q-11 16 -22.5 27t-23.5 22t-47.5 61t-88.5 136l61 99q9 0 21.5 2t32.5 9t35.5 19 t27.5 35.5t12 54.5q0 25 -11.5 41t-34 23.5t-43 9.5t-50.5 2h-53l-68 -541h-104z" />
<glyph unicode="&#xaf;" horiz-adv-x="940" d="M215 1139l14 133h750l-14 -133h-750z" />
<glyph unicode="&#xb0;" horiz-adv-x="768" d="M190 1145q0 139 105.5 243.5t245.5 104.5q122 0 203 -81t81 -202q0 -140 -104.5 -244t-245.5 -104q-121 0 -203 81t-82 202zM324 1155q0 -70 47.5 -116t117.5 -46q85 0 146 61.5t61 147.5q0 70 -49 116t-119 46q-85 0 -144.5 -61.5t-59.5 -147.5z" />
<glyph unicode="&#xb1;" d="M47 2l14 141h932l-14 -141h-932zM104 547l15 141h393l37 338h141l-37 -338h398l-15 -139h-397l-35 -340h-141l35 338h-394z" />
<glyph unicode="&#xb2;" horiz-adv-x="681" d="M131 506l8 72q48 52 157 163.5t157 167.5q80 96 122.5 177.5t42.5 164.5q0 60 -29.5 86.5t-88.5 26.5q-88 0 -221 -76l4 144q69 31 125 46t124 15q32 0 61.5 -4.5t62.5 -18.5t57.5 -36t40.5 -60t16 -88q0 -62 -15.5 -121.5t-36.5 -104.5t-61 -101t-68.5 -90t-80.5 -91 q-60 -67 -133 -145h350l-14 -127h-580z" />
<glyph unicode="&#xb3;" horiz-adv-x="681" d="M154 514l28 129q78 -20 142 -20q41 0 76.5 8t68 27t51.5 55.5t19 87.5q0 66 -48.5 103.5t-121.5 37.5h-78l14 113q128 10 196 62.5t68 133.5q0 47 -28.5 80t-91.5 33q-86 0 -183 -45l2 127q9 3 32 11t28 10t22.5 7.5t22.5 6.5t19 4.5t22 4t22 2t27.5 1.5h30.5 q109 0 168 -53t59 -146q0 -54 -11 -94t-38.5 -71t-52 -49.5t-72.5 -49.5q69 -18 111 -74.5t42 -136.5q0 -21 -2 -33q-10 -80 -47.5 -138.5t-93 -91t-117 -47.5t-131.5 -15q-77 0 -155 20z" />
<glyph unicode="&#xb4;" horiz-adv-x="940" d="M442 1067l277 414h174l-328 -414h-123z" />
<glyph unicode="&#xb5;" horiz-adv-x="966" d="M66 -512q34 258 90.5 742.5t83.5 697.5h149l-82 -672q-4 -28 -4 -45q0 -107 111 -107q30 0 73.5 7.5t61.5 19.5q6 4 13 10t16 16t12 13q117 132 143 350l49 408h150q-68 -554 -84 -711q-14 -127 -19 -217h-124l-3 182q-51 -101 -143 -156t-205 -55q-40 0 -62.5 10 t-47.5 39l-41 -532h-137z" />
<glyph unicode="&#xb6;" horiz-adv-x="1351" d="M229 834q0 175 74.5 318.5t212.5 228.5t313 85h449q-119 -1155 -143 -1372q-32 -276 -175.5 -418.5t-416.5 -142.5q-41 0 -81.5 5.5t-86 19.5t-73.5 44.5t-28 73.5q0 37 15 91h145q-2 -6 -2 -23q0 -36 19 -55t41.5 -23t58.5 -4q113 0 194 34t129.5 100t74.5 147.5 t38 191.5l129 1227h-133l-141 -1335q-6 -54 -24 -101.5t-58 -84.5t-94 -38l59 566q-225 0 -360.5 121.5t-135.5 343.5z" />
<glyph unicode="&#xb7;" d="M426 453q0 59 45 103t104 44q48 0 85.5 -34.5t37.5 -82.5q0 -60 -45.5 -105.5t-105.5 -45.5q-49 0 -85 36t-36 85z" />
<glyph unicode="&#xb8;" horiz-adv-x="919" d="M229 -420l66 101q43 -25 104 -25q28 0 52.5 5t45.5 23t21 46q0 75 -192 75h-9l134 195h118l-88 -125q44 0 84.5 -12.5t71.5 -44t31 -76.5q0 -64 -41.5 -110t-99 -65.5t-119.5 -19.5q-59 0 -93 6t-86 27z" />
<glyph unicode="&#xb9;" horiz-adv-x="681" d="M174 524l14 125h158l82 717h-160l15 125h307l-96 -842h159l-14 -125h-465z" />
<glyph unicode="&#xba;" horiz-adv-x="702" d="M174 952q0 98 39.5 192.5t119.5 160t181 65.5q123 0 187.5 -83.5t64.5 -211.5q0 -71 -23.5 -143t-65.5 -131.5t-107.5 -97t-141.5 -37.5q-122 0 -188 80.5t-66 205.5zM319 942q0 -70 27.5 -117t93.5 -47q54 0 76 13q50 29 77.5 123.5t27.5 170.5q0 72 -27 122t-92 50 q-53 0 -76 -18q-52 -35 -79.5 -126.5t-27.5 -170.5z" />
<glyph unicode="&#xbb;" horiz-adv-x="1118" d="M119 35l18 182l248 234l-199 233l21 182l422 -415zM569 35l19 182l248 234l-199 233l20 182l422 -415z" />
<glyph unicode="&#xbc;" horiz-adv-x="1884" d="M250 504l14 125h156l88 712h-156l15 125h299l-103 -835h156l-14 -127h-455zM492 -39l1007 1595l92 -61l-1007 -1593zM1143 274l12 103q6 13 34 58.5t81.5 126.5t105.5 149q44 59 94.5 120.5t87.5 104.5t39 45h97l-72 -582h121l-14 -125h-121l-33 -274h-139l32 274h-325z M1313 399h170l39 314q-135 -186 -209 -314z" />
<glyph unicode="&#xbd;" horiz-adv-x="1884" d="M250 504l14 125h156l88 712h-156l15 125h299l-103 -835h156l-14 -127h-455zM492 -39l1007 1595l92 -61l-1007 -1593zM1190 0l8 72q54 62 158.5 169t148.5 160q77 95 118.5 176.5t41.5 163.5q0 111 -113 111q-86 0 -221 -76l4 139q132 66 248 66q31 0 60 -4.5t62 -18.5 t56.5 -36t39.5 -60t16 -88q0 -61 -15 -119.5t-36.5 -104.5t-59 -100t-67.5 -89.5t-78 -88.5q-17 -18 -59 -66t-72 -81h344l-15 -125h-569z" />
<glyph unicode="&#xbe;" horiz-adv-x="1884" d="M266 520l27 127q92 -18 139 -18q41 0 75 8t66.5 26.5t51 55t18.5 88.5q0 65 -47.5 101t-118.5 36h-78l15 113q127 9 192.5 63t65.5 133q0 46 -27.5 78.5t-89.5 32.5q-86 0 -178 -45l2 127q10 3 33 11.5t29 10.5t23.5 8t24.5 7t21.5 4t26 3.5t28 1.5t35.5 1q107 0 164 -52 t57 -143q0 -73 -23.5 -124t-55.5 -78t-93 -64q68 -15 111 -72.5t43 -136.5q0 -20 -2 -32q-10 -79 -46.5 -137.5t-91.5 -91t-116 -47.5t-129 -15q-88 0 -152 20zM492 -39l1007 1595l92 -61l-1007 -1593zM1143 274l12 103q6 13 34 58.5t81.5 126.5t105.5 149q44 59 94.5 120.5 t87.5 104.5t39 45h97l-72 -582h121l-14 -125h-121l-33 -274h-139l32 274h-325zM1313 399h170l39 314q-135 -186 -209 -314z" />
<glyph unicode="&#xbf;" horiz-adv-x="829" d="M59 -233q9 74 40 143.5t60.5 114t97 107t98.5 87t117 88.5q8 7 13 10.5t12 9t13 9.5l-25 168l146 35l39 -254q-29 -21 -74 -51.5t-73 -50t-66 -48.5t-62.5 -53t-52.5 -58t-45.5 -68t-32 -78.5t-20.5 -94.5q-2 -10 -2 -27q0 -61 40 -103t99 -42q38 0 64 2t57.5 9.5 t50.5 22t32 42t13 65.5q0 4 -6 64h160q12 -43 12 -88q0 -62 -28 -108.5t-69.5 -72.5t-100 -42.5t-109 -21.5t-107.5 -5q-124 0 -207.5 70t-83.5 190v29zM449 807q0 58 45.5 101.5t105.5 43.5q49 0 86 -33t37 -83q0 -59 -46 -104.5t-106 -45.5q-50 0 -86 35t-36 86z" />
<glyph unicode="&#xc0;" horiz-adv-x="1124" d="M14 0l686 1380h86l324 -1380h-172l-84 365h-502l-182 -365h-156zM416 500h407l-127 571zM481 1827h160l166 -379h-113z" />
<glyph unicode="&#xc1;" horiz-adv-x="1124" d="M14 0l686 1380h86l324 -1380h-172l-84 365h-502l-182 -365h-156zM416 500h407l-127 571zM670 1423l262 379h160l-308 -379h-114z" />
<glyph unicode="&#xc2;" horiz-adv-x="1124" d="M14 0l686 1380h86l324 -1380h-172l-84 365h-502l-182 -365h-156zM416 500h407l-127 571zM469 1395l274 364h107l197 -364h-125l-140 219l-198 -219h-115z" />
<glyph unicode="&#xc3;" horiz-adv-x="1124" d="M14 0l686 1380h86l324 -1380h-172l-84 365h-502l-182 -365h-156zM397 1556q152 123 271 123q39 0 73 -16.5t55 -35.5t55 -35.5t73 -16.5q18 0 43 9.5t38.5 17t46 27.5t35.5 22l46 -80q-140 -115 -263 -115q-47 0 -84 15.5t-57 33.5t-52 33.5t-69 15.5q-10 0 -24.5 -4.5 t-27 -9.5t-31.5 -15t-29 -16t-28.5 -17t-21.5 -13zM416 500h407l-127 571z" />
<glyph unicode="&#xc4;" horiz-adv-x="1124" d="M14 0l686 1380h86l324 -1380h-172l-84 365h-502l-182 -365h-156zM416 500h407l-127 571zM502 1534q0 47 35 84t81 37q41 0 68 -27t27 -67q0 -47 -36 -82t-85 -35q-38 0 -64 26t-26 64zM834 1534q0 47 35 84t81 37q41 0 67.5 -27t26.5 -67q0 -47 -35.5 -82t-84.5 -35 q-38 0 -64 26t-26 64z" />
<glyph unicode="&#xc5;" horiz-adv-x="1124" d="M14 0l686 1380h86l324 -1380h-172l-84 365h-502l-182 -365h-156zM416 500h407l-127 571zM582 1583q0 93 63 160t156 67q76 0 127 -49t51 -123q-1 -92 -67.5 -156.5t-157.5 -64.5q-73 0 -122.5 46.5t-49.5 119.5zM664 1599q0 -41 28.5 -69.5t71.5 -28.5q51 0 90.5 37.5 t40.5 89.5q0 42 -30 70t-72 28q-51 0 -90 -38t-39 -89z" />
<glyph unicode="&#xc6;" horiz-adv-x="1699" d="M14 0l901 1350h809l-77 -140h-500l-57 -454h481l-17 -140h-481l-57 -477h555l31 -139h-764l49 410h-430l-275 -410h-168zM547 547h358l80 659z" />
<glyph unicode="&#xc7;" horiz-adv-x="1224" d="M172 600q0 216 94 392.5t263.5 278t381.5 101.5q43 0 83 -2t100 -11t103 -24.5t74.5 -46t31.5 -71.5q0 -22 -13 -76h-157q0 94 -248 94q-98 0 -183 -34t-146.5 -93t-106 -138t-67 -169.5t-24.5 -186.5q0 -106 24 -195t72 -158t127.5 -107.5t184.5 -38.5q217 0 389 84 l33 -133q-200 -83 -416 -89l-65 -92q65 0 117.5 -30.5t52.5 -90.5q0 -59 -39.5 -102t-92.5 -61.5t-110 -18.5q-55 0 -87.5 6t-76.5 25l59 92q39 -20 99 -20q25 0 47.5 4.5t42.5 20.5t20 42q0 70 -184 70l113 158q-157 17 -271 105t-169.5 220.5t-55.5 294.5z" />
<glyph unicode="&#xc8;" horiz-adv-x="1069" d="M209 0l166 1350h719l-74 -140h-502l-55 -454h479l-16 -140h-482l-57 -477h555l31 -139h-764zM512 1827h160l166 -379h-113z" />
<glyph unicode="&#xc9;" horiz-adv-x="1069" d="M209 0l166 1350h719l-74 -140h-502l-55 -454h479l-16 -140h-482l-57 -477h555l31 -139h-764zM692 1423l262 379h160l-307 -379h-115z" />
<glyph unicode="&#xca;" horiz-adv-x="1069" d="M209 0l166 1350h719l-74 -140h-502l-55 -454h479l-16 -140h-482l-57 -477h555l31 -139h-764zM463 1417l274 365h107l196 -365h-125l-139 219l-198 -219h-115z" />
<glyph unicode="&#xcb;" horiz-adv-x="1069" d="M209 0l166 1350h719l-74 -140h-502l-55 -454h479l-16 -140h-482l-57 -477h555l31 -139h-764zM475 1534q0 47 35.5 84t81.5 37q41 0 67.5 -27t26.5 -67q0 -47 -36 -82t-85 -35q-38 0 -64 26t-26 64zM854 1534q0 47 35.5 84t81.5 37q41 0 67.5 -27t26.5 -67q0 -47 -36 -82 t-85 -35q-38 0 -64 26t-26 64z" />
<glyph unicode="&#xcc;" horiz-adv-x="579" d="M209 0l168 1350h160l-166 -1350h-162zM223 1827h160l166 -379h-113z" />
<glyph unicode="&#xcd;" horiz-adv-x="579" d="M209 0l168 1350h160l-166 -1350h-162zM375 1423l262 379h160l-308 -379h-114z" />
<glyph unicode="&#xce;" horiz-adv-x="579" d="M176 1397l275 364h106l197 -364h-125l-140 219l-198 -219h-115zM209 0l168 1350h160l-166 -1350h-162z" />
<glyph unicode="&#xcf;" horiz-adv-x="579" d="M209 0l168 1350h160l-166 -1350h-162zM209 1534q0 47 35.5 84t81.5 37q41 0 67.5 -27t26.5 -67q0 -47 -36 -82t-85 -35q-38 0 -64 26t-26 64zM541 1534q0 47 35 84t81 37q41 0 68 -27t27 -67q0 -47 -36 -82t-85 -35q-38 0 -64 26t-26 64z" />
<glyph unicode="&#xd0;" horiz-adv-x="1433" d="M59 639l13 100h227l76 607q184 12 274 12q35 0 106 -1t107 -1q273 0 419 -164t146 -440q-3 -215 -99.5 -386.5t-267.5 -268.5t-386 -97h-465l78 639h-228zM385 127h272q275 0 428 165t158 441q0 104 -25.5 192t-76.5 156t-134.5 106t-191.5 38q-97 0 -297 -4l-57 -482 h293l-13 -100h-295z" />
<glyph unicode="&#xd1;" horiz-adv-x="1486" d="M209 0l168 1350h180l592 -1131l139 1131h152l-168 -1350h-180l-592 1128l-140 -1128h-151zM598 1556q152 123 270 123q39 0 73 -16.5t55 -35.5t55 -35.5t73 -16.5q15 0 31.5 5t36 15t33 17.5t35 21t28.5 17.5l45 -80q-140 -115 -262 -115q-47 0 -84 15.5t-57 33.5 t-52 33.5t-69 15.5q-10 0 -24.5 -4.5t-27 -9.5t-31.5 -15t-29 -16t-28.5 -17t-21.5 -13z" />
<glyph unicode="&#xd2;" horiz-adv-x="1478" d="M174 580q0 154 56.5 299t153 255.5t235 177t292.5 66.5q176 0 304.5 -83t191.5 -221.5t63 -313.5q-2 -151 -58.5 -294t-151 -252.5t-231.5 -176t-290 -66.5q-171 0 -300.5 81t-197 218.5t-67.5 309.5zM358 598q0 -100 23 -185.5t70 -154t125 -108t180 -39.5q120 0 222 57 t167.5 149.5t102 205.5t38.5 229q0 98 -22 183t-67.5 154.5t-122.5 109.5t-179 40q-99 0 -185.5 -36.5t-149 -99t-108.5 -144.5t-69 -174t-25 -187zM694 1827h160l166 -379h-113z" />
<glyph unicode="&#xd3;" horiz-adv-x="1478" d="M174 580q0 154 56.5 299t153 255.5t235 177t292.5 66.5q176 0 304.5 -83t191.5 -221.5t63 -313.5q-2 -151 -58.5 -294t-151 -252.5t-231.5 -176t-290 -66.5q-171 0 -300.5 81t-197 218.5t-67.5 309.5zM358 598q0 -100 23 -185.5t70 -154t125 -108t180 -39.5q120 0 222 57 t167.5 149.5t102 205.5t38.5 229q0 98 -22 183t-67.5 154.5t-122.5 109.5t-179 40q-99 0 -185.5 -36.5t-149 -99t-108.5 -144.5t-69 -174t-25 -187zM868 1423l262 379h160l-307 -379h-115z" />
<glyph unicode="&#xd4;" horiz-adv-x="1478" d="M174 580q0 154 56.5 299t153 255.5t235 177t292.5 66.5q176 0 304.5 -83t191.5 -221.5t63 -313.5q-2 -151 -58.5 -294t-151 -252.5t-231.5 -176t-290 -66.5q-171 0 -300.5 81t-197 218.5t-67.5 309.5zM358 598q0 -100 23 -185.5t70 -154t125 -108t180 -39.5q120 0 222 57 t167.5 149.5t102 205.5t38.5 229q0 98 -22 183t-67.5 154.5t-122.5 109.5t-179 40q-99 0 -185.5 -36.5t-149 -99t-108.5 -144.5t-69 -174t-25 -187zM657 1419l275 365h106l197 -365h-125l-139 219l-199 -219h-115z" />
<glyph unicode="&#xd5;" horiz-adv-x="1478" d="M174 580q0 154 56.5 299t153 255.5t235 177t292.5 66.5q176 0 304.5 -83t191.5 -221.5t63 -313.5q-2 -151 -58.5 -294t-151 -252.5t-231.5 -176t-290 -66.5q-171 0 -300.5 81t-197 218.5t-67.5 309.5zM358 598q0 -100 23 -185.5t70 -154t125 -108t180 -39.5q120 0 222 57 t167.5 149.5t102 205.5t38.5 229q0 98 -22 183t-67.5 154.5t-122.5 109.5t-179 40q-99 0 -185.5 -36.5t-149 -99t-108.5 -144.5t-69 -174t-25 -187zM608 1556q152 123 271 123q39 0 73 -16.5t55 -35.5t55 -35.5t73 -16.5q18 0 43 9.5t38.5 17t46 27.5t35.5 22l45 -80 q-140 -115 -262 -115q-47 0 -84 15.5t-57 33.5t-52 33.5t-69 15.5q-10 0 -24.5 -4.5t-27 -9.5t-31.5 -15t-29 -16t-28.5 -17t-21.5 -13z" />
<glyph unicode="&#xd6;" horiz-adv-x="1478" d="M174 580q0 154 56.5 299t153 255.5t235 177t292.5 66.5q176 0 304.5 -83t191.5 -221.5t63 -313.5q-2 -151 -58.5 -294t-151 -252.5t-231.5 -176t-290 -66.5q-171 0 -300.5 81t-197 218.5t-67.5 309.5zM358 598q0 -100 23 -185.5t70 -154t125 -108t180 -39.5q120 0 222 57 t167.5 149.5t102 205.5t38.5 229q0 98 -22 183t-67.5 154.5t-122.5 109.5t-179 40q-99 0 -185.5 -36.5t-149 -99t-108.5 -144.5t-69 -174t-25 -187zM618 1534q0 47 35.5 84t81.5 37q41 0 67.5 -27t26.5 -67q0 -47 -35.5 -82t-84.5 -35q-38 0 -64.5 26t-26.5 64zM1094 1534 q0 47 35 84t81 37q41 0 68 -27t27 -67q0 -47 -36 -82t-85 -35q-38 0 -64 26t-26 64z" />
<glyph unicode="&#xd7;" d="M39 76l430 389l-346 387l110 100l347 -387l426 387l90 -100l-428 -385l348 -389l-109 -101l-348 390l-430 -390z" />
<glyph unicode="&#xd8;" horiz-adv-x="1478" d="M92 16l187 189q-105 161 -105 377q0 154 57 299t153.5 254.5t235 176t291.5 66.5q232 0 381 -143l178 180l82 -80l-184 -188q102 -151 102 -365q0 -155 -54.5 -301.5t-149 -259.5t-232.5 -181.5t-295 -68.5q-233 0 -387 148l-180 -182zM358 598q0 -151 50 -262l768 780 q-102 123 -281 123q-99 0 -185.5 -36.5t-149 -99t-108.5 -144.5t-69 -174t-25 -187zM469 236q101 -125 287 -125q120 0 222 57t167.5 149.5t102 205.5t38.5 229q0 152 -49 264z" />
<glyph unicode="&#xd9;" horiz-adv-x="1355" d="M223 358q0 30 6 60l115 932h160l-109 -875q-4 -36 -4 -57q0 -149 74 -226t219 -77q342 0 393 362q24 170 62 485t47 388h160q-10 -77 -47.5 -394t-61.5 -487q-68 -494 -580 -494q-90 0 -167.5 24.5t-137.5 71t-94.5 120.5t-34.5 167zM618 1827h160l166 -379h-113z" />
<glyph unicode="&#xda;" horiz-adv-x="1355" d="M223 358q0 30 6 60l115 932h160l-109 -875q-4 -36 -4 -57q0 -149 74 -226t219 -77q342 0 393 362q24 170 62 485t47 388h160q-10 -77 -47.5 -394t-61.5 -487q-68 -494 -580 -494q-90 0 -167.5 24.5t-137.5 71t-94.5 120.5t-34.5 167zM786 1423l263 379h159l-307 -379 h-115z" />
<glyph unicode="&#xdb;" horiz-adv-x="1355" d="M223 358q0 30 6 60l115 932h160l-109 -875q-4 -36 -4 -57q0 -149 74 -226t219 -77q342 0 393 362q24 170 62 485t47 388h160q-10 -77 -47.5 -394t-61.5 -487q-68 -494 -580 -494q-90 0 -167.5 24.5t-137.5 71t-94.5 120.5t-34.5 167zM555 1397l274 364h107l197 -364h-125 l-140 219l-198 -219h-115z" />
<glyph unicode="&#xdc;" horiz-adv-x="1355" d="M223 358q0 30 6 60l115 932h160l-109 -875q-4 -36 -4 -57q0 -149 74 -226t219 -77q342 0 393 362q24 170 62 485t47 388h160q-10 -77 -47.5 -394t-61.5 -487q-68 -494 -580 -494q-90 0 -167.5 24.5t-137.5 71t-94.5 120.5t-34.5 167zM522 1534q0 47 35.5 84t81.5 37 q41 0 67.5 -27t26.5 -67q0 -47 -36 -82t-85 -35q-38 0 -64 26t-26 64zM1018 1534q0 47 35.5 84t81.5 37q41 0 67.5 -27t26.5 -67q0 -47 -36 -82t-85 -35q-38 0 -64 26t-26 64z" />
<glyph unicode="&#xdd;" horiz-adv-x="1054" d="M176 1262l47 131q76 0 151.5 -66.5t129.5 -165.5t90 -212.5t43 -209.5q28 84 75 175.5t108.5 176.5t128 152.5t138.5 108.5t134 41l10 -131q-48 0 -114 -43.5t-136.5 -125.5t-134.5 -187t-114 -240.5t-70 -272.5q-44 -311 -56 -393h-160q14 100 23 165t33 234 q12 82 12 160q0 142 -34.5 276.5t-86 225.5t-110 146t-107.5 55zM645 1403l262 379h160l-307 -379h-115z" />
<glyph unicode="&#xde;" horiz-adv-x="1103" d="M209 0l168 1350h160l-33 -263q129 3 260 3q167 0 270 -97.5t103 -261.5q-2 -131 -68.5 -240.5t-178 -172t-241.5 -62.5q-55 0 -110 12l16 131q48 -10 88 -10q142 0 226.5 97t84.5 241q0 122 -66.5 175.5t-193.5 53.5q-35 0 -104 -1t-103 -1l-116 -954h-162z" />
<glyph unicode="&#xdf;" horiz-adv-x="1083" d="M-309 -418q0 54 26 111h133q-6 -30 -6 -33q0 -26 27 -36.5t59 -10.5q61 0 95 10q37 12 68 48.5t49.5 85t29.5 92.5t16 85l144 1133q13 102 41.5 180t78.5 139.5t128.5 94t183.5 32.5q57 0 104 -6.5t92 -24t76 -45.5t49.5 -74.5t18.5 -107.5q0 -82 -20 -145t-52 -99.5 t-71 -64t-77.5 -47.5t-70.5 -40.5t-52 -52.5t-20 -75q0 -37 35 -78t85.5 -81t101 -84t85.5 -101t35 -117q0 -128 -94.5 -210.5t-224.5 -82.5q-30 0 -51 1t-56.5 4t-60.5 11.5t-50.5 21.5t-38.5 35.5t-13 51.5q0 55 32 101h146q-8 -28 -8 -41q0 -70 110 -70q67 0 103 46.5 t36 115.5q0 35 -24 70.5t-60.5 64.5t-79 65t-79 70.5t-60.5 82.5t-24 100q0 48 17.5 87t45.5 65t62.5 49t71 46t67.5 48t54 62t30 83q6 43 6 84q0 73 -40.5 115.5t-113.5 42.5q-30 0 -81 -5.5t-70 -13.5q-49 -21 -80.5 -64.5t-43.5 -86.5t-19 -103l-125 -979 q-29 -227 -53 -318q-58 -213 -198 -290q-95 -53 -235 -53q-31 0 -59.5 4t-60 14t-51 33t-19.5 55z" />
<glyph unicode="&#xe0;" horiz-adv-x="974" d="M139 324q0 84 16.5 169t53 168.5t88.5 147.5t130 103.5t171 39.5q48 0 98 -17.5t86 -49.5l27 69h131q-8 -71 -39.5 -317.5t-44.5 -380.5q-8 -68 -8 -152q0 -34 4 -104h-150q-4 62 -4 92q0 65 11 162q-69 -125 -170.5 -203t-229.5 -78q-43 0 -75 26.5t-49.5 64.5t-28.5 89 t-14 91t-3 80zM311 332q0 -211 97 -211q58 0 119.5 55t106 133t75.5 156.5t39 132.5q8 49 16 139q-34 47 -75 62.5t-107 15.5h-23q-54 0 -70 -10q-60 -31 -102.5 -123t-59 -183t-16.5 -167zM358 1481h174l191 -414h-123z" />
<glyph unicode="&#xe1;" horiz-adv-x="974" d="M139 324q0 84 16.5 169t53 168.5t88.5 147.5t130 103.5t171 39.5q48 0 98 -17.5t86 -49.5l27 69h131q-8 -71 -39.5 -317.5t-44.5 -380.5q-8 -68 -8 -152q0 -34 4 -104h-150q-4 62 -4 92q0 65 11 162q-69 -125 -170.5 -203t-229.5 -78q-43 0 -75 26.5t-49.5 64.5t-28.5 89 t-14 91t-3 80zM311 332q0 -211 97 -211q58 0 119.5 55t106 133t75.5 156.5t39 132.5q8 49 16 139q-34 47 -75 62.5t-107 15.5h-23q-54 0 -70 -10q-60 -31 -102.5 -123t-59 -183t-16.5 -167zM528 1067l277 414h174l-328 -414h-123z" />
<glyph unicode="&#xe2;" horiz-adv-x="974" d="M139 324q0 84 16.5 169t53 168.5t88.5 147.5t130 103.5t171 39.5q48 0 98 -17.5t86 -49.5l27 69h131q-8 -71 -39.5 -317.5t-44.5 -380.5q-8 -68 -8 -152q0 -34 4 -104h-150q-4 62 -4 92q0 65 11 162q-69 -125 -170.5 -203t-229.5 -78q-43 0 -75 26.5t-49.5 64.5t-28.5 89 t-14 91t-3 80zM311 332q0 -211 97 -211q58 0 119.5 55t106 133t75.5 156.5t39 132.5q8 49 16 139q-34 47 -75 62.5t-107 15.5h-23q-54 0 -70 -10q-60 -31 -102.5 -123t-59 -183t-16.5 -167zM313 1073l293 393h115l219 -393h-135l-154 238l-213 -238h-125z" />
<glyph unicode="&#xe3;" horiz-adv-x="974" d="M139 324q0 84 16.5 169t53 168.5t88.5 147.5t130 103.5t171 39.5q48 0 98 -17.5t86 -49.5l27 69h131q-8 -71 -39.5 -317.5t-44.5 -380.5q-8 -68 -8 -152q0 -34 4 -104h-150q-4 62 -4 92q0 65 11 162q-69 -125 -170.5 -203t-229.5 -78q-43 0 -75 26.5t-49.5 64.5t-28.5 89 t-14 91t-3 80zM229 1182q162 135 293 135q44 0 81 -18t60 -39.5t60 -39.5t80 -18q16 0 34 5.5t39 16.5t35.5 19.5t37.5 23.5t30 19l51 -88q-71 -59 -138.5 -92t-143.5 -33q-44 0 -78 11t-55.5 26.5t-42 31.5t-48.5 27t-63 11q-42 0 -176 -82zM311 332q0 -211 97 -211 q58 0 119.5 55t106 133t75.5 156.5t39 132.5q8 49 16 139q-34 47 -75 62.5t-107 15.5h-23q-54 0 -70 -10q-60 -31 -102.5 -123t-59 -183t-16.5 -167z" />
<glyph unicode="&#xe4;" horiz-adv-x="974" d="M139 324q0 84 16.5 169t53 168.5t88.5 147.5t130 103.5t171 39.5q48 0 98 -17.5t86 -49.5l27 69h131q-8 -71 -39.5 -317.5t-44.5 -380.5q-8 -68 -8 -152q0 -34 4 -104h-150q-4 62 -4 92q0 65 11 162q-69 -125 -170.5 -203t-229.5 -78q-43 0 -75 26.5t-49.5 64.5t-28.5 89 t-14 91t-3 80zM311 332q0 -211 97 -211q58 0 119.5 55t106 133t75.5 156.5t39 132.5q8 49 16 139q-34 47 -75 62.5t-107 15.5h-23q-54 0 -70 -10q-60 -31 -102.5 -123t-59 -183t-16.5 -167zM365 1176q0 53 37 93t90 40q42 0 72 -31t30 -74q0 -51 -38 -89t-89 -38 q-43 0 -72.5 29t-29.5 70zM727 1176q0 53 37 93t90 40q42 0 72 -31t30 -74q0 -51 -38 -89t-89 -38q-43 0 -72.5 29t-29.5 70z" />
<glyph unicode="&#xe5;" horiz-adv-x="974" d="M139 324q0 84 16.5 169t53 168.5t88.5 147.5t130 103.5t171 39.5q48 0 98 -17.5t86 -49.5l27 69h131q-8 -71 -39.5 -317.5t-44.5 -380.5q-8 -68 -8 -152q0 -34 4 -104h-150q-4 62 -4 92q0 65 11 162q-69 -125 -170.5 -203t-229.5 -78q-43 0 -75 26.5t-49.5 64.5t-28.5 89 t-14 91t-3 80zM311 332q0 -211 97 -211q58 0 119.5 55t106 133t75.5 156.5t39 132.5q8 49 16 139q-34 47 -75 62.5t-107 15.5h-23q-54 0 -70 -10q-60 -31 -102.5 -123t-59 -183t-16.5 -167zM444 1231q0 99 68.5 171.5t167.5 72.5q81 0 140 -54.5t59 -134.5q0 -99 -72.5 -169 t-171.5 -70q-80 0 -135.5 52t-55.5 132zM535 1245q0 -45 32.5 -76.5t77.5 -31.5q56 0 98.5 41t42.5 96q0 46 -34 77t-80 31q-56 0 -96.5 -41t-40.5 -96z" />
<glyph unicode="&#xe6;" horiz-adv-x="1366" d="M139 324q0 84 16.5 169.5t53 168.5t88.5 147t129.5 103.5t169.5 39.5q143 0 184 -98l29 100h131l-29 -114q99 112 260 112q209 0 209 -145q0 -73 -35 -134.5t-84.5 -101.5t-123.5 -74t-131.5 -52t-128.5 -35q0 -8 -1.5 -25t-1.5 -25q0 -245 136 -245q115 0 254 180 l92 -68q-44 -54 -73.5 -86t-71.5 -68t-80.5 -55t-91.5 -32t-115 -13q-56 0 -97 26.5t-64 71.5t-34.5 91.5t-15.5 99.5q-159 -289 -404 -289q-43 0 -75.5 26.5t-50 64.5t-28 89.5t-13.5 90.5t-3 80zM309 338q0 -217 97 -217q47 0 96.5 36.5t88.5 92t72.5 121.5t54 125 t27.5 102q3 17 7 34t6 30t4 34q-25 119 -180 119q-72 0 -95 -10q-61 -31 -112 -148.5t-60 -203.5q-6 -56 -6 -115zM889 530q46 12 96 30t108 47t95 69.5t37 85.5q0 57 -84 57q-79 0 -105 -18q-63 -41 -99 -113.5t-48 -157.5z" />
<glyph unicode="&#xe7;" horiz-adv-x="776" d="M131 -420l64 101q46 -25 106 -25q28 0 52.5 5t45.5 23t21 46q0 19 -10 32.5t-31.5 21.5t-38 12.5t-47 6.5t-40 2h-34.5l115 168q-48 5 -84 33t-56 65.5t-32 89t-15.5 93.5t-3.5 88q0 85 16 169.5t52.5 164.5t88.5 141t130 98t172 37q33 0 64 -4t66.5 -14.5t57 -33.5 t21.5 -56q0 -58 -27 -107h-133q8 24 8 39q0 45 -86 45q-73 0 -104 -20q-44 -28 -76 -80t-48.5 -114.5t-24 -121t-7.5 -114.5q0 -41 4 -77.5t16 -81t40 -71t69 -26.5q85 0 228 180l94 -68q-45 -55 -66.5 -79t-63.5 -64.5t-83.5 -63t-89.5 -34.5l-78 -111q44 0 84 -12.5 t71 -44t31 -76.5q0 -64 -41.5 -110t-99 -65.5t-119.5 -19.5q-59 0 -93 6t-85 27z" />
<glyph unicode="&#xe8;" horiz-adv-x="800" d="M143 346q0 48 7 113q11 95 46 181.5t90.5 157t138.5 112.5t181 42q209 0 209 -147q0 -52 -18 -98t-46.5 -81t-71.5 -66t-85.5 -52.5t-96.5 -41.5t-95 -32t-91 -24q-2 -16 -2 -50q0 -245 135 -245q115 0 254 180l93 -68q-43 -53 -73.5 -85.5t-72.5 -68.5t-81.5 -55.5 t-92.5 -32t-115 -12.5q-53 0 -92.5 26t-62 64.5t-36.5 91.5t-18 98t-4 93zM307 1481h174l191 -414h-123zM324 530q46 12 96 30t107.5 47t94.5 69.5t37 85.5q0 57 -86 57q-76 0 -104 -18q-118 -78 -145 -271z" />
<glyph unicode="&#xe9;" horiz-adv-x="800" d="M143 346q0 48 7 113q11 95 46 181.5t90.5 157t138.5 112.5t181 42q209 0 209 -147q0 -52 -18 -98t-46.5 -81t-71.5 -66t-85.5 -52.5t-96.5 -41.5t-95 -32t-91 -24q-2 -16 -2 -50q0 -245 135 -245q115 0 254 180l93 -68q-43 -53 -73.5 -85.5t-72.5 -68.5t-81.5 -55.5 t-92.5 -32t-115 -12.5q-53 0 -92.5 26t-62 64.5t-36.5 91.5t-18 98t-4 93zM324 530q46 12 96 30t107.5 47t94.5 69.5t37 85.5q0 57 -86 57q-76 0 -104 -18q-118 -78 -145 -271zM543 1067l276 414h174l-327 -414h-123z" />
<glyph unicode="&#xea;" horiz-adv-x="800" d="M143 346q0 48 7 113q11 95 46 181.5t90.5 157t138.5 112.5t181 42q209 0 209 -147q0 -52 -18 -98t-46.5 -81t-71.5 -66t-85.5 -52.5t-96.5 -41.5t-95 -32t-91 -24q-2 -16 -2 -50q0 -245 135 -245q115 0 254 180l93 -68q-43 -53 -73.5 -85.5t-72.5 -68.5t-81.5 -55.5 t-92.5 -32t-115 -12.5q-53 0 -92.5 26t-62 64.5t-36.5 91.5t-18 98t-4 93zM274 1073l293 393h115l219 -393h-135l-154 238l-213 -238h-125zM324 530q46 12 96 30t107.5 47t94.5 69.5t37 85.5q0 57 -86 57q-76 0 -104 -18q-118 -78 -145 -271z" />
<glyph unicode="&#xeb;" horiz-adv-x="800" d="M143 346q0 48 7 113q11 95 46 181.5t90.5 157t138.5 112.5t181 42q209 0 209 -147q0 -52 -18 -98t-46.5 -81t-71.5 -66t-85.5 -52.5t-96.5 -41.5t-95 -32t-91 -24q-2 -16 -2 -50q0 -245 135 -245q115 0 254 180l93 -68q-43 -53 -73.5 -85.5t-72.5 -68.5t-81.5 -55.5 t-92.5 -32t-115 -12.5q-53 0 -92.5 26t-62 64.5t-36.5 91.5t-18 98t-4 93zM324 530q46 12 96 30t107.5 47t94.5 69.5t37 85.5q0 57 -86 57q-76 0 -104 -18q-118 -78 -145 -271zM328 1176q0 53 37 93t90 40q42 0 72 -31t30 -74q0 -51 -38 -89t-89 -38q-43 0 -72.5 29 t-29.5 70zM688 1176q0 53 37 93t90 40q43 0 73 -31t30 -74q0 -51 -38 -89t-89 -38q-43 0 -73 29t-30 70z" />
<glyph unicode="&#xec;" horiz-adv-x="477" d="M102 1481h174l191 -414h-123zM166 0l110 928h152l-113 -928h-149z" />
<glyph unicode="&#xed;" horiz-adv-x="477" d="M166 0l110 928h152l-113 -928h-149zM272 1067l277 414h174l-328 -414h-123z" />
<glyph unicode="&#xee;" horiz-adv-x="477" d="M57 1073l293 393h115l219 -393h-135l-154 238l-213 -238h-125zM166 0l110 928h152l-113 -928h-149z" />
<glyph unicode="&#xef;" horiz-adv-x="477" d="M104 1176q0 53 37 93t90 40q43 0 73 -31t30 -74q0 -51 -38 -89t-89 -38q-43 0 -73 29t-30 70zM166 0l110 928h152l-113 -928h-149zM440 1176q0 53 37 93t90 40q43 0 73 -31t30 -74q0 -51 -38 -89t-89 -38q-43 0 -73 29t-30 70z" />
<glyph unicode="&#xf0;" horiz-adv-x="1030" d="M141 399q0 26 4 76q9 80 46 165t93 157t134.5 118t161.5 46q77 0 137 -20.5t127 -66.5q-25 178 -117 306l-154 -119l-69 88l155 115q-91 97 -192 149l90 113q50 -26 88 -55.5t60 -51.5t71 -76l203 148l68 -90l-197 -139q156 -190 156 -555q0 -111 -13 -209.5t-49 -197.5 t-92 -169.5t-149 -115t-214 -44.5q-88 0 -156.5 35.5t-109.5 96.5t-61.5 136t-20.5 160zM319 385q0 -47 7 -89.5t23.5 -85.5t50.5 -69t83 -26q72 0 127 21.5t90.5 56t60.5 87.5t38 105.5t22 120.5q21 170 23 239q-62 34 -108.5 48t-110.5 14q-78 0 -139.5 -39.5t-96.5 -103 t-52.5 -135t-17.5 -144.5z" />
<glyph unicode="&#xf1;" horiz-adv-x="1007" d="M166 0q64 525 84 709q12 114 18 219h125l2 -183q51 99 142.5 153t205.5 54q106 0 152.5 -52t46.5 -159q0 -53 -12 -155q-13 -122 -72 -586h-149q9 78 33 258t34 277q12 94 12 137q0 68 -21.5 102.5t-84.5 34.5q-28 0 -72.5 -7t-62.5 -18q-16 -12 -45 -45 q-63 -69 -94.5 -149t-42.5 -182l-50 -408h-149zM281 1182q162 135 292 135q44 0 81 -18t60 -39.5t60 -39.5t80 -18q16 0 34 5.5t39 16.5t35.5 19.5t37.5 23.5t30 19l51 -88q-71 -59 -138.5 -92t-143.5 -33q-44 0 -78 11t-55.5 26.5t-42 31.5t-48.5 27t-63 11q-42 0 -176 -82 z" />
<glyph unicode="&#xf2;" horiz-adv-x="956" d="M143 371q0 77 19 158t58 156.5t92 135t127.5 95.5t158.5 36q85 0 151 -33t105 -90.5t58.5 -128.5t19.5 -153q0 -98 -31 -198t-86.5 -184.5t-143.5 -138t-192 -53.5q-84 0 -149.5 32t-105.5 88t-60.5 126.5t-20.5 151.5zM311 350q0 -248 183 -248q80 0 116 23 q51 34 88 119.5t52.5 170t15.5 152.5q0 258 -182 258q-27 0 -64.5 -8t-56.5 -20q-72 -53 -112 -192t-40 -255zM358 1481h174l191 -414h-123z" />
<glyph unicode="&#xf3;" horiz-adv-x="956" d="M143 371q0 77 19 158t58 156.5t92 135t127.5 95.5t158.5 36q85 0 151 -33t105 -90.5t58.5 -128.5t19.5 -153q0 -98 -31 -198t-86.5 -184.5t-143.5 -138t-192 -53.5q-84 0 -149.5 32t-105.5 88t-60.5 126.5t-20.5 151.5zM311 350q0 -248 183 -248q80 0 116 23 q51 34 88 119.5t52.5 170t15.5 152.5q0 258 -182 258q-27 0 -64.5 -8t-56.5 -20q-72 -53 -112 -192t-40 -255zM528 1067l277 414h174l-328 -414h-123z" />
<glyph unicode="&#xf4;" horiz-adv-x="956" d="M143 371q0 77 19 158t58 156.5t92 135t127.5 95.5t158.5 36q85 0 151 -33t105 -90.5t58.5 -128.5t19.5 -153q0 -98 -31 -198t-86.5 -184.5t-143.5 -138t-192 -53.5q-84 0 -149.5 32t-105.5 88t-60.5 126.5t-20.5 151.5zM311 350q0 -248 183 -248q80 0 116 23 q51 34 88 119.5t52.5 170t15.5 152.5q0 258 -182 258q-27 0 -64.5 -8t-56.5 -20q-72 -53 -112 -192t-40 -255zM324 1073l292 393h115l219 -393h-135l-153 238l-213 -238h-125z" />
<glyph unicode="&#xf5;" horiz-adv-x="956" d="M143 371q0 77 19 158t58 156.5t92 135t127.5 95.5t158.5 36q85 0 151 -33t105 -90.5t58.5 -128.5t19.5 -153q0 -98 -31 -198t-86.5 -184.5t-143.5 -138t-192 -53.5q-84 0 -149.5 32t-105.5 88t-60.5 126.5t-20.5 151.5zM229 1182q162 135 293 135q44 0 81 -18t60 -39.5 t60 -39.5t80 -18q16 0 34 5.5t39 16.5t35.5 19.5t37.5 23.5t30 19l51 -88q-71 -59 -138.5 -92t-143.5 -33q-44 0 -78 11t-55.5 26.5t-42 31.5t-48.5 27t-63 11q-42 0 -176 -82zM311 350q0 -248 183 -248q80 0 116 23q51 34 88 119.5t52.5 170t15.5 152.5q0 258 -182 258 q-27 0 -64.5 -8t-56.5 -20q-72 -53 -112 -192t-40 -255z" />
<glyph unicode="&#xf6;" horiz-adv-x="956" d="M143 371q0 77 19 158t58 156.5t92 135t127.5 95.5t158.5 36q85 0 151 -33t105 -90.5t58.5 -128.5t19.5 -153q0 -98 -31 -198t-86.5 -184.5t-143.5 -138t-192 -53.5q-84 0 -149.5 32t-105.5 88t-60.5 126.5t-20.5 151.5zM311 350q0 -248 183 -248q80 0 116 23 q51 34 88 119.5t52.5 170t15.5 152.5q0 258 -182 258q-27 0 -64.5 -8t-56.5 -20q-72 -53 -112 -192t-40 -255zM338 1176q0 53 37 93t90 40q42 0 72 -31t30 -74q0 -51 -38 -89t-89 -38q-43 0 -72.5 29t-29.5 70zM698 1176q0 53 37 93t90 40q43 0 73 -31t30 -74q0 -51 -38 -89 t-89 -38q-43 0 -73 29t-30 70z" />
<glyph unicode="&#xf7;" d="M88 393l14 142h932l-14 -142h-932zM387 94q0 59 45.5 103.5t104.5 44.5q50 0 86 -34t36 -83q0 -60 -45 -106t-104 -46q-50 0 -86.5 36t-36.5 85zM461 801q0 60 45.5 103.5t105.5 43.5q48 0 85.5 -34.5t37.5 -82.5q0 -60 -45.5 -104.5t-105.5 -44.5v-2q-50 0 -86.5 36 t-36.5 85z" />
<glyph unicode="&#xf8;" horiz-adv-x="956" d="M35 -123l180 229q-72 110 -72 265q0 77 19 158t58 156.5t92 135t127.5 95.5t158.5 36q126 0 213 -73l160 206l71 -53l-176 -225q66 -105 66 -260q0 -98 -31 -198t-86.5 -184.5t-143.5 -138t-192 -53.5q-119 0 -205 68l-170 -217zM311 350q0 -54 11 -102l397 512 q-45 65 -135 65q-26 0 -65 -8t-56 -20q-50 -41 -86 -125.5t-51 -167.5t-15 -154zM362 156q46 -54 132 -54q85 0 116 23q76 59 116 191t40 249q0 33 -8 99z" />
<glyph unicode="&#xf9;" horiz-adv-x="974" d="M164 186q0 56 6 111q13 118 40.5 334t37.5 297h149l-82 -672q-4 -28 -4 -45q0 -107 111 -107q31 0 74.5 7.5t60.5 19.5q14 9 45 45q113 131 139 344l50 408h149q-68 -554 -84 -711q-16 -144 -18 -217h-125l-2 182q-51 -100 -143.5 -155.5t-205.5 -55.5 q-107 0 -152.5 53.5t-45.5 161.5zM358 1481h174l191 -414h-123z" />
<glyph unicode="&#xfa;" horiz-adv-x="974" d="M164 186q0 56 6 111q13 118 40.5 334t37.5 297h149l-82 -672q-4 -28 -4 -45q0 -107 111 -107q31 0 74.5 7.5t60.5 19.5q14 9 45 45q113 131 139 344l50 408h149q-68 -554 -84 -711q-16 -144 -18 -217h-125l-2 182q-51 -100 -143.5 -155.5t-205.5 -55.5 q-107 0 -152.5 53.5t-45.5 161.5zM514 1067l277 414h174l-328 -414h-123z" />
<glyph unicode="&#xfb;" horiz-adv-x="974" d="M164 186q0 56 6 111q13 118 40.5 334t37.5 297h149l-82 -672q-4 -28 -4 -45q0 -107 111 -107q31 0 74.5 7.5t60.5 19.5q14 9 45 45q113 131 139 344l50 408h149q-68 -554 -84 -711q-16 -144 -18 -217h-125l-2 182q-51 -100 -143.5 -155.5t-205.5 -55.5 q-107 0 -152.5 53.5t-45.5 161.5zM301 1073l293 393h115l219 -393h-135l-154 238l-213 -238h-125z" />
<glyph unicode="&#xfc;" horiz-adv-x="974" d="M164 186q0 56 6 111q13 118 40.5 334t37.5 297h149l-82 -672q-4 -28 -4 -45q0 -107 111 -107q31 0 74.5 7.5t60.5 19.5q14 9 45 45q113 131 139 344l50 408h149q-68 -554 -84 -711q-16 -144 -18 -217h-125l-2 182q-51 -100 -143.5 -155.5t-205.5 -55.5 q-107 0 -152.5 53.5t-45.5 161.5zM338 1176q0 53 37 93t90 40q42 0 72 -31t30 -74q0 -51 -38 -89t-89 -38q-43 0 -72.5 29t-29.5 70zM698 1176q0 53 37 93t90 40q43 0 73 -31t30 -74q0 -51 -38 -89t-89 -38q-43 0 -73 29t-30 70z" />
<glyph unicode="&#xfd;" horiz-adv-x="841" d="M-252 -412q0 59 39 107h145q-12 -28 -12 -45q0 -26 22 -42t46 -20t51 -4q49 0 121.5 75t128 160.5t80.5 145.5q-14 194 -94.5 474t-174.5 489h160q81 -193 125.5 -324.5t71.5 -284.5q16 -99 16 -163q190 411 209 772h158q-8 -174 -100.5 -462.5t-227.5 -533.5 q-115 -211 -241.5 -337.5t-250.5 -126.5q-272 0 -272 120zM426 1067l276 414h175l-328 -414h-123z" />
<glyph unicode="&#xfe;" horiz-adv-x="968" d="M106 -512l66 512h-2l98 821h-145l10 74l150 25l71 575h152l-72 -561q131 16 248 16q254 0 254 -321q0 -91 -16.5 -181t-54 -176.5t-91.5 -152t-136 -106t-181 -40.5q-68 0 -133 35l-66 -520h-152zM340 162q68 -49 145 -49q64 0 115 34.5t81.5 87.5t50 121.5t27 130.5 t7.5 121q0 103 -40 161t-138 58q-111 0 -166 -2l-78 -622q-1 -7 -2 -21t-2 -20z" />
<glyph unicode="&#xff;" horiz-adv-x="841" d="M-252 -412q0 59 39 107h145q-12 -28 -12 -45q0 -26 22 -42t46 -20t51 -4q49 0 121.5 75t128 160.5t80.5 145.5q-14 194 -94.5 474t-174.5 489h160q81 -193 125.5 -324.5t71.5 -284.5q16 -99 16 -163q190 411 209 772h158q-8 -174 -100.5 -462.5t-227.5 -533.5 q-115 -211 -241.5 -337.5t-250.5 -126.5q-272 0 -272 120zM197 1176q0 53 37 93t90 40q42 0 72 -31t30 -74q0 -51 -38 -89t-89 -38q-43 0 -72.5 29t-29.5 70zM608 1176q0 53 37 93t90 40q43 0 73 -31t30 -74q0 -51 -38 -89t-89 -38q-43 0 -73 29t-30 70z" />
<glyph unicode="&#x152;" horiz-adv-x="1875" d="M174 582q0 152 60 297.5t160.5 255t242 176.5t295.5 67q64 0 149 -14t148 -14h672l-72 -140h-506l-55 -454h481l-16 -140h-482l-59 -477h561l31 -139h-721q-65 0 -152 -14.5t-151 -14.5q-172 0 -307 81t-207 220t-72 310zM358 598q0 -98 26.5 -185t76.5 -155 t131.5 -107.5t183.5 -39.5q33 0 57 0.5t51 3.5t39.5 4.5t51 7t57.5 8.5l131 1079q-23 3 -55.5 8.5t-47.5 7.5t-39 4.5t-48.5 3.5t-57.5 1q-123 0 -229 -56t-175.5 -147.5t-110 -205.5t-42.5 -232z" />
<glyph unicode="&#x153;" horiz-adv-x="1409" d="M143 371q0 77 19 158t58 156.5t92 135t127.5 95.5t158.5 36q100 0 180 -52t101 -144q44 93 136.5 144.5t198.5 51.5q209 0 209 -145v-21q-9 -60 -34.5 -110t-67 -87t-84.5 -64.5t-103 -50t-105.5 -36t-108.5 -28.5q0 -8 -1 -25t-1 -25q0 -245 135 -245q115 0 254 180 l92 -68q-44 -54 -73.5 -86t-71.5 -68t-80.5 -55t-91.5 -32t-115 -13q-73 0 -125 52.5t-58 126.5q-45 -84 -127 -131.5t-178 -47.5q-84 0 -149.5 32t-105.5 88t-60.5 126.5t-20.5 151.5zM311 350q0 -248 183 -248q80 0 116 23q51 34 88 119t52.5 169t15.5 152q0 260 -182 260 q-27 0 -64.5 -8t-56.5 -20q-72 -54 -112 -193t-40 -254zM932 530q46 12 96 30t108 47t95 69.5t37 85.5q0 57 -84 57q-79 0 -105 -18q-63 -41 -99 -113.5t-48 -157.5z" />
<glyph unicode="&#x178;" horiz-adv-x="1054" d="M176 1262l47 131q76 0 151.5 -66.5t129.5 -165.5t90 -212.5t43 -209.5q28 84 75 175.5t108.5 176.5t128 152.5t138.5 108.5t134 41l10 -131q-48 0 -114 -43.5t-136.5 -125.5t-134.5 -187t-114 -240.5t-70 -272.5q-44 -311 -56 -393h-160q14 100 23 165t33 234 q12 82 12 160q0 142 -34.5 276.5t-86 225.5t-110 146t-107.5 55zM385 1534q0 47 35.5 84t81.5 37q41 0 67.5 -27t26.5 -67q0 -47 -36 -82t-85 -35q-38 0 -64 26t-26 64zM834 1534q0 47 35 84t81 37q41 0 67.5 -27t26.5 -67q0 -47 -35.5 -82t-84.5 -35q-38 0 -64 26t-26 64z " />
<glyph unicode="&#x2c6;" horiz-adv-x="940" d="M254 1073l293 393h115l219 -393h-136l-153 238l-213 -238h-125z" />
<glyph unicode="&#x2dc;" horiz-adv-x="940" d="M170 1182q162 135 293 135q36 0 66.5 -12t52.5 -28.5t44 -33.5t52 -29t65 -12q16 0 34 5.5t39.5 16.5t35.5 19t38 23.5t30 19.5l51 -88q-71 -59 -138.5 -92t-144.5 -33q-44 0 -78 11t-55.5 26.5t-42 31.5t-48.5 27t-63 11q-42 0 -176 -82z" />
<glyph unicode="&#x2000;" horiz-adv-x="913" />
<glyph unicode="&#x2001;" horiz-adv-x="1827" />
<glyph unicode="&#x2002;" horiz-adv-x="913" />
<glyph unicode="&#x2003;" horiz-adv-x="1827" />
<glyph unicode="&#x2004;" horiz-adv-x="609" />
<glyph unicode="&#x2005;" horiz-adv-x="456" />
<glyph unicode="&#x2006;" horiz-adv-x="304" />
<glyph unicode="&#x2007;" horiz-adv-x="304" />
<glyph unicode="&#x2008;" horiz-adv-x="228" />
<glyph unicode="&#x2009;" horiz-adv-x="365" />
<glyph unicode="&#x200a;" horiz-adv-x="101" />
<glyph unicode="&#x2010;" horiz-adv-x="768" d="M170 397l16 154h514l-16 -154h-514z" />
<glyph unicode="&#x2011;" horiz-adv-x="768" d="M170 397l16 154h514l-16 -154h-514z" />
<glyph unicode="&#x2012;" horiz-adv-x="768" d="M170 397l16 154h514l-16 -154h-514z" />
<glyph unicode="&#x2013;" d="M37 397l14 142h1030l-16 -142h-1028z" />
<glyph unicode="&#x2014;" horiz-adv-x="2048" d="M37 397l14 142h2054l-16 -142h-2052z" />
<glyph unicode="&#x2018;" horiz-adv-x="460" d="M211 1122q0 176 260 406l57 -43q-48 -62 -93.5 -146t-45.5 -137q0 -36 30 -57.5t70 -28.5l-141 -174q-68 7 -102.5 58t-34.5 122z" />
<glyph unicode="&#x2019;" horiz-adv-x="460" d="M193 961q49 63 94 146t45 136q0 35 -31 57t-70 29l142 174q68 -7 102.5 -58t34.5 -122q0 -56 -23.5 -114.5t-66 -112.5t-81.5 -94t-89 -84z" />
<glyph unicode="&#x201a;" horiz-adv-x="460" d="M57 -299q49 63 94.5 146.5t45.5 136.5q0 35 -31 57t-70 29l142 174q68 -7 102.5 -58t34.5 -123q0 -56 -23.5 -114.5t-66.5 -113t-81 -94t-89 -85.5z" />
<glyph unicode="&#x201c;" horiz-adv-x="845" d="M211 1122q0 176 260 406l57 -43q-48 -62 -93.5 -146t-45.5 -137q0 -36 30 -57.5t70 -28.5l-141 -174q-68 7 -102.5 58t-34.5 122zM592 1122q0 56 23.5 114.5t67 113t81.5 94t88 84.5l57 -43q-48 -62 -93.5 -146t-45.5 -137q0 -36 30 -57.5t70 -28.5l-141 -174 q-67 7 -102 58t-35 122z" />
<glyph unicode="&#x201d;" horiz-adv-x="845" d="M197 961q49 63 94 146t45 136q0 35 -30.5 57t-69.5 29l141 174q67 -7 102 -58t35 -122q0 -45 -17.5 -94t-42 -89t-63 -84.5t-69 -74.5t-70.5 -66zM578 961q49 63 94 146t45 136q0 35 -31 57t-70 29l142 174q67 -7 102 -58t35 -122q0 -56 -23.5 -114t-67 -113t-81 -94 t-88.5 -84z" />
<glyph unicode="&#x201e;" horiz-adv-x="845" d="M55 -299q49 63 94.5 146.5t45.5 136.5q0 35 -31 57t-70 29l142 174q67 -7 102 -58.5t35 -122.5q0 -56 -23.5 -114t-67.5 -113.5t-80.5 -94t-88.5 -85.5zM436 -299q48 62 93.5 146t45.5 137q0 35 -30.5 57t-69.5 29l141 174q68 -7 103 -58.5t35 -122.5q0 -56 -23.5 -114.5 t-66.5 -113t-81 -94t-89 -85.5z" />
<glyph unicode="&#x2022;" horiz-adv-x="641" d="M131 463q0 101 75.5 175.5t176.5 74.5q102 0 178 -74t76 -176q0 -104 -75 -179t-179 -75q-103 0 -177.5 75.5t-74.5 178.5z" />
<glyph unicode="&#x2026;" horiz-adv-x="1921" d="M221 94q0 59 45.5 103.5t104.5 44.5q48 0 85.5 -34.5t37.5 -82.5q0 -60 -46 -106t-106 -46q-50 0 -85.5 35.5t-35.5 85.5zM836 94q0 60 45 104t104 44q48 0 85.5 -34.5t37.5 -82.5q0 -60 -46 -106t-106 -46q-49 0 -84.5 35.5t-35.5 85.5zM1450 94q0 60 45 104t104 44 q48 0 85.5 -34.5t37.5 -82.5q0 -60 -45.5 -106t-105.5 -46q-49 0 -85 35.5t-36 85.5z" />
<glyph unicode="&#x202f;" horiz-adv-x="365" />
<glyph unicode="&#x2039;" horiz-adv-x="667" d="M135 451l510 415l-20 -182l-248 -233l198 -234l-18 -182z" />
<glyph unicode="&#x203a;" horiz-adv-x="667" d="M119 35l18 182l248 234l-199 233l21 182l422 -415z" />
<glyph unicode="&#x205f;" horiz-adv-x="456" />
<glyph unicode="&#x20ac;" horiz-adv-x="1224" d="M29 502l10 112h133q4 93 12 140h-129l11 112h145q71 230 259 368t441 138q41 0 81 -2t100 -11t103.5 -24.5t75.5 -46t32 -71.5q0 -22 -13 -76h-157q0 94 -248 94q-178 0 -302.5 -101.5t-181.5 -267.5h707l-12 -112h-723q-13 -76 -13 -140h721l-12 -112h-702 q25 -174 126 -280.5t273 -106.5q217 0 389 84l31 -133q-221 -91 -451 -91q-152 0 -273 70.5t-191.5 188.5t-90.5 268h-151z" />
<glyph unicode="&#x2122;" horiz-adv-x="1951" d="M242 1223l12 125h670l-15 -123h-262l-74 -688h-141l74 686h-264zM889 537l149 811h158q16 -49 56 -170.5t67.5 -209.5t50.5 -171q39 75 303 551h154l-23 -811h-143l25 589l-359 -614l-199 606l-104 -581h-135z" />
<glyph unicode="&#xe000;" horiz-adv-x="931" d="M0 0v932h932v-932h-932z" />
<glyph unicode="&#xfb01;" horiz-adv-x="1013" d="M-309 -418q0 54 26 111h133q-6 -30 -6 -33q0 -26 27 -36.5t59 -10.5q61 0 95 10q37 12 67.5 48t49 84.5t30 93t16.5 85.5l111 873h-178l16 119h174q1 4 2 13q13 92 21 137t26 120t38.5 112t56.5 86t82 71.5t112.5 39.5t151.5 17q32 0 66.5 -7.5t68.5 -22t56 -41.5t22 -62 q0 -22 -3 -45t-9.5 -55.5t-8.5 -45.5h-143q12 43 12 86q0 55 -84 55q-127 0 -145 -6q-24 -10 -45.5 -31t-36 -44t-27.5 -60.5t-20.5 -63.5t-15.5 -71.5t-10.5 -66.5t-8 -65l-6.5 -52h502l-113 -924h-152l97 807h-348l-82 -670q-28 -229 -55 -326q-59 -213 -206 -288 q-92 -47 -225 -47q-31 0 -59.5 4t-60 14t-51 33t-19.5 55z" />
<glyph unicode="&#xfb02;" horiz-adv-x="1021" d="M-309 -418q0 54 26 111h133q-6 -30 -6 -33q0 -26 27 -36.5t59 -10.5q61 0 95 10q37 12 67.5 48t49 84.5t30 93t16.5 85.5l111 873h-178l16 119h174q3 17 8 49q14 87 22 129.5t26.5 112.5t38.5 104.5t55.5 80.5t80.5 67t110.5 37t148.5 16q22 0 56 -4.5t73 -13.5t66.5 -27 t27.5 -41v-4l-172 -1432h-152l166 1360q-44 24 -112 24q-103 0 -121 -6q-37 -14 -65.5 -51t-45.5 -87.5t-26 -91.5t-15 -85q-8 -29 -18 -135h227l-16 -121h-225q-14 -112 -41.5 -335t-40.5 -335q-29 -227 -53 -318q-58 -213 -198 -290q-95 -53 -235 -53q-31 0 -59.5 4 t-60 14t-51 33t-19.5 55z" />
<glyph unicode="&#xfb03;" horiz-adv-x="1519" d="M-309 -418q0 54 26 111h133q-6 -30 -6 -33q0 -26 27 -36.5t59 -10.5q61 0 95 10q37 12 68 48t49.5 85t29.5 92.5t16 85.5q81 615 111 873h-178l16 119h174q8 63 15 106.5t18.5 94.5t25 85.5t34 71.5t46 61t60.5 47t78.5 36t98.5 20.5t122 7.5q74 0 164 -49 q112 115 330 115q32 0 67 -7t70 -21.5t57.5 -42.5t22.5 -65q0 -61 -23 -143h-139q8 40 8 72q0 18 -2 28t-10 20.5t-25.5 15.5t-46.5 5q-125 0 -145 -8q-21 -8 -39.5 -23t-33 -40.5t-26 -47.5t-21 -59t-15.5 -59.5t-12.5 -63.5t-8.5 -57t-7 -55.5t-5 -42.5h501l-112 -928 h-150l97 807h-351l-75 -614q-27 -225 -51 -316q-56 -214 -196 -292q-96 -54 -239 -54q-139 0 -200 51q-55 -46 -137 -76t-175 -30q-31 0 -59.5 4t-60 14t-51 33t-19.5 55zM274 -291q8 -21 59 -31t89 -10q81 0 115 10q37 12 68 48.5t49.5 85t29.5 92.5t16 86q68 527 105 817 h-356l-82 -670q-11 -96 -20 -155t-28 -137t-45 -136zM463 926h354q29 243 72 348q-3 24 -41 35.5t-72 11.5q-125 0 -145 -8q-30 -11 -55 -34t-42 -59t-28.5 -66.5t-20 -78t-12 -71t-9.5 -67.5q-1 -7 -1 -11z" />
<glyph unicode="&#xfb04;" horiz-adv-x="1519" d="M-309 -418q0 54 26 111h133q-6 -30 -6 -33q0 -26 27 -36.5t59 -10.5q61 0 95 10q37 12 68 48t49.5 85t29.5 92.5t16 85.5q81 615 111 873h-178l16 119h174q8 63 15 106.5t18.5 94.5t25 85.5t34 71.5t46 61t60.5 47t78.5 36t98.5 20.5t122 7.5q74 0 164 -49 q112 115 330 115q99 0 160 -27t61 -59q0 -22 -4 -50l-162 -1386h-144l95 807h-355l-75 -614q-27 -228 -53 -321q-58 -214 -202 -291q-94 -50 -231 -50q-139 0 -200 51q-55 -46 -137 -76t-175 -30q-31 0 -59.5 4t-60 14t-51 33t-19.5 55zM274 -291q8 -21 59 -31t89 -10 q81 0 115 10q37 12 68 48.5t49.5 85t29.5 92.5t16 86q68 527 105 817h-356l-82 -670q-11 -96 -20 -155t-28 -137t-45 -136zM463 926h354q29 243 72 348q-3 24 -41 35.5t-72 11.5q-125 0 -145 -8q-30 -11 -55 -34t-42 -59t-28.5 -66.5t-20 -78t-12 -71t-9.5 -67.5 q-1 -7 -1 -11zM969 926q60 0 178 1t176 1l43 352q1 14 3 33t3.5 32t1.5 15q-58 24 -112 24q-105 0 -125 -8q-21 -8 -39.5 -23t-33 -40.5t-26 -47.5t-21 -59.5t-15.5 -59t-12.5 -64.5t-8.5 -57t-7 -56t-5 -43z" />
</font>
</defs>
</svg>
